<?xml version="1.0" encoding="utf-8"?>
<!-- Generator: Adobe Illustrator 23.0.1, SVG Export Plug-In . SVG Version: 6.00 Build 0)  -->
<svg version="1.1" id="Layer_1" xmlns="http://www.w3.org/2000/svg" xmlns:xlink="http://www.w3.org/1999/xlink" x="0px" y="0px"
	 viewBox="0 0 138.4 63.9" style="enable-background:new 0 0 138.4 63.9;" xml:space="preserve">
<style type="text/css">
	.st0{fill:#6699CC;}
</style>
<title>Artboard 23</title>
<path class="st0" d="M57.2,58c-0.1-0.1-0.3,0-0.4,0.1c-0.1,0.1-0.1,0.1-0.2,0.2c-0.1,0.1-0.1,0.2-0.2,0.3c-0.2,0.4-0.5,0.8-0.7,1.2
	c0,0,0,0.1-0.1,0.1c0,0-0.1-0.1-0.1-0.1c-0.2-0.3-0.3-0.7-0.4-1l-0.6-1.7c-0.1-0.3-0.3-0.5-0.5-0.7c-0.2-0.2-0.4-0.2-0.6-0.1
	c0,0,0,0-0.1,0.1c0,0-0.1,0.1-0.1,0.2l-1.1,1.9c-0.1,0.2-0.2,0.3-0.3,0.5c-0.1,0.1-0.1,0.3-0.2,0.4c0,0.2,0.1,0.4,0.3,0.5
	c0.2,0.1,0.4,0,0.5-0.2c0.1-0.1,0.1-0.2,0.2-0.3l0.7-1.4c0.1-0.2,0.2-0.4,0.3-0.5c0-0.1,0.1-0.1,0.2-0.2l0.1,0.3l1,2.7
	c0.1,0.2,0.2,0.4,0.3,0.7c0.1,0.2,0.2,0.3,0.4,0.4c0.3-0.1,0.5-0.3,0.6-0.6c0.1-0.4,0.3-0.8,0.5-1.2l0.3-0.5
	c0.1-0.2,0.2-0.4,0.3-0.6c0-0.1,0.1-0.2,0.1-0.3C57.5,58.1,57.4,58,57.2,58"/>
<path class="st0" d="M81.9,59.6c-0.2-0.1-0.3-0.3-0.5-0.4c-0.3-0.1-0.5-0.3-0.7-0.6c-0.2-0.2-0.4-0.4-0.6-0.5
	c-0.4-0.3-0.8-0.6-1.1-1.1c-0.1-0.2-0.3-0.3-0.6-0.3c-0.2,0-0.4,0.1-0.4,0.3c0,0.1,0,0.2,0,0.3c0,0.3-0.1,0.7-0.1,1.1
	c-0.1,0.6-0.2,1.3-0.3,1.9L77.4,61c0,0.1,0,0.2,0,0.3c0.1,0.2,0.2,0.3,0.4,0.3c0.2,0,0.3-0.1,0.3-0.3c0,0,0-0.1,0-0.1
	c0.1-0.3,0.1-0.6,0.2-1s0.1-0.3,0.4-0.4s0.7-0.2,1.1-0.3c0.2-0.1,0.4,0,0.6,0.1c0.2,0.2,0.5,0.4,0.8,0.5c0.1,0.1,0.3,0.1,0.4,0.1
	c0.2,0,0.4-0.1,0.4-0.3C82.1,59.8,82,59.7,81.9,59.6 M78.5,58.8c0-0.2,0-0.4,0.1-0.7c0,0,0.1-0.1,0.1-0.1c0.1,0,0.1,0,0.2,0.1
	c0.2,0.1,0.3,0.3,0.4,0.5C79.1,58.8,78.8,58.9,78.5,58.8"/>
<path class="st0" d="M64.8,58.5c-0.3-0.2-0.6-0.3-0.9-0.3h-0.1c-0.4,0-0.9,0.2-1.1,0.5c-0.2,0.2-0.4,0.5-0.5,0.8
	c-0.3,0.7-0.3,1.5,0.1,2.1c0.1,0.2,0.3,0.4,0.6,0.5c0.1,0,0.1,0.1,0.2,0.1c0.5,0.3,1,0.3,1.6,0.2c0.4-0.1,0.7-0.4,0.9-0.8
	c0.2-0.3,0.3-0.7,0.3-1c0-0.1,0-0.1,0-0.2C65.8,59.7,65.4,59,64.8,58.5 M65.1,60.8c-0.1,0.3-0.2,0.5-0.4,0.7
	c-0.1,0.1-0.3,0.2-0.4,0.3l-0.5,0.1c-0.2,0-0.3-0.1-0.5-0.1c-0.7-0.2-1-0.9-0.9-1.6c0,0,0,0,0-0.1c0.1-0.4,0.3-0.7,0.5-1
	c0.1-0.1,0.2-0.2,0.3-0.3c0.1-0.1,0.3-0.1,0.4-0.1c0.1,0,0.2,0.1,0.3,0.1c0.1,0,0.2,0,0.3,0.1C65,59.4,65.3,60.1,65.1,60.8"/>
<path class="st0" d="M72.6,61.3h-0.3L71,61.5c-0.1,0-0.2,0-0.3,0c0-0.1,0-0.2,0-0.3c0-0.5,0-0.9-0.1-1.4c0-0.1,0-0.1,0-0.2
	c0-0.1-0.1-0.2-0.2-0.3c-0.1-0.1-0.3-0.1-0.4,0c0,0,0,0.1,0,0.1c0,0.1-0.1,0.2-0.1,0.3c0,0.2,0,0.4,0,0.6s0,0.3,0,0.5
	c0,0.4,0,0.9,0.1,1.3c0,0.2,0.1,0.3,0.3,0.3c0.2,0.1,0.4,0.1,0.6,0.1h0.3l1.3-0.2c0.1,0,0.3-0.1,0.4-0.2c0.1-0.1,0.1-0.3,0-0.5
	c-0.1-0.1-0.2-0.2-0.3-0.2"/>
<path class="st0" d="M123.7,58.1c-0.2-0.1-0.4-0.2-0.5-0.4c-0.1-0.1-0.1-0.1-0.2-0.2c-0.1-0.1-0.3-0.2-0.4-0.2c-0.6,0-1.2,0-1.8-0.1
	c-0.9-0.1-1.8-0.2-2.7-0.2c-0.1,0-0.3,0.1-0.3,0.2c-0.1,0.3-0.3,0.6-0.6,0.8c0,0,0,0-0.1,0c0,0.1-0.1,0.1-0.2,0.2l-0.1,0.1
	c0,0.1,0.1,0.2,0.2,0.3c0.3,0.2,0.6,0.5,0.9,0.8l0.3,0.3l0.4,0.3c0.1,0.1,0.2,0.1,0.4,0.1h0.7c0.1,0,0.2,0,0.3,0
	c0.4,0.1,0.7,0.1,1.1,0.1c0.2,0,0.4,0,0.5,0c0.1,0,0.3,0,0.3-0.1c0.3-0.3,0.7-0.7,1-1s0.5-0.4,0.7-0.6c0.1-0.1,0.1-0.1,0.1-0.2
	C123.8,58.2,123.8,58.1,123.7,58.1"/>
<path class="st0" d="M20.8,58.1L20.8,58.1c-0.2-0.2-0.3-0.4-0.4-0.6c0,0,0-0.1-0.1-0.1c-0.4,0-0.8,0-1.2,0c-0.1,0-0.3,0-0.4,0
	c-0.3,0-0.6,0-0.8,0h-0.2c-0.7,0-1.4,0.1-2.1,0.2c-0.1,0-0.2,0-0.3,0c0,0-0.1,0.1-0.1,0.1c0,0,0,0.1,0,0.2c-0.1,0.3-0.2,0.6-0.4,0.8
	L15,59l1.5,1.2c0,0,0.1,0.1,0.2,0.1c0.2,0.1,0.5,0.1,0.7,0.1c0.1,0,0.2,0,0.3,0c0.1,0,0.3,0.1,0.4,0.1c0.1,0,0.3,0,0.4,0h0
	c0.3,0,0.5,0,0.7-0.2c0.1-0.1,0.1-0.1,0.2-0.2l1.6-1c0.1,0,0.2-0.1,0.2-0.2s-0.1-0.2-0.2-0.3C21,58.5,20.9,58.4,20.8,58.1"/>
<path class="st0" d="M117.8,56c0,0.1,0.1,0.1,0.2,0.2l0.6,0.1c0.6,0.1,1.1,0.1,1.7,0.2s1.3,0.1,2,0.1c0.1,0,0.2,0,0.3,0
	c0-0.3,0.1-0.6,0.2-0.8c0.1-0.3,0.2-0.6,0.4-0.8c-0.4,0-0.8-0.1-1.2-0.1c-0.8,0-1.5,0-2.3,0h-1.7c-0.1,0-0.2,0-0.3,0.1
	C117.6,55.3,117.7,55.6,117.8,56L117.8,56"/>
<path class="st0" d="M15.1,56c0,0.1,0,0.2,0.1,0.2c0,0.1,0.1,0.2,0.1,0.3c0,0.2,0,0.3,0.1,0.5h0.2c0.3,0,0.7-0.1,1-0.1h0.8
	c0.2,0,0.5,0,0.7,0l2.1-0.2c0.1,0,0.2,0,0.3-0.1c0.1-0.2,0.2-0.4,0.3-0.7c0-0.1,0.1-0.2,0.1-0.3c0-0.1,0-0.1,0-0.2h-0.4
	c-0.7,0-1.4,0-2.1,0l-3.1-0.1h-0.3h-0.1c0.1,0.1,0.1,0.1,0.1,0.2C15,55.7,15.1,55.9,15.1,56"/>
<path class="st0" d="M121,61L121,61h-1.4c-0.1,0-0.2,0.1-0.2,0.2c-0.1,0.2-0.1,0.5-0.2,0.7c-0.1,0.3,0,0.6,0.1,0.9
	c0.2,0.4,0.4,0.7,0.6,1c0.1,0.1,0.1,0.1,0.2,0c0.2-0.2,0.4-0.4,0.6-0.6c0.2-0.3,0.3-0.6,0.3-1c0-0.1,0-0.2,0-0.3c0-0.1,0-0.1,0-0.2
	L121,61"/>
<path class="st0" d="M17.2,61.2c0,0-0.1,0-0.1,0c0,0.1,0,0.2,0,0.3c0,0.1,0,0.3,0,0.4c0,0.3,0.1,0.7,0.2,1c0,0.1,0.1,0.3,0.2,0.4
	c0,0.1,0.1,0.2,0.1,0.2c0.1,0.1,0.3,0.3,0.5,0.4c0.1-0.1,0.2-0.1,0.3-0.2c0.2-0.3,0.4-0.6,0.5-0.9c0.1-0.1,0.1-0.3,0.1-0.5
	c0-0.2,0.1-0.5,0.1-0.7c0-0.1,0-0.2,0-0.3C18.4,61.2,17.8,61.2,17.2,61.2"/>
<path class="st0" d="M98.3,33c0-0.1-0.1-0.1-0.1-0.2c-0.3-0.3-0.7-0.4-1.1-0.4c-0.1,0-0.1,0-0.2,0c-0.4,0.2-0.7,0.6-0.7,1
	c0,0.2,0.1,0.3,0.2,0.4c0.1,0,0.1,0.1,0.1,0.2c0.1,0.2,0.3,0.3,0.5,0.2c0.1,0,0.2,0,0.3-0.1c0.1,0,0.1,0,0.2-0.1l0.2-0.1
	c0,0.1,0,0.2-0.1,0.3c-0.2,0.2-0.3,0.5-0.5,0.7c-0.1,0.1-0.1,0.1-0.2,0.2l-0.4,0.2c-0.3,0.2-0.7,0.3-1.1,0.2h-0.1
	c-0.4,0-0.7-0.1-1-0.2c-0.1-0.1-0.2-0.1-0.3-0.1c-0.1,0-0.3,0-0.3-0.1c-0.2-0.1-0.3-0.2-0.4-0.4c-0.1-0.1-0.2-0.2-0.3-0.4
	c-0.1-0.1-0.1-0.1-0.2-0.2c-0.3-0.6-0.4-1.2-0.5-1.9c-0.1-0.5-0.1-0.9-0.1-1.4c0-0.2,0-0.3,0-0.5c0-0.7,0-1.5,0-2.2
	c0-0.1,0-0.2,0-0.3c0-0.3,0.1-0.5,0.1-0.8c0-0.8,0-1.6,0-2.3c0-0.3,0-0.6,0-0.9c0-0.9,0.1-1.8,0-2.7c0-0.5,0-0.9,0-1.3s0-0.9,0-1.4
	c0-0.2,0-0.4,0-0.6c0-0.8,0-1.5-0.1-2.3c0-0.3,0-0.6-0.1-0.9c-0.1-0.6-0.3-1.1-0.4-1.7c0-0.2-0.1-0.4-0.2-0.6
	c-0.2-0.3-0.4-0.7-0.6-1l-0.1-0.1c-0.5-0.5-1-1-1.6-1.5l-0.1-0.1l-0.8-0.5c-0.6-0.3-1.2-0.5-1.9-0.6h-0.4c-0.1,0-0.3,0-0.4,0
	c-0.3,0-0.5,0.1-0.8,0.1c-0.2,0-0.4,0.1-0.6,0.2l-1.2,0.5c-0.1,0.1-0.2,0.1-0.3,0.2l-1.2,0.9c-0.4,0.3-0.7,0.7-0.9,1.1
	c-0.1,0.2-0.2,0.3-0.3,0.4c-0.1,0.1-0.2,0.3-0.3,0.4c-0.1,0.1-0.1,0.3-0.2,0.4c-0.1,0.4-0.2,0.8-0.4,1.1c-0.1,0.2-0.1,0.4-0.1,0.6
	c0,0.1,0,0.1,0,0.2c-0.1,0.5-0.1,1-0.1,1.5c0,0.1,0,0.2,0,0.4c0,0.3,0,0.6,0,0.9c0,0.3,0,0.6,0,0.9c0,0.1,0,0.2,0,0.4
	c0,0.5,0,1.1,0,1.7c0,0.2,0,0.5,0,0.7c0,0.7,0.1,1.5,0.1,2.2c0,0.1,0,0.2,0,0.3c0,0.1,0,0.2,0,0.3c0,0.5,0,1.1,0,1.6
	c0,0.1,0,0.1,0,0.2c-0.1,0.2-0.1,0.4-0.1,0.7c0,0.7,0,1.3,0,2s0,1.6,0,2.4c0,0.1,0,0.2,0,0.3c0,0.3,0,0.7,0,1
	c-0.1,0.8-0.2,1.7-0.4,2.5c-0.1,0.4-0.2,0.8-0.3,1.2c-0.1,0.3-0.2,0.6-0.3,0.9c-0.1,0.4-0.3,0.7-0.5,1.1c0,0,0,0.1,0,0.1
	c0,0.2-0.1,0.4-0.2,0.5l-0.7,1.2c0,0,0,0.1-0.1,0.1c-0.2,0.4-0.5,0.8-0.9,1.2c-0.2,0.2-0.5,0.4-0.7,0.7c-0.4,0.4-0.7,0.7-1.1,1
	c-0.1,0-0.1,0.1-0.2,0.1c-0.2,0.2-0.4,0.4-0.7,0.5c-0.3,0.1-0.6,0.2-0.9,0.3c-0.4,0.1-0.8,0.3-1.2,0.5c-0.1,0.1-0.2,0.1-0.4,0.1
	c-0.1,0-0.2,0-0.2,0.1c-0.1,0.1-0.1,0.1-0.2,0.1c-0.3,0.1-0.6,0.1-0.9,0.2c-0.5,0.1-1,0.1-1.5,0.1c-0.1,0-0.3,0-0.4,0
	c-0.9,0-1.8,0-2.8-0.2c-0.4-0.1-0.9-0.2-1.3-0.3s-1.1-0.3-1.7-0.5c-0.1,0-0.2-0.1-0.4-0.1c-0.2,0-0.4-0.1-0.6-0.2
	c-0.4-0.2-0.7-0.4-1.1-0.5l-0.3-0.2l-0.9-0.6l-1.1-0.7c-0.1-0.1-0.3-0.2-0.4-0.3c-0.2-0.1-0.3-0.3-0.5-0.4c-0.3-0.2-0.6-0.5-0.9-0.9
	c-0.3-0.4-0.6-0.7-1-1.1c-0.1,0-0.1-0.1-0.2-0.2c-0.4-0.5-0.8-1-1.1-1.6c-0.2-0.3-0.3-0.6-0.4-1c0-0.1-0.1-0.2-0.1-0.3
	c-0.1-0.4-0.2-0.9-0.2-1.3c-0.1-0.3-0.1-0.6,0-0.9c0-0.2,0.1-0.4,0.1-0.5c0.1-0.3,0.3-0.6,0.7-0.7c0,0,0,0.1,0,0.1
	c0.1,0.3,0.3,0.6,0.7,0.7c0.4,0.1,0.7,0.1,1.1,0.1c0.1,0,0.1,0,0.2,0c0.1-0.1,0.3-0.2,0.5-0.2c0,0,0.1,0,0.1-0.1
	c0.3-0.2,0.5-0.6,0.5-1v-0.2c0-0.4-0.2-0.8-0.5-1c-0.3-0.2-0.6-0.3-0.9-0.3c-0.2,0-0.4,0-0.6,0c-0.1,0-0.2,0-0.3,0.1l-0.3,0.1
	c-0.2,0.1-0.4,0.2-0.5,0.3c-0.3,0.3-0.6,0.5-0.9,0.8c-0.2,0.2-0.4,0.5-0.5,0.8c-0.1,0.2-0.2,0.3-0.2,0.5c0,0.1-0.1,0.3-0.1,0.4
	c0,0.2,0,0.4,0,0.5c0.1,0.6,0.2,1.2,0.4,1.8c0.1,0.5,0.3,1.1,0.5,1.6c0.3,0.6,0.6,1.2,0.9,1.7c0.2,0.3,0.4,0.6,0.7,0.9
	c0,0,0,0,0,0.1c0.2,0.3,0.5,0.6,0.7,0.9c0.3,0.4,0.6,0.7,0.9,1l1,0.8c0.5,0.4,1.1,0.9,1.6,1.4l0.2,0.2c0.8,0.7,1.8,1.2,2.8,1.7
	c0.2,0.1,0.5,0.2,0.7,0.3c0.8,0.3,1.6,0.5,2.4,0.7h0.1c0.7,0.2,1.3,0.2,2,0.2h0.6l1.3,0c0.3,0,0.6,0,0.8-0.1l0.2-0.1
	c0.1,0,0.3-0.1,0.4-0.1c0.3-0.1,0.6-0.2,0.9-0.3l0.7-0.2c0.3-0.1,0.7-0.2,1-0.3s0.5-0.2,0.7-0.3s0.4-0.2,0.6-0.3
	c0.4-0.2,0.9-0.4,1.3-0.6l0.2-0.1l1.1-0.7l0.2-0.2c0.3-0.1,0.5-0.3,0.7-0.5l0.4-0.4c0.3-0.3,0.5-0.6,0.7-0.9
	c0.3-0.4,0.5-0.8,0.8-1.1c0.3-0.4,0.6-0.8,0.7-1.3c0-0.1,0.1-0.2,0.1-0.3c0.1-0.2,0.2-0.4,0.2-0.5c0.3-0.9,0.5-1.8,0.8-2.7
	c0.1-0.6,0.3-1.2,0.3-1.8c0-0.4,0.1-0.8,0.2-1.3s0.1-1,0.1-1.4s0.1-1.1,0-1.6s0-1.2,0-1.9s0.1-1.5,0.1-2.2v-1.1c0-0.1,0-0.3,0-0.4
	c0-0.8,0-1.5,0-2.3c0-0.2,0-0.3,0.1-0.5c0-0.1,0.1-0.1,0.2-0.1h0.3h0.2c0.6,0,1.1,0,1.7,0h4.3c0.2,0,0.3,0.1,0.4,0.1
	c0.1,0.1,0.1,0.2,0.1,0.3c0,0.1,0,0.2,0,0.4c0,0.2,0,0.4,0,0.6c0,0.6,0,1.2,0,1.8c0,0.2,0,0.5,0,0.7s0,0.2,0,0.4c0,0.4,0,0.7,0,1.1
	c0,0.1,0,0.1,0,0.2c0,0.1,0,0.3,0,0.4v1.9c0,0.3,0,0.5,0.1,0.8c0,0.2,0,0.5,0.1,0.7s0,0.2,0,0.4c0.2,1.1,0.5,2.1,0.9,3.1
	c0.1,0.3,0.3,0.5,0.4,0.7l0.2,0.3c0.1,0.1,0.2,0.2,0.3,0.3c0.1,0.1,0.3,0.2,0.4,0.3c0.2,0.2,0.4,0.4,0.7,0.5
	c0.3,0.1,0.5,0.3,0.8,0.4c0.2,0.1,0.4,0.1,0.6,0.2c0.1,0,0.2,0,0.3,0.1c0.3,0,0.5,0,0.8,0h0.6c0.3,0,0.5-0.1,0.8-0.2
	c0.2-0.1,0.4-0.2,0.5-0.3c0.1,0,0.2-0.1,0.3-0.2c0.4-0.3,0.7-0.6,1-1c0.1-0.2,0.2-0.3,0.3-0.5c0-0.1,0.1-0.1,0.1-0.2
	c0.2-0.4,0.3-0.8,0.2-1.2c-0.1-0.2-0.2-0.4-0.3-0.7 M87.9,18.1h-0.1c-0.6-0.1-1.2,0-1.8,0c-0.4,0-0.9,0-1.3,0.1s-1,0.1-1.5,0.1
	c-0.1,0-0.2,0-0.3,0l-0.1-0.2c0-0.1,0-0.2,0-0.2c0-0.5,0-1-0.1-1.5c0-0.3,0-0.6,0-0.8c0-0.2,0-0.4,0.1-0.5c0-0.3,0.1-0.6,0.2-0.8
	c0-0.1,0.1-0.3,0.1-0.4c0.1-0.2,0.2-0.5,0.3-0.7c0.1-0.1,0.2-0.3,0.3-0.4c0.1-0.2,0.3-0.3,0.5-0.4c0.5-0.1,1-0.2,1.5-0.2
	c0.2,0,0.4,0,0.6,0.2c0.1,0.1,0.2,0.1,0.3,0.2c0.3,0.1,0.5,0.3,0.8,0.5c0.1,0.1,0.1,0.1,0.2,0.2c0.1,0.2,0.2,0.3,0.3,0.5
	c0,0.1,0.1,0.1,0.1,0.2c0,0.2,0.1,0.4,0.1,0.6c0,0.2,0.1,0.4,0.1,0.7c0,0.2,0,0.5,0,0.8s0,0.6,0,0.9s0,0.7,0,1.1
	C87.9,17.9,87.9,18,87.9,18.1"/>
<path class="st0" d="M34.3,15.3c0-0.4-0.1-0.9-0.2-1.3c0-0.1-0.1-0.1-0.1-0.2c0-0.2-0.1-0.4-0.2-0.5c-0.2-0.3-0.4-0.7-0.5-1
	c-0.3-0.5-0.6-0.9-1-1.3L32,10.7c-0.3-0.3-0.7-0.6-1.1-0.9c-0.4-0.3-0.8-0.5-1.3-0.6C29.1,9.2,28.5,9,28,9c-0.8,0-1.6,0-2.4,0
	c-0.1,0-0.2,0-0.3,0c-0.4,0.1-0.8,0.3-1.1,0.5c-0.1,0-0.1,0.1-0.2,0.2c-0.1,0.1-0.2,0.1-0.3,0c0,0,0,0,0,0c-0.1-0.1-0.1-0.1-0.1-0.2
	c0-0.2-0.1-0.5-0.1-0.7c0-0.1-0.1-0.2-0.2-0.2c0,0,0,0,0,0c-0.1,0-0.2,0-0.2,0h-3l-4.7,0.1c-0.1,0-0.3,0-0.4,0
	c-0.6,0.1-0.4,0-0.9,0.3l0,0c-0.5,0.2-0.8,0.5-1.1,0.9l0,0c-0.2,0.3-0.4,0.6-0.5,1c-0.1,0.5-0.1,0.9,0,1.4c0,0.2,0.1,0.4,0.2,0.5
	c0.1,0.1,0.1,0.2,0.2,0.4c0.1,0.3,0.3,0.6,0.5,0.8c0.3,0.3,0.7,0.6,1.2,0.7c0.3,0.1,0.5,0.1,0.8,0.1c0.4-0.1,0.8-0.2,1.2-0.4
	c0.5-0.3,0.9-0.7,1.2-1.1c0.2-0.3,0.3-0.6,0.5-0.9c0-0.1,0.1-0.2,0.1-0.4c0.1-0.6-0.1-1.2-0.3-1.8c-0.1-0.3-0.3-0.5-0.6-0.5
	c0,0-0.1,0-0.1,0L17,9.5c0,0,0-0.1,0-0.1c0.1,0,0.1-0.1,0.2-0.1l0.3-0.1c0.3-0.1,0.5-0.1,0.8,0c0.3,0.1,0.5,0.2,0.8,0.3
	c0.3,0.1,0.5,0.4,0.6,0.7c0.1,0.2,0.2,0.4,0.3,0.6c0.1,0.1,0.2,0.3,0.2,0.4c0,0.2,0.1,0.4,0.2,0.6c0.1,0.3,0.1,0.6,0.1,0.8
	c0,0.1,0,0.2,0.1,0.4c0,0.1,0.1,0.2,0.1,0.3c0.1,0.6,0,1.1,0.1,1.7V15c0,0.3,0,0.6,0,0.9c0,0.3,0,0.8,0.1,1.3c0,0.8,0.1,1.6,0,2.5
	c0,0.4,0,0.8,0,1.2c0,0.2,0,0.4,0,0.6c0,0.4,0,0.9,0,1.3v1c0,0.5-0.1,1.1-0.1,1.6c0,1.5,0,3,0.1,4.5v0.5c0,0.8,0,1.6-0.1,2.4
	c0,0.2,0,0.4,0,0.6s0,0.6,0,0.9c0,0.1,0,0.2,0,0.3c0,0.8-0.1,1.7-0.1,2.5c0,0.3,0,0.6,0.1,0.9c0,0.1,0.1,0.2,0.2,0.2h0.6
	c0.4,0,0.8,0,1.2,0h3h0.2c-0.1-0.1-0.1-0.2-0.2-0.3c-0.2-0.2-0.4-0.5-0.5-0.7s-0.3-0.5-0.4-0.7c-0.2-0.3-0.3-0.6-0.4-0.9
	c-0.2-0.9-0.3-1.8-0.4-2.7l-0.1-0.9l-0.1-1.3c0-0.2,0-0.4,0-0.6c-0.1-0.7-0.1-1.3-0.1-2c0-0.2,0-0.4,0-0.5c0-0.8,0.1-1.6,0.2-2.4
	c0.1-0.7,0.1-1.5,0-2.2c0-0.3,0-0.6,0.1-0.9c0-0.1,0.1-0.2,0.2-0.2c0.1,0,0.2,0,0.2,0c0.1,0,0.2,0.1,0.3,0.1
	c0.2,0.1,0.4,0.2,0.6,0.2l0.5,0.2c0.1,0,0.2,0.1,0.3,0.1c0.4,0.1,0.8,0.2,1.2,0.3c0.5,0.1,1,0.2,1.5,0.1l0.5-0.1l0.2-0.1l0.9-0.4
	c0.3-0.1,0.5-0.3,0.7-0.4l0.3-0.3c0.3-0.2,0.6-0.4,0.9-0.7c0.8-0.6,1.3-1.4,1.6-2.3c0.2-0.4,0.3-0.8,0.5-1.2l0.1-0.2
	c0.1-0.5,0.1-0.9,0.1-1.4c0-0.1,0-0.2,0-0.2 M30.6,17.8c-0.2,0.3-0.5,0.6-0.7,0.9c-0.1,0.1-0.3,0.3-0.4,0.4
	c-0.4,0.2-0.8,0.3-1.2,0.4l-1.1,0.2c-0.3,0-0.7,0-1,0c-0.2,0-0.4-0.1-0.6-0.1c-0.3-0.1-0.5-0.2-0.7-0.4v-0.3c0-0.5,0-1.1,0-1.6V17
	c0-0.5,0-0.9,0-1.4c0-0.4,0-0.7-0.1-1.1c0-0.4,0-0.8,0-1.2c0-0.2,0.1-0.3,0.2-0.4c0.2-0.1,0.3-0.3,0.5-0.3l0.2-0.1
	c0.4-0.2,0.9-0.3,1.3-0.3h0.7c0.2,0,0.5,0,0.7,0.1c0.3,0.1,0.7,0.2,1,0.4c0.3,0.1,0.5,0.4,0.7,0.6c0.1,0.2,0.3,0.4,0.5,0.6
	c0.1,0.1,0.2,0.3,0.2,0.4c0.2,0.5,0.3,1,0.4,1.5C31.3,16.5,31.1,17.3,30.6,17.8"/>
<path class="st0" d="M130.1,10.7c-0.1-0.2-0.2-0.3-0.3-0.5c-0.1-0.2-0.2-0.4-0.4-0.6c-0.1-0.1-0.3-0.2-0.4-0.3
	c-0.2-0.1-0.3-0.2-0.5-0.3c-0.2-0.2-0.5-0.3-0.7-0.3c-0.1,0-0.1,0-0.2,0c-0.2-0.1-0.5-0.1-0.7-0.1c-0.2,0-0.3,0-0.5,0
	c-0.2,0-0.4,0-0.6,0c-0.3,0-0.6,0.1-0.9,0.1c-0.1,0-0.1,0-0.2,0c-0.4,0.1-0.7,0.1-1.1,0c-0.2-0.1-0.4-0.1-0.6-0.1h-1h-1.6
	c-0.7,0-1.4,0-2.1,0h-0.2l-2,0.1c-0.2,0-0.4,0-0.6,0c-0.2,0-0.4,0-0.6,0c-1.5,0-3,0-4.5,0h-2.6h-0.4l-1.4,0h-0.2c-0.2,0-0.5,0-0.7,0
	c-0.2,0-0.3,0-0.5,0h-0.6h-0.4h-1.9c-0.1,0-0.3,0-0.4,0c-0.2,0-0.4,0-0.6,0h-0.6c-0.6,0-1.2,0-1.8,0.1c-0.2,0-0.5,0-0.8,0H97h-2.2
	h-2.6H92c-0.1,0-0.1,0-0.2,0.1c0,0.1,0,0.1,0.1,0.2c0,0,0,0.1,0.1,0.1l0.3,0.2c0.2,0.2,0.4,0.3,0.5,0.5c0,0.1,0.1,0.1,0.1,0.1
	c0.2,0.1,0.3,0.3,0.4,0.4c0.2,0.2,0.3,0.5,0.3,0.7c0,0.2,0.2,0.4,0.4,0.4h0.2l3.6,0.1l6.1,0.1l3.8,0.1l5.9,0.1
	c0.2,0,0.5,0.1,0.7,0.1c0,0.1,0,0.2,0,0.3c0,0.1,0,0.3,0,0.4c0.1,0.8,0.1,1.5,0.1,2.2c0,0.6,0,1.2,0,1.8c0,0.3,0,0.6,0,0.9
	s0,0.4,0,0.6s0,0.2,0,0.4c0,0.8,0,1.6,0.1,2.4c0,0.2,0,0.5,0,0.8s0,0.4,0.1,0.6l0.1,2.4c0,0.5,0,0.9,0,1.4s0,0.6,0,1
	c0,0.5,0,1,0,1.5c0,1,0,2,0,3c0,0.2,0,0.4,0,0.7c0,0.2-0.1,0.6-0.1,0.9c0,0.6-0.1,1.2-0.2,1.8c-0.1,0.6-0.2,1.1-0.3,1.7
	c0,0.2-0.1,0.5-0.2,0.7c-0.1,0.3-0.3,0.6-0.4,0.8c-0.1,0.2-0.2,0.5-0.3,0.7c0,0-0.1,0.1-0.1,0.1h0.2c0.9,0,1.9,0,2.8-0.1l1.2-0.1
	h0.6h0.5c0.1,0,0.2-0.1,0.2-0.2c0,0,0-0.1,0-0.1c0-0.1-0.1-0.1-0.1-0.2c0-0.1-0.1-0.3-0.2-0.4c-0.1-0.2-0.2-0.4-0.2-0.6
	c-0.1-0.5-0.2-1-0.3-1.4c0-0.4-0.1-0.8-0.2-1.1c0-0.1,0-0.2,0-0.3c0-0.3,0-0.6-0.1-0.9c-0.1-0.4-0.1-0.7-0.1-1.1c0-0.6,0-1.1,0-1.7
	c0-0.1,0-0.2,0-0.4c0-0.4-0.1-0.8-0.1-1.2c-0.1-1-0.1-2.1-0.1-3.1c0-0.8,0-1.5,0.1-2.3c0-0.1,0-0.1,0-0.2c0-0.3,0-0.6,0-0.9
	s0-0.9,0-1.3c0-0.2,0-0.4,0-0.6c0-0.5,0.1-1,0.1-1.5c0-0.8,0-1.5,0-2.3c0-0.4,0-0.8,0-1.2c0-0.2,0-0.4,0-0.6s0-0.7,0-1
	c0-0.5,0-1,0-1.5c0-0.1,0-0.3,0.1-0.4h0.2l2.2-0.1h1h1.6c0.2,0,0.2,0,0.3-0.2s0.2-0.5,0.3-0.8c0.1-0.2,0.2-0.4,0.3-0.5l0.2-0.2
	c0.3-0.3,0.7-0.5,1.1-0.6l0.2-0.1c0.3-0.1,0.7-0.1,1-0.1c0.1,0,0.2,0,0.2,0.1c0.1,0.1,0.1,0.1,0,0.3c-0.3,0-0.5,0.1-0.7,0.3
	c0,0,0,0-0.1,0.1c-0.2,0.2-0.3,0.4-0.5,0.6c-0.1,0.1-0.1,0.2-0.2,0.3c-0.1,0.2-0.1,0.4-0.2,0.6c0,0.2,0,0.4,0.1,0.6
	c0,0.1,0,0.1,0,0.2c0,0.3,0.1,0.6,0.2,0.8c0,0.1,0.1,0.2,0.1,0.2c0,0.1,0.1,0.2,0.2,0.3c0.1,0,0.1,0.1,0.2,0.1
	c0.2,0.1,0.4,0.2,0.6,0.3c0.5,0.2,1,0.3,1.6,0.2c0.2,0,0.3,0,0.5-0.1c0.3-0.1,0.6-0.2,0.9-0.3c0.2-0.1,0.3-0.2,0.4-0.3
	c0.3-0.3,0.5-0.6,0.7-1c0.1-0.2,0.1-0.3,0.1-0.5c0.1-0.5,0-0.9-0.2-1.4"/>
<path class="st0" d="M65.1,26.6c-0.2,0-0.5,0.1-0.7,0.2l-0.2,0.1c-0.4,0.1-0.7,0.3-1,0.5c-0.3,0.2-0.6,0.4-0.9,0.6
	c-0.2,0.1-0.4,0.2-0.6,0.4c-0.1,0.1-0.2,0.2-0.3,0.4c-0.5,0.9-0.9,1.8-1.2,2.8c-0.1,0.3-0.2,0.5-0.3,0.7c-0.2,0.4-0.3,0.8-0.3,1.3
	c0,0.2,0,0.5,0,0.7c0,0.3,0.1,0.6,0.1,0.8c0.1,0.4,0.2,0.8,0.3,1.2c0.1,0.4,0.3,0.9,0.5,1.3c0,0.1,0.1,0.1,0.1,0.2
	c0.2,0.3,0.4,0.6,0.7,0.9s0.2,0.3,0.4,0.4c0.3,0.3,0.6,0.5,1,0.8c0.1,0.1,0.2,0.1,0.2,0.2C62.9,40,63,40,63,40.1
	c0.6,0.3,1.3,0.5,1.9,0.7c0.2,0,0.3,0.1,0.5,0.1h0.9c0.2,0,0.5,0,0.7,0l1-0.1c0.5,0,1.1-0.2,1.6-0.5c0.4-0.2,0.8-0.5,1.3-0.8
	c0.3-0.2,0.6-0.4,0.8-0.7c0.2-0.3,0.5-0.6,0.7-0.9l0.2-0.3c0.2-0.3,0.4-0.7,0.6-1c0.1-0.1,0.1-0.2,0.1-0.4c0.1-0.4,0.2-0.9,0.2-1.3
	c0-0.1,0-0.1,0.1-0.2c0.1-0.1,0.1-0.2,0.1-0.4c0-0.1,0-0.2,0-0.4s0-0.3,0-0.5s0-0.3,0-0.5s0-0.6,0-0.9c0-0.3,0-0.7,0-1
	c0-0.2,0-0.3,0-0.5c0-0.4,0-0.8,0-1.2c0-0.2,0-0.5,0-0.7c0-0.4,0-0.9,0-1.3c0-0.2,0-0.4,0-0.6s0-0.5,0-0.8c0-0.3,0-0.6,0-0.9
	c0-0.1,0-0.1,0-0.2c0-1,0-1.9,0-2.9c0-0.5,0-0.9,0-1.4c0-0.2,0-0.5,0-0.7s0-0.3,0-0.5s0-0.3,0-0.4c0-0.4,0-0.8,0-1.2
	c0-0.3,0-0.5,0-0.8c0-0.3,0-0.6,0-1s0-1,0-1.4s0-0.7,0-1.1c0-0.7,0-1.5,0-2.2c0-0.6,0-1.1,0-1.7c0-0.1,0-0.3,0-0.4
	c-0.1,0-0.1,0-0.2,0l-5.7-0.2l0,0l0.1,0.1l0.3,0.2c0.2,0.1,0.3,0.2,0.5,0.4l0.8,0.7l0,0c0.1,0.2,0.3,0.4,0.4,0.6s0.4,0.6,0.6,0.9
	c0,0.1,0.1,0.1,0.1,0.2c0,0.2,0,0.4,0.1,0.6c0,0.5,0.1,1,0.1,1.4s0,1.1,0,1.6c-0.1,0.4,0,0.7,0.1,1.1c0,0,0,0.1,0,0.1
	c0,0.3,0,0.6,0,1c0,0.9,0,1.8,0,2.7c0,0.6,0,1.1,0,1.7c0,0.3,0,0.7,0,1c0,1.2,0,2.3,0,3.5c0,0.2,0,0.5-0.1,0.7
	c0,0.1-0.1,0.2-0.1,0.3s-0.1,0.2-0.3,0.1l-0.1-0.1c-0.3-0.2-0.6-0.4-0.9-0.5l-0.5-0.2c-0.2-0.1-0.4-0.1-0.6-0.2l-0.6-0.1l-0.3-0.1
	c-0.5-0.1-1.1-0.1-1.6,0C65.5,26.5,65.3,26.5,65.1,26.6 M66.6,30c0.4-0.1,0.7-0.1,1.1,0l0.3,0c0.1,0,0.2,0,0.3,0.1l1.2,0.5
	c0.2,0.1,0.3,0.2,0.2,0.4c0,0,0,0.1,0,0.1v3.1c0,0.2,0,0.4,0,0.6c0,0.4,0,0.8,0,1.2c0,0.1,0,0.2,0.1,0.3c-0.2,0.2-0.5,0.3-0.7,0.4
	l-0.3,0.1h-0.1C68.4,37,68,37,67.7,37c-0.2,0-0.4,0-0.7,0.1c-0.3,0-0.6,0-0.9,0L65.6,37c-0.2,0-0.4-0.1-0.5-0.2
	c-0.3-0.2-0.6-0.4-0.8-0.6c-0.1-0.1-0.2-0.2-0.3-0.4c0-0.1-0.1-0.1-0.1-0.2c-0.1-0.1-0.1-0.2-0.2-0.3c-0.2-0.4-0.3-0.9-0.2-1.4
	c0-0.1,0-0.2,0-0.3c0-0.2,0-0.3,0.1-0.5c0.1-0.5,0.4-1,0.6-1.4c0.4-0.8,1.1-1.3,1.9-1.6C66.1,30.1,66.3,30.1,66.6,30"/>
<path class="st0" d="M52.3,12.6l0.2,1.9c0.1,0.6,0.1,1.1,0,1.7c0,0.1,0,0.2,0,0.3c0,0.6,0.1,1.2,0.1,1.9l0.1,1.4l0,0l-0.1,1.9
	c0,0.4,0,0.7,0,1.1c0,0.5,0,0.9,0,1.4c0,1,0,2,0,3c0,0.1,0,0.2,0,0.3c-0.1,0.4-0.1,0.7-0.2,1.1c0,0.1,0,0.2,0,0.3c0.2,0,0.5,0,0.8,0
	c0.3,0,0.6,0,0.8,0h0.2l1.6,0c0.3,0,0.5,0,0.8,0.2c0,0,0.1,0,0.2,0c0,0,0,0,0,0c-0.1-0.2-0.1-0.5-0.2-0.7c-0.1-0.1-0.1-0.3-0.2-0.4
	L55.9,26c-0.1-0.2-0.1-0.4,0-0.6c0-0.1,0-0.1,0-0.2c-0.1-0.3-0.1-0.5-0.1-0.8c0-0.1,0-0.2,0-0.3c0-0.4,0-0.9-0.1-1.3
	c0-0.2,0-0.4,0.1-0.6c0.1,0,0.3,0.1,0.4,0.1c0.1,0.1,0.3,0.2,0.4,0.2c0.1,0,0.1,0,0.2,0.1c0.2,0.1,0.4,0.2,0.5,0.2
	c0.2,0,0.4,0.1,0.6,0.2c0.4,0.2,0.8,0.3,1.2,0.3h0.8c0.3,0,0.6,0,0.8-0.1l0.3-0.1c0.4-0.1,0.7-0.2,1-0.4c0.1-0.1,0.2-0.1,0.3-0.1
	c0.2-0.1,0.4-0.2,0.6-0.3c0.2-0.2,0.5-0.4,0.7-0.5c0.2-0.1,0.3-0.2,0.5-0.4c0.2-0.2,0.3-0.4,0.5-0.6c0.1-0.1,0.2-0.3,0.3-0.4
	s0.2-0.2,0.3-0.3c0.3-0.3,0.5-0.7,0.6-1.2c0-0.1,0-0.1,0-0.2c0.1-0.2,0.1-0.4,0.1-0.6c0-0.1,0-0.1,0-0.2c0-0.1,0.1-0.3,0.1-0.4
	c0.1-0.4,0.2-0.9,0.2-1.4c0-0.3,0-0.6,0-0.9c0-0.3,0-0.5-0.1-0.8c-0.1-0.4-0.2-0.7-0.2-1.1c-0.1-0.5-0.2-0.9-0.4-1.3
	c-0.2-0.3-0.3-0.6-0.6-0.8l-0.3-0.3c-0.2-0.2-0.4-0.4-0.6-0.6c0,0-0.1-0.1-0.1-0.1L63.8,10l-0.2-0.2c-0.2-0.2-0.4-0.4-0.7-0.5
	c-0.4-0.2-0.8-0.3-1.2-0.4c-0.3-0.1-0.7-0.2-1-0.2c-0.4-0.1-0.9-0.1-1.3,0c-0.1,0-0.2,0-0.3,0c-0.1,0-0.3,0-0.4,0l-1.3,0.2
	c-0.5,0.1-1,0.3-1.5,0.5c-0.1,0.1-0.2,0.1-0.4,0.1c-0.1,0-0.2,0.1-0.3,0.1l-0.1,0c-0.1,0.1-0.2,0-0.2-0.1c0,0,0,0,0,0
	c0-0.1-0.1-0.2-0.1-0.3c0-0.1,0-0.2,0-0.2c0-0.1,0-0.2,0-0.3c-0.3-0.1-0.6-0.1-0.9-0.1c-0.1,0-0.2,0-0.3,0c-0.1,0-0.2,0-0.3,0H52
	h-0.8h-0.6c-0.1,0-0.1,0-0.2,0.1c0,0,0,0,0,0l0.3,0.2c0.2,0.2,0.4,0.4,0.5,0.6c0.3,0.5,0.6,1.1,0.8,1.7
	C52.1,11.8,52.3,12.2,52.3,12.6 M56.6,17c0-0.6,0-1.3,0.1-1.9c0-0.5,0-1,0-1.6v-0.3l0.2-0.1l0.8-0.4c0.5-0.3,1.1-0.4,1.7-0.4
	c0.2,0,0.4,0,0.7,0c0.3,0,0.7,0.2,0.9,0.4l0.7,0.5c0.1,0,0.1,0.1,0.2,0.2c0.4,0.3,0.6,0.8,0.7,1.3c0.1,0.3,0.1,0.6,0.2,0.9
	c0.1,0.3,0.1,0.5,0,0.8c-0.1,0.3-0.2,0.7-0.3,1c-0.1,0.1-0.1,0.3-0.1,0.4c-0.1,0.3-0.2,0.5-0.5,0.6c-0.3,0.2-0.7,0.5-1,0.7
	c-0.1,0.1-0.2,0.1-0.3,0.1c-0.3,0.1-0.7,0.2-1,0.3c-0.1,0-0.3,0-0.4,0c-0.6,0-1.3-0.1-1.9-0.4c-0.2-0.1-0.4-0.2-0.5-0.3
	c0,0,0-0.1,0-0.1C56.6,18.2,56.6,17.6,56.6,17L56.6,17"/>
<path class="st0" d="M49.8,21.4c0-0.5-0.1-0.9-0.2-1.4c0-0.3-0.2-0.7-0.4-0.9c0,0-0.1,0-0.1-0.1c-0.1-0.2-0.2-0.4-0.3-0.6
	c0-0.1-0.1-0.1-0.1-0.1l-0.6-0.7c-0.2-0.2-0.4-0.5-0.7-0.6L47,16.6c-0.5-0.5-1-0.9-1.7-1.2c-0.2-0.1-0.3-0.1-0.5-0.2
	c-0.2,0-0.4-0.1-0.6-0.1c-0.2,0-0.4,0-0.6,0l-0.8,0.1h-0.7c-0.2,0-0.3,0-0.5,0.1c-0.4,0-0.7,0.1-1,0.2c-0.2,0.1-0.4,0.1-0.5,0.1
	c-0.4,0.1-0.9,0.3-1.2,0.6c-0.5,0.3-0.9,0.7-1.3,1.2c-0.4,0.4-0.7,0.9-1.1,1.4c-0.1,0.1-0.1,0.2-0.1,0.3c0,0.3-0.1,0.5-0.1,0.8
	c-0.1,0.4-0.1,0.8-0.1,1.1v0.1c0,0,0,0.1,0,0.1c0,0.4,0,0.9,0.1,1.3c0,0,0,0,0,0c0.1,0.3,0.2,0.5,0.2,0.8c0,0.1,0.1,0.2,0.1,0.3
	c0.1,0.3,0.2,0.5,0.3,0.8c0.1,0.3,0.2,0.5,0.3,0.8c0.1,0.1,0.1,0.2,0.2,0.3c0.1,0.2,0.2,0.4,0.3,0.6c0.2,0.4,0.5,0.8,0.9,1l1.3,0.8
	c0.1,0.1,0.2,0.1,0.3,0.2c0.5,0.2,1,0.3,1.5,0.5c0.2,0.1,0.4,0.1,0.5,0.1c0.6,0,1.2,0,1.8-0.1c0.6-0.1,1.1-0.3,1.7-0.6l0.2-0.1
	c0.4-0.2,0.8-0.5,1.1-0.8c0.1-0.1,0.2-0.1,0.2-0.2c0.2-0.1,0.3-0.2,0.4-0.4c0.1-0.2,0.2-0.4,0.4-0.5c0.2-0.2,0.3-0.4,0.5-0.6
	c0.1-0.2,0.3-0.4,0.5-0.6l0.4-0.5c0.1-0.2,0.2-0.4,0.3-0.6c0.1-0.5,0.2-1,0.2-1.5c0-0.1,0-0.2,0-0.4C49.8,21.7,49.8,21.5,49.8,21.4
	 M45.7,22.8c-0.1,0.3-0.2,0.6-0.4,0.8c-0.1,0.1-0.1,0.2-0.2,0.3c0,0.1-0.1,0.2-0.2,0.3c-0.4,0.3-0.8,0.6-1.2,0.7
	c-0.1,0-0.2,0.1-0.2,0.1C43.2,25,43,25,42.7,25h-0.2c-0.6,0-1.1-0.3-1.6-0.7c-0.1-0.1-0.2-0.2-0.3-0.3c-0.2-0.2-0.3-0.4-0.4-0.7
	c-0.1-0.2-0.2-0.5-0.2-0.7c0,0,0-0.1,0-0.1c-0.1-0.2-0.2-0.3-0.1-0.5v-0.2c0-0.2,0-0.4,0-0.6c0.1-0.3,0.3-0.6,0.5-0.8l0.3-0.3
	c0.4-0.3,0.8-0.6,1.3-0.8c0.2-0.1,0.3-0.1,0.5-0.1c0.4-0.1,0.8,0,1.2,0.1c0.3,0.1,0.5,0.2,0.8,0.2c0.4,0.1,0.8,0.4,1,0.8
	c0.2,0.4,0.4,0.8,0.5,1.2c0,0,0,0.1,0,0.1C45.9,22,45.8,22.4,45.7,22.8"/>
<path class="st0" d="M106.5,17.9c-0.2-0.1-0.4-0.3-0.6-0.5l-0.3-0.3l-0.2-0.1l-0.5-0.4c-0.4-0.3-0.8-0.6-1.3-0.8
	c-0.3-0.1-0.5-0.2-0.8-0.2l-1.2-0.4c-0.2-0.1-0.5-0.1-0.7-0.1h-0.2c-0.2-0.1-0.4-0.1-0.7,0c-0.2,0.1-0.5,0.1-0.7,0.1h-0.1
	c-0.4,0.1-0.8,0.2-1.1,0.4L98,15.5c-0.1,0-0.2,0-0.2-0.1c0,0,0-0.1,0-0.1l-0.1-1v-0.2c-0.3-0.1-0.6-0.1-0.9-0.1l-1.1-0.1
	c-0.2,0-0.3,0-0.5-0.1c-0.3,0-0.7-0.1-1-0.1c-0.1,0-0.1,0-0.2,0.1l0.1,0.2c0.1,0.2,0.2,0.4,0.2,0.6s0.1,0.3,0.1,0.4l0.1,0.4
	c0,0.1,0,0.2,0.1,0.3c0.1,0.4,0.2,0.9,0.2,1.3s0.1,0.9,0.2,1.3s0,0.6,0.1,0.9l0.1,1.4v0.2c-0.1,0.5-0.1,0.9,0,1.4c0,0,0,0.1,0,0.1
	c0,0.2,0,0.5,0,0.8s0,0.6,0,0.9c0,0.1,0,0.2,0,0.4c0,0.9,0.1,1.8,0.1,2.7c0,0.6,0,1.1,0,1.7c0,0.2,0,0.2,0.2,0.3c0.1,0,0.1,0,0.2,0
	c0.2,0,0.4,0,0.6,0h0.8h0.7l1.1,0h0.1c0,0,0-0.1,0-0.1c-0.1-0.2-0.2-0.4-0.3-0.5c-0.1-0.2-0.2-0.4-0.3-0.6c0-0.1-0.1-0.2-0.1-0.3
	c-0.1-0.4-0.2-0.9-0.3-1.3v-0.1c0-0.3,0-0.5,0-0.8C98,24.7,98,24.1,98,23.6c0-0.3,0-0.6,0-0.9c0-0.8,0-1.6,0-2.3
	c0-0.3,0.1-0.5,0.4-0.7l1.1-0.7l0.1,0c0.4-0.1,0.8-0.3,1.2-0.5c0.2-0.1,0.4-0.1,0.6-0.1c0.4,0,0.8,0.1,1.2,0.2l0,0
	c0.3,0.1,0.6,0.2,0.8,0.4c0.2,0.1,0.4,0.3,0.5,0.5c0,0.1,0.1,0.2,0.1,0.3c0.1,0.2,0.2,0.4,0.2,0.6c0,0.3,0.1,0.5,0.2,0.7
	c0.1,0.2,0.2,0.4,0.2,0.7c0,0.1,0.1,0.3,0.1,0.4c0.1,0.2,0.2,0.4,0.4,0.4c0.5,0.1,1.1,0,1.5-0.4c0.2-0.1,0.3-0.3,0.5-0.4
	c0.2-0.1,0.3-0.3,0.3-0.5c0-0.9-0.1-1.8-0.4-2.7C106.9,18.2,106.7,18,106.5,17.9"/>
<path class="st0" d="M75.9,12.3h0.2h1.4c0.1,0,0.2,0,0.2-0.1c0.1-0.1,0.2-0.1,0.2-0.2c0.1,0,0.2-0.1,0.3-0.2
	c0.1-0.1,0.1-0.2,0.2-0.3c0.4-0.7,0.9-1.4,1.5-1.9c0.3-0.3,0.6-0.5,1-0.8l0,0c0.2-0.1,0.2-0.3,0.3-0.5c0-0.1,0-0.2,0-0.2
	c0,0,0,0-0.1,0C81,8.1,80.8,8,80.6,8c-0.2,0-0.4,0-0.6,0c-0.7,0-1.3,0-2,0h-2.1c-0.1,0-0.2,0.1-0.2,0.2c0,0,0,0,0,0
	c0,0.1,0,0.1,0,0.2c0,0,0,0.1,0,0.1c0,0.2,0,0.3,0,0.5c0.1,0.3,0.1,0.6,0,0.9c0,0.2-0.1,0.4-0.1,0.5c0,0.5-0.1,1-0.1,1.5
	c0,0,0,0.1,0,0.1C75.5,12.1,75.7,12.3,75.9,12.3"/>
<path class="st0" d="M50.4,11.5l-0.2-0.3c-0.4-0.6-0.9-1.1-1.5-1.5c-0.2-0.2-0.4-0.3-0.6-0.6c-0.2-0.2-0.4-0.4-0.7-0.6
	c-0.3-0.2-0.6-0.3-0.9-0.3c-0.1,0-0.2,0-0.4,0c-0.1,0-0.2,0-0.3,0c-0.2,0-0.4,0-0.6,0h-3.4l-3.1-0.1c-0.2,0-0.4,0-0.6,0h-0.3h-0.5
	h-3.9l-1.1,0.1c-0.1,0-0.2,0-0.2,0.1c0,0,0,0.1,0,0.2c0,0,0.1,0,0.1,0.1l0.4,0.1c0.1,0,0.2,0.1,0.3,0.2C33,9,33.1,9.1,33.3,9.2
	c0.6,0.4,1.1,0.9,1.6,1.4c0.3,0.3,0.4,0.6,0.6,0.9c0,0.1,0.1,0.2,0.3,0.2l0.2,0.1c0.1,0.1,0.3,0.1,0.5,0.1h1c1,0,2,0,2.9,0
	s2.1,0.1,3.2,0.1c1.3,0,2.5,0,3.8,0.1h0.4h1.5c0.1,0,0.2,0,0.2,0c0.2,0.1,0.5,0.1,0.8,0c0.2,0,0.2-0.1,0.1-0.3
	c0-0.1-0.1-0.1-0.1-0.2"/>
<path class="st0" d="M110.1,39.4c0.2-0.1,0.4-0.3,0.5-0.4c0,0,0-0.1,0.1-0.1c0.1-0.1,0.2-0.3,0.2-0.5c0-0.1,0-0.2,0-0.3
	c-0.1-0.4-0.2-0.8-0.4-1.2c-0.1-0.2-0.2-0.5-0.2-0.7l-0.4-1.1c-0.1-0.2-0.2-0.4-0.2-0.6c-0.1-0.4-0.3-0.7-0.4-1.1
	c-0.3-0.6-0.5-1.2-0.6-1.8l-0.1-0.2c-0.3-0.8-0.7-1.5-0.9-2.4c-0.1-0.4-0.3-0.8-0.5-1.2l-0.2-0.5c0-0.1-0.1-0.2-0.1-0.3
	c-0.1-0.2-0.2-0.4-0.3-0.7c-0.1-0.2-0.1-0.3-0.2-0.5c0-0.1-0.1-0.1-0.1-0.1c0,0,0,0,0,0c-0.1,0-0.3,0-0.4,0c-0.1,0-0.3,0-0.4,0
	c0,0.1,0,0.1,0,0.2c0.1,0.6,0.2,1.3,0.2,1.9c0.1,0.6,0.2,1.2,0.2,1.7c0,0.6,0.1,1.1,0.2,1.6l0.2,1.4c0,0.1,0,0.3,0,0.4
	c0.2,0.8,0.3,1.7,0.3,2.6v0.5c0.1,0.6,0.1,1.2,0.2,1.8c0,0.5,0.1,1.1,0.3,1.6c0.4,0.3,1,0.4,1.5,0.3l0.5-0.1
	C109.3,39.7,109.7,39.6,110.1,39.4"/>
<path class="st0" d="M29.8,40.7c-0.1-0.1-0.2-0.2-0.4-0.1c-0.2,0-0.4,0.1-0.6,0.1l-0.9,0.1c-0.7,0.1-1.5,0.1-2.2,0.1
	c-0.3,0-0.7,0-1,0c-0.2,0-0.5,0-0.7,0h-0.3l-2,0.1l-1,0.1c-0.2,0-0.3,0-0.5,0c-0.1,0-0.2,0-0.3,0h-0.4c-0.1,0-0.1,0-0.2,0
	c-0.1,0-0.1,0-0.1,0.1v0.2c0,0.6-0.1,1.3-0.1,1.9S19,44.6,19,45.3c0,0.1,0,0.2,0,0.2c0,0.3,0,0.7,0,1c0,0.1,0,0.1,0,0.2
	s0.2-0.1,0.2-0.2c0.1-0.1,0.2-0.2,0.3-0.3c0.4-0.3,0.7-0.5,1-0.8c0.4-0.3,0.8-0.5,1.3-0.7c0.4-0.1,0.9-0.3,1.3-0.4
	c0.6-0.1,1.2-0.3,1.7-0.5H25c0.6-0.1,1.2-0.3,1.8-0.5c0.6-0.2,1.2-0.5,1.8-0.8c0.4-0.2,0.8-0.4,1.2-0.7l0.6-0.7c0,0,0-0.1,0.1-0.1
	c-0.1-0.1-0.2-0.2-0.4-0.2C30,41,29.8,40.9,29.8,40.7"/>
<path class="st0" d="M118.1,41.5l-1.4-0.1h-1h-1.3c-0.2,0-0.4,0-0.6,0c-0.7,0-1.3,0-2,0c-0.1,0-0.3,0-0.4,0.1
	c-0.3,0.1-0.5,0.3-0.8,0.4c-0.4,0.2-0.8,0.4-1.2,0.5l-0.4,0.1c-0.1,0-0.2,0.1-0.3,0.1l0.1,0.1c0.4,0.3,0.8,0.5,1.3,0.6l0.6,0.2
	l0.9,0.2c0.2,0,0.3,0.1,0.5,0.1c0.9,0.3,1.8,0.5,2.7,0.8l0.3,0.1c0.2,0.1,0.4,0.2,0.6,0.3l0.8,0.4c0.4,0.2,0.7,0.4,1,0.7
	c0.1,0.1,0.2,0.1,0.2,0.2c0.1,0.1,0.2,0.1,0.3,0.1l0.3-0.1c0.1,0,0.1-0.1,0.1-0.1c0,0,0-0.1,0-0.1c0-0.3,0-0.6,0-0.9
	c0-0.1,0-0.2,0-0.2c0-0.1,0-0.2,0-0.3c0.1-0.8,0.1-1.6,0.1-2.3c0-0.2,0-0.3,0-0.5c0-0.1,0-0.1,0-0.2c-0.1-0.1-0.3-0.1-0.4-0.1"/>
<path class="st0" d="M35,28.9l0.2-0.3c-0.2-0.3-0.3-0.6-0.5-0.9l-0.2,0.1L34.1,28c-1.3,0.6-2.7,1.1-4,1.8c-0.6,0.3-1.2,0.5-1.8,0.8
	c-0.1,0-0.2,0-0.3,0c-0.1,0-0.2,0-0.3,0.1c0.1,0.2,0.2,0.5,0.2,0.7c0,0,0,0.1,0,0.1c0.2,0.4,0.4,0.7,0.7,1.1l0,0
	c0.1,0.2,0.2,0.3,0.3,0.4c0.2,0.3,0.4,0.5,0.6,0.7c0.2,0.2,0.3,0.3,0.5,0.4c0,0,0.1,0,0.1,0c0.4-0.3,0.8-0.7,1.1-1.1
	c0.1-0.1,0.1-0.2,0.2-0.2c0.2-0.1,0.3-0.3,0.5-0.5l0.6-0.7l0-0.1c0.2-0.2,0.3-0.4,0.5-0.6L35,28.9"/>
<path class="st0" d="M38,30.9c-0.1-0.1-0.2-0.1-0.3-0.1l-0.2,0.2c-0.5,0.6-1.1,1.2-1.6,1.8l-0.2,0.2c-0.3,0.3-0.5,0.5-0.8,0.8
	c-0.3,0.3-0.6,0.6-0.9,0.9s-0.6,0.6-0.9,0.9c-0.1,0.1-0.1,0.2-0.2,0.3c-0.1,0.1-0.2,0.1-0.3,0.2c0.1,0.1,0.2,0.2,0.3,0.3
	c0.6,0.4,1.2,0.8,1.8,1.1c0.5,0.2,1,0.4,1.5,0.6c0.1,0,0.2,0,0.3,0l0.1-0.2l0.3-1.1c0-0.1,0.1-0.2,0.1-0.3c0.1-0.3,0.1-0.6,0.3-0.9
	c0.1-0.4,0.2-0.8,0.4-1.1c0-0.1,0-0.2,0.1-0.3c0.2-0.7,0.5-1.4,0.7-2.1c0-0.1,0.1-0.3,0.2-0.4c0-0.1,0-0.1,0-0.2
	C38.5,31.3,38.2,31.1,38,30.9"/>
<path class="st0" d="M103.1,24.9c-0.1,0-0.2-0.1-0.3-0.2c-0.3-0.2-0.7-0.5-1-0.8h-0.1c0,0,0,0.1-0.1,0.1c-0.2,0.3-0.3,0.6-0.4,0.9
	c-0.2,0.5-0.5,1-0.8,1.5c-0.1,0.2-0.1,0.5,0,0.6c0.1,0.2,0.3,0.4,0.4,0.6l0.8,1.1l0.2,0.3c0,0.1,0,0.2,0,0.2
	c-0.1,0.1-0.1,0.2-0.1,0.4c-0.1,0.3-0.1,0.7-0.2,1c-0.2,0.6-0.4,1.3-0.6,2s-0.3,1.3-0.5,1.9c-0.1,0.5-0.3,1-0.4,1.4
	c0,0.1-0.1,0.2,0,0.2c0.2-0.1,0.3-0.1,0.5-0.2c0.3-0.2,0.7-0.4,1-0.5c0.1,0,0.2-0.1,0.2-0.2c0-0.2,0.1-0.5,0.1-0.7
	c0.1-0.8,0.2-1.5,0.3-2.2s0.3-1.6,0.4-2.4c0.1-0.4,0.1-0.9,0.2-1.3c0.2-1,0.3-2,0.4-2.9c0-0.2,0-0.4,0.1-0.6
	C103.3,25,103.2,24.9,103.1,24.9"/>
<path class="st0" d="M43.6,36.8c0-0.2,0-0.4-0.1-0.7c-0.1-0.2-0.1-0.5-0.1-0.7c0,0,0-0.1,0-0.1c-0.1-0.5-0.2-1.1-0.3-1.6
	c0,0,0-0.1,0-0.1C43,33.2,43,32.8,43,32.3c-0.1,0-0.3-0.1-0.4-0.1h-0.5c-0.2,0-0.3,0-0.5,0l-0.1,0.6c-0.1,0.7-0.2,1.4-0.4,2.1
	s-0.2,1.2-0.3,1.8c0,0.2-0.1,0.4-0.1,0.5c-0.1,0.2-0.2,0.5-0.2,0.7c0,0.2,0,0.2,0.2,0.3c0.2,0.1,0.5,0.1,0.8,0.1
	c0.5,0,1-0.1,1.5-0.2c0.3,0,0.5-0.1,0.8-0.2c0-0.2,0-0.4,0-0.5C43.7,37.2,43.7,37,43.6,36.8"/>
<path class="st0" d="M26.2,26.3c0,0.2,0,0.4,0.1,0.7c0,0.2,0.1,0.4,0.2,0.5c0.1,0,0.3,0,0.5-0.1s0.5-0.1,0.7-0.2l1.3-0.5
	c0.3-0.1,0.5-0.2,0.8-0.3s0.7-0.2,1-0.4c0.3-0.2,0.7-0.3,1.1-0.4c0,0,0,0,0.1,0c0.4-0.2,0.7-0.3,1.1-0.4c0.2-0.1,0.4-0.1,0.7-0.2
	c0-0.2,0-0.4-0.1-0.5s-0.1-0.6-0.2-0.9c0-0.1,0-0.2-0.1-0.2L33,23.5l-0.7,0.4c-0.2,0.1-0.3,0.2-0.5,0.3c-0.3,0.1-0.6,0.3-1,0.4
	L29.7,25c-0.4,0.1-0.9,0.2-1.4,0.2h-1.2c-0.2,0-0.4,0-0.5,0c-0.1,0-0.2,0-0.3,0c-0.2,0.1-0.2,0.3-0.2,0.5
	C26.1,25.9,26.2,26.2,26.2,26.3"/>
<path class="st0" d="M112,26.8l-0.6-0.6c-0.1-0.1-0.3-0.3-0.4-0.4s-0.4-0.4-0.7-0.6s-0.4-0.4-0.7-0.6c-0.1-0.1-0.2-0.2-0.2-0.3
	c0,0-0.1-0.1-0.1-0.1l-0.2,0.3l-0.3,0.3c-0.1,0.1-0.2,0.2-0.3,0.3c0.1,0.2,0.2,0.3,0.4,0.5c0.3,0.4,0.6,0.7,0.8,1.1
	c0.4,0.7,1,1.4,1.4,2.1c0.1,0.1,0.1,0.2,0.2,0.3c0.2,0.2,0.4,0.5,0.5,0.7l0.2,0.3c0,0.1,0.1,0.1,0.2,0.1c0-0.2,0-0.4,0-0.5
	c0-0.7,0-1.3,0.1-2C112.3,27.3,112.2,27,112,26.8L112,26.8"/>
<path class="st0" d="M108.6,16.5c0.1-0.1,0.2-0.2,0.4-0.4l1.6-1.5c0.3-0.2,0.5-0.5,0.7-0.8c0-0.1,0.1-0.1,0.1-0.2h-0.1l-2.4-0.1
	c-0.2,0-0.3,0.1-0.4,0.2c0,0-0.1,0.1-0.1,0.1c-0.4,0.5-0.7,1.1-1.1,1.6c0,0.1-0.1,0.1-0.1,0.2c0.5,0.3,0.9,0.6,1.3,1L108.6,16.5"/>
<path class="st0" d="M47.3,31.7c-0.1-0.1-0.2-0.3-0.3-0.4c-0.2,0-0.3,0.1-0.4,0.2c-0.2,0.1-0.3,0.1-0.4,0.2c0,0,0,0.1,0,0.1
	c0.3,0.8,0.5,1.6,0.8,2.3c0.1,0.2,0.1,0.5,0.2,0.7c0,0.2,0.1,0.4,0.2,0.6c0.5-0.3,1-0.7,1.4-1.2c0,0,0.1-0.1,0.1-0.1
	c0-0.1,0.1-0.2,0.1-0.2s-0.2-0.3-0.3-0.5L47.3,31.7"/>
<path class="st0" d="M110.6,17.5c-0.2,0.1-0.3,0.2-0.5,0.4c-0.2,0.2-0.3,0.3-0.5,0.5c0,0,0,0,0,0.1c0.1,0.3,0.3,0.5,0.4,0.8h0.1
	l1.9-0.5c0.1,0,0.2-0.1,0.2-0.1c0,0,0-0.1,0-0.1c0-0.6,0-1.3,0.1-1.9c0-0.2,0-0.3,0-0.5l-0.2,0.1l-0.9,0.8
	C111.1,17.1,110.9,17.3,110.6,17.5"/>
<path class="st0" d="M56.7,37.8c-0.3-0.2-0.7-0.5-1-0.7c-0.3-0.3-0.6-0.6-0.9-0.9c-0.2-0.3-0.4-0.6-0.5-0.9c0,0-0.1-0.1-0.1-0.1
	c0,0.2,0.1,0.5,0.2,0.7c0.2,0.6,0.4,1.1,0.7,1.6c0.1,0.2,0.3,0.5,0.4,0.6l0.4,0.4c0.2,0.2,0.4,0.3,0.6,0.4c0.1,0,0.1,0.1,0.2,0.1
	c0.3,0,0.6-0.1,0.5-0.5c0-0.1,0-0.2-0.1-0.3C56.9,38.1,56.8,38,56.7,37.8"/>
<path class="st0" d="M111.8,21.5l-1.2-0.1c-0.1,0-0.2,0-0.3,0l-0.1,0.3c-0.1,0.2,0,0.3,0.2,0.4l1.1,0.6l0.6,0.4
	c0.1,0.1,0.3,0.2,0.5,0.2c0-0.1,0-0.2,0-0.3c-0.1-0.4-0.1-0.8-0.1-1.2c0,0,0-0.1,0-0.1c-0.1,0-0.2,0-0.3-0.1L111.8,21.5"/>
<path class="st0" d="M94.3,33.5c-0.1-0.5-0.2-0.9-0.2-1.4c0-0.2,0-0.4,0-0.5c0-0.3,0-0.6-0.2-0.9c0-0.1-0.1-0.2-0.1-0.2
	c-0.1-0.1-0.2-0.1-0.3-0.1c0,0-0.1,0-0.1,0.1c0,0.1-0.1,0.2-0.1,0.3c0,0.3,0,0.6,0,0.9c0,0.6,0.2,1.3,0.5,1.8
	c0.2,0.4,0.5,0.7,0.8,0.9c0,0-0.1-0.1-0.1-0.1C94.5,34,94.4,33.8,94.3,33.5"/>
<path class="st0" d="M55,35c0.2,0.4,0.5,0.6,0.9,0.7c0.2,0,0.3,0,0.5,0c0.2,0,0.4-0.1,0.5-0.3c0.1-0.2,0.2-0.3,0.3-0.5
	c0.1-0.2,0-0.3-0.2-0.4c-0.1,0-0.1,0-0.2,0c-0.1,0-0.2,0.1-0.2,0.1l-0.2,0.1c-0.4,0.1-0.8,0.1-1.2,0l-0.3-0.2c0,0.2,0,0.2,0,0.2
	L55,35"/>
<path class="st0" d="M95.2,32.9c0-0.3,0-0.7,0.1-1c0.1-0.1,0.1-0.3,0.2-0.4c0.1-0.2,0-0.4-0.2-0.5c-0.1-0.1-0.2-0.1-0.3,0
	c0,0,0,0,0,0.1c-0.1,0.1-0.1,0.2-0.2,0.3c-0.1,0.4-0.1,0.8,0,1.1c0,0.1,0.1,0.3,0.1,0.4c0.2,0.3,0.4,0.5,0.6,0.7c0-0.1,0-0.1,0-0.2
	C95.4,33.3,95.3,33.1,95.2,32.9"/>
<path class="st0" d="M138.4,11.4v-0.1c0-0.6-0.1-1.1-0.2-1.6c-0.1-0.3-0.1-0.7-0.2-1L137.6,8c-0.1-0.2-0.1-0.4-0.2-0.6
	c-0.3-0.7-0.6-1.5-1-2.1c-0.1-0.1-0.2-0.2-0.2-0.3l-0.6-0.8l-0.1-0.1l-0.7-0.8c-0.2-0.2-0.4-0.4-0.6-0.5l-0.8-0.7l-0.3-0.2l-0.1-0.1
	c-0.1-0.1-0.2-0.1-0.3-0.2c-0.1-0.1-0.2-0.1-0.4-0.2c-0.1,0-0.2-0.1-0.3-0.2L131.7,1c-0.1-0.1-0.3-0.2-0.4-0.3l-0.2-0.1
	c-0.3-0.1-0.6-0.2-0.8-0.3c-0.4-0.2-0.9-0.3-1.3-0.3h-1.8h-0.7H126c-0.2,0-0.3,0-0.5,0c-0.8,0.1-1.5,0.1-2.3,0c-0.5,0-0.9,0-1.4,0
	c-0.6,0-1.1,0-1.7,0h-1.4c-0.5,0-1,0-1.5,0h-1h-0.9h-1.6c-0.4,0-0.7,0-1.1,0h-0.1c-0.2,0-0.4,0-0.6,0.1c-0.2,0-0.4,0-0.6,0
	c-0.3,0-0.7,0-1,0h-0.1L109,0.3h-0.8c-0.5,0-1,0-1.5,0c-0.4,0-0.8,0-1.2,0c-0.3,0-0.6,0-0.8,0h-0.9h-0.5c-0.1,0-0.3,0-0.4,0
	c-0.3,0-0.5,0-0.8,0c-0.5,0-1,0-1.5,0c-0.1,0-0.2,0-0.3,0c-0.3,0.1-0.6,0.1-0.9,0.1H99h-2.9c-0.2,0-0.4,0-0.6,0c-0.1,0-0.2,0-0.3,0
	h-0.6c-0.4,0-0.7,0-1.1,0s-1,0-1.5,0h-1.5c-0.1,0-0.2,0-0.3,0c-0.4,0-0.9,0-1.3,0h-0.2h-0.8h-0.8l-1.4,0c-0.3,0-0.6,0-0.9,0H85
	c-0.4,0-0.9,0-1.4,0c-0.1,0-0.3,0-0.4,0h-0.5c-0.3,0-0.7,0.1-1,0.1h-0.8c-0.3,0-0.6,0-0.9,0h-0.3H79c-0.4,0-0.8,0-1.2,0
	s-0.6,0-0.9,0h-0.5c-0.1,0-0.2,0-0.3,0c-0.1,0-0.1,0-0.2,0c-0.3,0.1-0.7,0.1-1,0h-0.3h-1c-0.2,0.1-0.5,0.1-0.8,0c-0.1,0-0.3,0-0.4,0
	c-0.2,0-0.4,0-0.6,0h-0.6c-0.2,0-0.4,0-0.7,0c-0.2,0-0.4,0-0.5,0c-0.2,0-0.4,0-0.7,0l0,0c-0.2,0-0.3,0-0.5,0l-0.3,0l0,0h-0.3
	c-0.2,0-0.4,0-0.7,0c-0.3,0-0.7,0-1,0l0,0c-0.1,0-0.2,0-0.2,0h-0.1h-0.3h-0.1c-0.2,0-0.5,0-0.7,0h-0.1l-1.2-0.1
	c-0.3,0.1-0.7,0.1-1,0c-0.1,0-0.2,0-0.2,0c-0.1,0-0.2,0-0.3,0h-0.3c-0.5,0-1,0-1.5,0h-0.9h-0.4h-0.2h-0.8c-0.2,0-0.4,0-0.5,0
	c-0.2,0-0.3,0-0.5,0c-0.1,0-0.2,0-0.3,0h-0.2L56,0.4c-0.1,0-0.2,0-0.3,0c-0.3,0-0.7,0-1,0c-0.5,0-1,0-1.6,0H53h-0.7l-1.6,0.1h-0.4
	h-0.5h-0.6h-0.5c-0.1,0-0.2,0-0.3,0c-0.3,0-0.5,0-0.8,0L47,0.6h-0.3c-0.1,0-0.1,0-0.2,0c-0.3,0-0.6,0-0.9,0H45c-0.6,0-1.2,0-1.8,0.1
	c-0.1,0-0.2,0-0.3,0l0,0h-0.2h-0.4h-1.3h-0.8l-1.2,0c-0.3,0-0.5,0-0.8-0.1c-0.2,0-0.3,0-0.5,0H37h-0.7h-1.2h-0.5h-0.4h-0.5
	c-0.2,0-0.4,0-0.6,0c-0.5,0-1,0-1.4,0c-0.6,0-1.2,0-1.8,0h-3.3h-0.4L26,0.5h-0.3c-0.2,0-0.4,0-0.6,0c-0.6,0-1.1,0-1.7,0h-0.3h-0.6
	h-0.8h-1.2h-0.9h-1.1c-0.1,0-0.1,0-0.2,0c-0.4,0-0.9,0-1.3,0c-0.4,0-0.8,0-1.1,0s-0.6,0-0.8,0c-0.6,0-1.2,0-1.8,0
	c-0.4,0-0.8,0-1.3,0c-0.1,0-0.2,0-0.3,0h-0.3h-0.5H9.6H9.2c-0.3,0.1-0.7,0.2-1,0.3C7.9,1,7.6,1.1,7.4,1.1L7.2,1.2
	C7.1,1.3,7,1.4,6.9,1.5C6.6,1.7,6.4,1.8,6.1,2L5.7,2.2L5.6,2.3C5.5,2.4,5.4,2.4,5.3,2.5L5.2,2.6C5.1,2.7,4.9,2.8,4.8,2.9
	c-0.6,0.5-1.2,1-1.7,1.6C2.9,4.8,2.7,5,2.5,5.3L2.1,5.7C2.1,5.8,2,5.9,2,5.9C1.6,6.6,1.3,7.4,1,8.1C0.8,8.5,0.7,8.8,0.6,9.2v0.1
	C0.5,9.4,0.5,9.6,0.4,9.8c-0.2,0.9-0.3,1.7-0.4,2.6c0,0.3,0,0.6,0,0.9v0.2c0,0.1,0.1,0.3,0.1,0.4c0.1,0.6,0.2,1.2,0.4,1.8
	c0.1,0.1,0.1,0.2,0.2,0.3l0.1,0.2c0,0.2,0.1,0.3,0.2,0.5c0,0.1,0.1,0.1,0.1,0.2l0.1,0.4l0.4,1c0,0.1,0.1,0.2,0.1,0.2
	c0.1,0.1,0.2,0.3,0.3,0.4c0.1,0.2,0.2,0.4,0.4,0.6c0.3,0.5,0.6,0.9,1,1.3l0.4,0.5l0.1,0.1c0.6,0.5,1.3,1,2,1.3L6.6,23l0.7,0.3
	c0.3,0.1,0.6,0.2,0.9,0.2c0.2,0,0.4,0,0.6,0.1c0.3,0.1,0.7,0.1,1.1,0.1h0.4c0.1,0,0.2,0,0.2,0h0.7h0.3c0.1,0,0.3,0,0.4,0
	c0.1,0,0.2,0.1,0.4,0.1h0.3c0.2,0,0.3,0.1,0.5,0.2c0.2,0.1,0.3,0.3,0.4,0.5v0.1c0,0.2,0.1,0.5,0.1,0.7s0,0.5,0,0.8s0,0.5,0,0.8v0.3
	c0,0.2,0,0.3,0.1,0.5c0,0.1,0,0.1,0,0.2c0,0.6,0.1,1.3,0.1,2s0,1.3,0,2v2.8c0,0.1,0,0.3,0,0.4v0.4c0,0.4,0,0.8,0,1.3
	c0,0.1,0,0.1,0,0.2v0.5c0,0.4,0,0.8,0.1,1.2c0,0.3,0,0.7,0,1c0,0.2,0,0.5,0,0.7s0,0.1,0,0.2c-0.1,0.6-0.1,1.3-0.1,1.9
	c0,0.3,0,0.5,0,0.8v0.3c0,0.4,0,0.7,0,1.1s0,0.4,0,0.6v0.2v0.3c0,0.2,0,0.4,0,0.6v3.3c0,0.9,0,1.7,0,2.6c0,0.5,0,1,0,1.6h0.5h1.1
	l1,0.1c0.5,0,1,0.1,1.5,0.1h0.2h0.3h0.5c0.8,0,1.5,0.1,2.3,0.1l0.6,0h0.2c0,0,0-0.1,0-0.1c0,0,0-0.1,0-0.2c0-0.2,0.1-0.3,0.2-0.5
	c0.2-0.5,0.5-1,0.9-1.5c0.2-0.2,0.3-0.4,0.5-0.6c0.4-0.4,0.7-0.7,1.1-1c0.4-0.3,0.8-0.5,1.2-0.7c0.2-0.1,0.4-0.2,0.5-0.3l0,0
	c0.2-0.1,0.3-0.2,0.5-0.2l0.7-0.2l0.8-0.2c0.4-0.1,0.8-0.3,1.1-0.4c0.4-0.1,0.8-0.3,1.1-0.5l0.6-0.3c0.3-0.1,0.6-0.2,0.9-0.3
	c0.2-0.1,0.4-0.2,0.5-0.3c0.4-0.2,0.7-0.3,1-0.6l0.6-0.5l0.1-0.1l0.2-0.1l0.3-0.2l0.1-0.1l0.2-0.1c0.6-0.5,1.1-1,1.5-1.5l0.1-0.1
	c0.1-0.1,0.2-0.2,0.3-0.3c0.1-0.1,0.3-0.2,0.5-0.2l0,0c0.3,0,0.5,0.1,0.7,0.2h0.1c0.4,0.2,0.9,0.3,1.3,0.3l0.7,0.1l0.6,0.1
	c0.6,0.1,1.1,0.1,1.7,0l1.2-0.1c0.8-0.1,1.7-0.4,2.4-0.8c0.1-0.1,0.2-0.1,0.3-0.2h0.1l0.2-0.1l0.2-0.1c0.2-0.1,0.3-0.2,0.4-0.2
	l0.4-0.2l0.2,0.1h0.1c0,0,0,0,0.1,0c0.3,0.1,0.5,0.3,0.6,0.5l0.2,0.3c0.2,0.3,0.4,0.6,0.6,0.9c0.3,0.3,0.5,0.6,0.6,1
	c0,0.1,0.1,0.1,0.1,0.2l0.1,0.2c0.1,0.2,0.3,0.4,0.5,0.6l0.2,0.2l0.3,0.4l0.5,0.6l0.3,0.4c0.5,0.5,1,1.1,1.5,1.5
	c0.1,0.1,0.2,0.2,0.4,0.4l0.2,0.2l0.1,0.1c0.1,0.1,0.2,0.2,0.3,0.3c0.2,0.2,0.4,0.3,0.6,0.5c0.6,0.5,1.3,1,2,1.4
	c0.3,0.2,0.5,0.3,0.7,0.5c0.5,0.3,0.9,0.6,1.4,0.9c0.1,0.1,0.2,0.1,0.3,0.2c0,0,0.1,0,0.1,0.1l1.1,0.3L61,54
	c0.6,0.2,1.1,0.4,1.7,0.4h0.1c0.2,0,0.5,0.1,0.7,0.1l1.3,0.1l0,0c0.3,0,0.7,0.1,1,0h0.4h0.2h0.2l1.6-0.1l1.1-0.1h0.4
	c0.4,0,0.8-0.1,1.2-0.1h0.4h0.2c0.1,0,0.3,0,0.4-0.1c0.5-0.2,0.9-0.3,1.4-0.4h0.1c0.2,0,0.5-0.1,0.8-0.2l0.2-0.1h0.1l0.1-0.1
	l0.2-0.1h0.1l0.3-0.1h0.1l0.2-0.1c0.2-0.1,0.4-0.2,0.6-0.3c0.1-0.1,0.3-0.2,0.4-0.3c0.5-0.2,0.9-0.5,1.3-0.8
	c0.2-0.2,0.5-0.4,0.7-0.6l0.3-0.2l1-1l0.8-0.8l0.2-0.2l0.2-0.2l2.5-2.9c0.1-0.2,0.3-0.3,0.4-0.5L84,45l0.3-0.5
	c0.2-0.3,0.4-0.6,0.6-0.9c0.1-0.1,0.2-0.3,0.3-0.4c0.2-0.3,0.7-0.3,0.9-0.1c0,0,0,0,0.1,0.1l0.1,0.1l0,0c0.4,0.2,0.8,0.4,1.1,0.7
	c0.4,0.3,0.8,0.5,1.2,0.7c0.1,0.1,0.3,0.1,0.5,0.2c0.1,0,0.2,0.1,0.3,0.1c0.5,0.2,1,0.4,1.6,0.5l0,0l0.3,0.1
	c0.3,0.1,0.5,0.2,0.8,0.2c0.5,0.1,0.9,0.2,1.4,0.2c0.1,0,0.2,0,0.3,0c0.2,0,0.3,0,0.5,0h0.2l0.9-0.1h0.2h0.1h0.1l0.3-0.1h0.2
	c0.3,0,0.5-0.1,0.8-0.2c0.2-0.1,0.4-0.1,0.7-0.2c0.1,0,0.1,0,0.2,0c0.3-0.1,0.6-0.2,0.9-0.3h0.1H99l0,0l0.3-0.2
	c0.2-0.1,0.4-0.2,0.6-0.3c0.5-0.4,1.2-0.3,1.7,0.2l0.1,0.1l0,0c0.1,0.1,0.2,0.3,0.4,0.4c0.2,0.2,0.4,0.4,0.6,0.6
	c0.5,0.5,1.1,0.9,1.7,1.2l0.4,0.2c0.2,0.1,0.3,0.2,0.5,0.2c0.2,0.1,0.4,0.2,0.6,0.3c0.2,0.1,0.5,0.2,0.8,0.3h0.1l0.4,0.1l1,0.2h0.2
	l0.3,0.1l1.6,0.4h0.1c0.2,0.1,0.5,0.1,0.7,0.2c0.7,0.2,1.4,0.6,2.1,0.9c0.1,0.1,0.2,0.1,0.3,0.2h0.1c0,0,0.1,0,0.1,0.1l0.1,0.1
	c0.5,0.3,0.9,0.6,1.3,1l0.1,0.1c0.3,0.3,0.6,0.6,0.8,1c0.2,0.3,0.3,0.5,0.4,0.8c0.1,0.1,0.1,0.3,0.2,0.4l0,0h0.6c0.8,0,1.6,0,2.3,0
	s1.6,0,2.3,0h1v-0.3c0-0.2,0-0.4,0-0.6s0-0.3,0-0.5s0-0.3,0-0.5c0-0.3,0-0.8,0.1-1.2c0-0.7,0.1-1.3,0.1-1.9v-0.1c0-0.2,0-0.4,0-0.5
	c0.1-0.4,0.1-0.9,0.1-1.3c0-0.2,0-0.5,0-0.7v-0.2c0-0.1,0-0.2,0-0.2c0-0.3,0-0.5,0-0.8v-0.5c0-0.4,0-0.7,0-1.1l0,0
	c0-0.4,0-0.8,0-1.3c0-0.3,0-0.6,0.1-0.9c0-0.2,0.1-0.4,0.1-0.6c0-0.6,0.1-1.3,0.2-1.9c0-0.1,0-0.2,0-0.3c0-0.3,0-0.5,0-0.8v-0.1V37
	c0-0.4,0-0.8,0-1.2V35c0-0.5,0-1,0-1.5v-0.1c0-0.6,0-1.1,0-1.7c0-0.4,0-0.7,0-1V30c0-0.1,0-0.3,0-0.5c0-0.3,0-0.6,0-0.8
	c0,0,0-0.1,0-0.1v-0.2c0-0.1,0-0.2,0-0.3c0-0.3,0-0.6,0-0.8c0-0.2,0-0.4,0-0.6c0-0.1,0-0.1,0-0.2v-0.5c0-0.5,0-0.9,0-1.4
	c0-0.1,0-0.3,0.1-0.4c0-0.1,0-0.1,0-0.2c0.1-0.4,0.4-0.7,0.8-0.8c0.2,0,0.5-0.1,0.7,0l0.5,0h0.2c0.4,0,0.8,0,1.2,0h0.9
	c0.3,0,0.7,0,1-0.1c0.3-0.1,0.5-0.1,0.8-0.1c0.2,0,0.5,0,0.7-0.1l0.2-0.1c0.5-0.2,1-0.4,1.6-0.6c0.4-0.2,0.8-0.4,1.2-0.6
	c0.5-0.3,1-0.7,1.4-1.2c0.2-0.2,0.4-0.5,0.6-0.7l0.3-0.4c0,0,0.1-0.1,0.1-0.1c0.1-0.1,0.1-0.2,0.2-0.3c0.1-0.1,0.2-0.3,0.3-0.4
	c0.1-0.2,0.2-0.4,0.4-0.5c0-0.1,0.1-0.1,0.1-0.2l0.5-1.1l0.1-0.2c0-0.1,0.1-0.2,0.1-0.2c0.1-0.1,0.1-0.3,0.2-0.4v-0.1l0.2-0.5
	l0.1-0.3c0.1-0.3,0.2-0.6,0.2-0.9l0.1-0.6l0.1-0.3c0-0.2,0.1-0.3,0.1-0.5C138.4,12.2,138.4,11.7,138.4,11.4z M136.1,13.2v0.2
	c0,0.1,0,0.1,0,0.2L136,14v0.2c0,0.1,0,0.1,0,0.2c0,0.1-0.1,0.2-0.1,0.3c-0.1,0.3-0.2,0.6-0.4,0.8c-0.2,0.4-0.5,0.8-0.6,1.2
	c-0.1,0.3-0.3,0.5-0.4,0.8v0c-0.3,0.4-0.6,0.7-0.9,0.9l-0.3,0.2l-0.2,0.1l0,0c-0.2,0.2-0.4,0.4-0.7,0.5l-0.2,0.1
	c-0.3,0.3-0.6,0.5-1,0.6l-0.2,0.1h-0.1c-0.3,0.1-0.5,0.2-0.8,0.2c-0.5,0.2-1.1,0.4-1.6,0.4c-0.1,0-0.2,0-0.3,0.1
	c-0.4,0.1-0.9,0.2-1.3,0.3l-0.7,0.1H126c-0.6,0.1-1.3,0.2-1.9,0.2c-0.1,0-0.2,0-0.3,0l-1,0c0,0.1,0,0.2,0,0.2c0,0.3,0,0.6,0,0.9
	s0,0.6,0,0.9s0,0.3,0,0.5c0,0.3,0,0.6,0,0.9c0,0.2,0,0.4,0,0.6s0,0.4,0,0.5c0,0.1,0,0.2,0,0.3v0.1c0,0.3,0,0.6,0,0.9v0.3
	c0,0.3,0,0.6,0,0.8s0,0.5,0,0.7v0.4c0,0.1,0,0.2,0,0.3c0,0.7,0,1.4,0,2v0.7v1.3c0,0.2,0,0.3,0,0.5s0,0.2,0,0.4c0,0.7,0,1.4,0,2.2
	v2.3c0,0.4,0,0.9,0,1.3s0,0.6,0,0.9c0,0.1,0,0.3,0,0.4v0.1c0,0.1,0,0.2,0,0.4c0,0.3,0,0.6,0,0.9v0.4v0.7v0.4c0,0.3,0,0.7,0,1
	c0,0.2,0,0.5,0,0.7c0,0.2,0,0.4,0,0.6v0.2c0,0.1,0,0.1,0,0.2c0,0.1,0,0.3,0,0.5c0,0.2,0,0.3,0,0.5c0,0.3,0,0.5,0,0.8
	c0,0.1,0,0.2,0,0.3s0,0.5,0,0.7v0.2c0,0.2-0.1,0.4-0.2,0.6c0,0,0,0,0,0c-0.1,0.3-0.4,0.5-0.7,0.6c-0.1,0-0.2,0-0.3,0h-1l-1.7-0.1
	h-0.7c-0.2,0-0.3,0-0.5,0h-0.1c-0.3,0-0.6-0.1-0.7-0.4c-0.1-0.1-0.1-0.2-0.2-0.2c-0.2-0.3-0.4-0.6-0.6-0.9c-0.1-0.1-0.2-0.3-0.3-0.4
	c-0.1,0-0.1-0.1-0.2-0.2c-0.2-0.3-0.4-0.5-0.7-0.7l-0.1-0.1c-0.2-0.1-0.3-0.2-0.5-0.3c-0.3-0.2-0.6-0.3-0.9-0.4l-1-0.3l-0.9-0.3
	l-0.1,0l-0.3-0.1l-0.4-0.1l-1.8-0.6l-0.6-0.2l-0.7,0c-0.2,0-0.3-0.1-0.4-0.2l-0.4-0.2c-0.3-0.1-0.6-0.3-0.9-0.5l-0.2-0.1
	c-0.2-0.1-0.4-0.2-0.6-0.4c-0.1-0.1-0.2-0.2-0.3-0.2l-0.1-0.1L104,44l-0.3-0.2c-0.1-0.1-0.3-0.2-0.4-0.3c0-0.1-0.1-0.1-0.2-0.1
	c-0.3-0.2-0.6-0.5-0.7-0.8l-0.1-0.2l-0.2-0.4c-0.2-0.3-0.3-0.6-0.3-0.9c-0.1-0.2-0.1-0.5-0.2-0.7c-0.1,0.1-0.2,0.1-0.3,0.2
	c-0.4,0.3-0.8,0.5-1.2,0.7c-0.2,0.1-0.3,0.1-0.5,0.2h-0.1c-0.2,0.1-0.3,0.1-0.5,0.2c-0.5,0.3-1,0.4-1.5,0.6
	c-0.2,0.1-0.4,0.1-0.6,0.2c-0.1,0.1-0.3,0.1-0.4,0.1l-1.6,0.3h-0.4H94h-0.3c-0.4,0-0.8,0-1.2-0.1l-0.3-0.1l-0.4-0.1
	c-0.2,0-0.4-0.1-0.6-0.2s-0.8-0.3-1.2-0.5c-1-0.4-1.9-0.9-2.7-1.6c-0.1-0.1-0.2-0.1-0.2-0.2l-0.4-0.4L85.8,39
	c-0.3-0.3-0.6-0.6-0.8-0.9l0,0l-0.1,0.5l-0.2,0.7c-0.2,0.6-0.4,1.1-0.6,1.6c0,0.1-0.1,0.1-0.1,0.2c0,0.1-0.1,0.2-0.1,0.3L83.5,42
	c-0.4,0.8-0.8,1.5-1.2,2.3c-0.3,0.6-0.7,1.2-1.2,1.8c-0.1,0.1-0.2,0.2-0.3,0.3c0,0-0.1,0-0.1,0.1c-0.1,0.1-0.2,0.2-0.3,0.4l-0.6,0.6
	l-0.5,0.5c0,0-0.1,0.1-0.1,0.1c-0.3,0.4-0.7,0.8-1.2,1l-0.2,0.2l-0.1,0.1l-0.1,0.1l-0.7,0.4c-0.4,0.3-0.9,0.5-1.3,0.7l-0.2,0.1
	c-0.5,0.3-1.1,0.6-1.7,0.8l-0.6,0.2l-0.3,0.1l-0.3,0.1c-0.2,0.1-0.3,0.1-0.5,0.2c-0.1,0-0.2,0.1-0.3,0.1h-0.2l-0.6,0.2l-0.2,0.1
	c-0.1,0-0.1,0-0.2,0.1l-1.3,0.3c-0.4,0.1-0.9,0.1-1.3,0.2h-0.5h-0.2c-0.6,0-1.1,0-1.7-0.1h-0.1c-0.3,0.1-0.6,0-0.9-0.1l-1.8-0.5
	l-0.4-0.1c-0.1,0-0.2-0.1-0.4-0.1c-0.2,0-0.3-0.1-0.5-0.1l-0.6-0.3l-0.2-0.1c-0.1-0.1-0.2-0.1-0.3-0.1c-0.1,0-0.3-0.1-0.4-0.2
	L59.4,51l-0.6-0.3l-0.2-0.1c-0.2-0.1-0.4-0.1-0.6-0.3c-0.4-0.3-0.8-0.5-1.2-0.8l-0.2-0.1c-0.2-0.1-0.3-0.2-0.4-0.3l-0.1-0.1
	l-0.5-0.4L54.7,48l-0.3-0.2l-0.2-0.2c-0.1-0.1-0.1-0.1-0.2-0.1c-0.2-0.1-0.3-0.2-0.5-0.3l-1-1.1c-0.2-0.2-0.4-0.4-0.6-0.6
	c-0.1-0.2-0.3-0.3-0.4-0.5c-0.1-0.1-0.1-0.2-0.2-0.3L51,44.2l-0.4-0.5c-0.2-0.2-0.3-0.4-0.4-0.7c-0.4-0.6-0.7-1.3-0.9-1.9l-0.1-0.2
	L49,40.7c0-0.1,0-0.2-0.1-0.2c-0.1-0.3-0.2-0.6-0.3-0.9l-0.4,0.3c-0.3,0.2-0.7,0.5-1,0.7l-0.3,0.2l-0.2,0.2L46.4,41l-1,0.5l-0.3,0.2
	H45l-0.8,0.2c-0.5,0.2-1,0.3-1.5,0.4c-0.6,0.1-1.2,0.2-1.8,0.2h-0.5L40,42.4l-0.8-0.1c-0.8-0.1-1.5-0.3-2.2-0.7
	c-0.4-0.1-0.7-0.3-1-0.5l-0.2,0.2l0,0l-0.2,0.2c-0.2,0.2-0.5,0.4-0.6,0.6l-0.4,0.5l-0.3,0.4c-0.3,0.3-0.6,0.7-1,0.9l-0.3,0.3
	c-0.1,0.1-0.2,0.2-0.3,0.3c-0.5,0.4-0.9,0.7-1.4,1l-0.8,0.5l-0.6,0.4c-0.1,0.1-0.3,0.2-0.4,0.2c-0.6,0.3-1.1,0.5-1.7,0.7
	c-0.3,0.1-0.5,0.2-0.8,0.3l-0.6,0.2c-0.2,0-0.3,0.1-0.5,0.1c-0.2,0-0.3,0.1-0.5,0.1l-0.5,0.2l-0.2,0.1h-0.1c-0.1,0-0.1,0-0.2,0.1
	c-0.6,0.2-1.1,0.5-1.6,0.8l-0.4,0.3c-0.2,0.1-0.3,0.3-0.4,0.5c-0.2,0.5-0.5,1.1-0.7,1.6L21,51.7c0,0.1-0.1,0.1-0.1,0.2
	c-0.2,0.3-0.6,0.4-0.9,0.3h-0.3h-3.1h-0.1c-0.2,0-0.4,0-0.6-0.2c-0.3,0-0.6-0.2-0.7-0.5v-0.1c-0.1-0.2-0.1-0.4-0.1-0.7
	c0-0.4,0-0.8,0-1.2c0-0.1,0-0.2,0-0.2v-3c0-0.1,0-0.2,0-0.4c0-0.3,0-0.6,0-0.9v0c0-0.2,0-0.4,0-0.5c0-0.3,0-0.7,0.1-1
	c0,0,0-0.1,0-0.1v-0.1c0-0.2,0-0.4,0-0.6c0-0.1,0-0.1,0-0.2c0-0.5,0-1,0-1.5c0-0.6,0-1.1,0-1.7c0-0.1,0-0.2,0-0.3c0-0.4,0-0.9,0-1.3
	c0-0.2,0-0.5,0-0.8c0-0.4,0-0.8,0.1-1.1v-0.8c0-0.2,0-0.4,0-0.6s0-0.4,0-0.6s0-0.2,0-0.3s0-0.3,0-0.5c0-0.4,0-0.8,0-1.1v-0.5
	c0-0.3,0-0.7,0-1v-0.2c0-0.3,0-0.5,0-0.8v-0.7c0-0.3,0-0.5,0-0.8c0-0.4,0-0.8-0.1-1.1c0-0.1,0-0.2,0-0.3V26c0-0.3,0-0.6,0-0.9
	s0-0.4,0-0.6v-0.3c0,0,0-0.1,0-0.1v-0.4c0-0.3,0-0.5,0-0.8V22c-0.6,0-1.2,0-1.8,0c-0.3,0-0.5,0-0.8,0l-0.3,0c-0.3,0-0.5-0.1-0.8-0.1
	c-0.1,0-0.2,0-0.3,0H11c-0.4,0-0.9-0.1-1.3-0.3c-0.1,0-0.3-0.1-0.4-0.1c-0.2,0-0.5,0-0.7-0.1H8.5c-0.2,0-0.4-0.1-0.6-0.2H7.8
	c-0.5-0.1-1-0.3-1.4-0.5c-0.2-0.2-0.3-0.4-0.5-0.6c-0.1-0.1-0.2-0.1-0.2-0.2c-0.2-0.1-0.4-0.3-0.6-0.5l0,0l0,0l-0.4-0.4l-0.2-0.1
	c-0.2-0.2-0.4-0.4-0.5-0.6c-0.3-0.4-0.5-0.8-0.7-1.2c-0.1-0.2-0.2-0.5-0.4-0.7l-0.1-0.1c-0.2-0.2-0.3-0.5-0.3-0.8v-0.1l0,0
	c0-0.1-0.1-0.2-0.1-0.3l-0.1-1c0-0.1,0-0.1,0-0.2l0,0c0-0.3,0-0.5,0.1-0.8c0-0.1,0.1-0.3,0.1-0.4c0-0.1,0-0.1,0-0.2v-0.2
	c0-0.1,0-0.2,0.1-0.4c0-0.1,0.1-0.3,0.1-0.4C2.8,11.2,2.9,11,3,10.7c0-0.1,0.1-0.3,0.1-0.4c0.1-0.4,0.3-0.8,0.6-1.1
	c0,0,0-0.1,0.1-0.1c0.1-0.2,0.2-0.4,0.2-0.6c0.1-0.4,0.3-0.7,0.5-1C4.9,6.8,5.4,6.1,6,5.6c0,0,0.1-0.1,0.1-0.1
	C6.4,5,6.8,4.6,7.3,4.3l0.5-0.2L8,3.9c0.1-0.1,0.2-0.1,0.3-0.2c0.3-0.3,0.6-0.5,1-0.6h0.1C9.6,3,9.8,2.9,10.1,2.9h1.1l1.9,0h0.4h0.2
	H15l2.3-0.1c0.5,0,1.1,0,1.6,0c0.4,0,0.8,0,1.1,0s0.9,0,1.3,0h0.5l0,0c0.4,0,0.9,0.1,1.3,0.2h0.1c0.2,0,0.3,0,0.5,0.1h0.1h0.8
	c0.5,0,1,0,1.5,0c0.1,0,0.2,0,0.4,0h1.9h1.2c0.3,0,0.6,0,0.9,0c0.3,0,0.6,0,0.9,0c0.1,0,0.1,0,0.2,0l0,0h0.6c0.5,0,1.1,0,1.6-0.1
	s0.9,0,1.4,0h1.4c0.4,0,0.8,0,1.2,0h0.6c0.3,0,0.6,0,0.9,0s0.5,0,0.8,0h1.8L44,3h0.1h0.2h0.1H45h1.4h1.4c0.5,0,1.1,0,1.6,0
	c0.8,0,1.6,0,2.3,0h1.5l0.4,0h0.2h0.1h0.2h1.4c0.3,0,0.5,0,0.8,0h1.5C58,3,58.2,3,58.3,3h0.8h0.7h1.2h2.3c0.3,0,0.7,0,1,0l0,0
	c0.3,0,0.5,0,0.8,0h0.1h0.5h1h1.5c0.1,0,0.2,0,0.3,0h0.1L69,3c0.2,0,0.4,0,0.5,0h1.8h0.8h1.5c0.1,0,0.1,0,0.2,0h0.6
	c0.1,0,0.3,0,0.4,0c0.2,0,0.4,0,0.7,0s0.4,0,0.6,0h0.1h1.4c0.3,0,0.7,0,1,0l1.5,0c0.1,0,0.3,0,0.4,0c0.1,0,0.1,0,0.2,0h1.5
	c0.1,0,0.2,0,0.4,0h0.4h1.2h0.2h0.2H85c0.2,0,0.4,0,0.6,0h2.2c0.3,0,0.6,0,0.9,0c0.5,0,1,0,1.5,0h0.5h2.4h0.8h0.4h0.5h1.6h1.1h0.3
	c0.2,0,0.4,0,0.6,0c0.1,0,0.1,0,0.2,0h2.6c0.2,0,0.5,0,0.7,0c0.1,0,0.2,0,0.3,0c0.4,0,0.7,0,1.1,0c0.2,0,0.5,0,0.7,0h0.3h0.2h0.2
	l2.2,0.1c0.2,0,0.3,0,0.5,0c0.2,0,0.5,0,0.7,0c0.2,0,0.4,0,0.6,0h0.8c0.3,0,0.7,0,1,0c0.7,0,1.4,0,2.4-0.1c0.4,0,0.7,0,1.1,0h0.6
	c0.2-0.1,0.4-0.1,0.6-0.1h0.2c0.3-0.1,0.7-0.1,1-0.1h0.5h0.2c0.3,0,0.6,0,0.9,0c0.6,0,1.3,0,1.9,0s1,0,1.5,0h0.2h1h0.9h0.8h0.5
	c0.7,0,1.4,0,2.1-0.1c0.7,0,1.3,0,2,0.1l0.4,0.1h0.3c0.3,0,0.6,0.2,0.8,0.3l0.3,0.2l0.2,0.2l0.2,0.2l0.1,0.1l0.1,0.1l0.3,0.3
	c0.1,0.1,0.1,0.1,0.2,0.2l0.3,0.3c0.2,0.2,0.4,0.4,0.6,0.6l0.1,0.1c0.3,0.3,0.5,0.7,0.8,1l0.2,0.2l0.1,0.1c0.3,0.3,0.5,0.7,0.7,1.1
	c0.1,0.2,0.2,0.4,0.3,0.7l0.1,0.2c0,0,0,0.1,0.1,0.1c0.1,0.3,0.3,0.5,0.4,0.8l0.2,0.7l0.1,0.4c0.2,0.3,0.3,0.7,0.3,1.1l0,0V12v0.2
	c0,0.1,0,0.2,0.1,0.4C136,12.8,136,13,136.1,13.2C136,13.2,136.1,13.2,136.1,13.2z"/>
<polygon class="st0" points="126.7,26.9 127.8,26.9 127.8,30.1 128.3,30.1 128.3,26.9 129.4,26.9 129.4,26.6 126.7,26.6 "/>
<polygon class="st0" points="131.9,29.4 130.8,26.6 130.1,26.6 130.1,30.1 130.5,30.1 130.5,27 130.5,27 131.8,30.1 132,30.1 
	133.3,27 133.3,27 133.3,30.1 133.7,30.1 133.7,26.6 133,26.6 "/>
</svg>
