<?xml version="1.0" encoding="utf-8"?>
<!-- Generator: Adobe Illustrator 23.0.1, SVG Export Plug-In . SVG Version: 6.00 Build 0)  -->
<svg version="1.1" id="Layer_1" xmlns="http://www.w3.org/2000/svg" xmlns:xlink="http://www.w3.org/1999/xlink" x="0px" y="0px"
	 viewBox="0 0 109.4 50.5" style="enable-background:new 0 0 109.4 50.5;" xml:space="preserve">
<style type="text/css">
	.st0{fill:#FFFFFF;}
</style>
<title>Artboard 21</title>
<g id="HEADER_MENU">
	<path class="st0" d="M45.3,45.9c-0.1,0-0.2,0-0.3,0.1l-0.2,0.2c0,0.1-0.1,0.1-0.1,0.2l-0.5,0.9c0,0,0,0.1-0.1,0.1L44,47.3
		c-0.1-0.2-0.2-0.5-0.3-0.8c-0.2-0.4-0.3-0.9-0.5-1.3c-0.1-0.2-0.2-0.4-0.4-0.5c-0.1-0.1-0.3-0.2-0.5-0.1c0,0,0,0-0.1,0.1l-0.1,0.1
		l-0.8,1.5c-0.1,0.1-0.2,0.2-0.2,0.4c0,0.1-0.1,0.2-0.1,0.3c0,0.2,0,0.4,0.2,0.4c0.1,0.1,0.3,0,0.4-0.1c0-0.1,0.1-0.1,0.1-0.2
		l0.5-1.1l0.2-0.4c0,0,0-0.1,0.1-0.1l0.1,0.2c0.2,0.7,0.5,1.4,0.8,2.1c0.1,0.2,0.1,0.4,0.2,0.5c0.1,0.1,0.2,0.2,0.3,0.3
		c0.2-0.1,0.4-0.3,0.5-0.5c0.1-0.3,0.3-0.7,0.4-1c0.1-0.1,0.2-0.3,0.2-0.4s0.1-0.3,0.2-0.4c0-0.1,0-0.2,0-0.2
		C45.4,46,45.3,45.8,45.3,45.9"/>
	<path class="st0" d="M64.8,47.1c-0.1-0.1-0.2-0.2-0.4-0.3c-0.2-0.1-0.4-0.3-0.6-0.5c-0.1-0.2-0.3-0.3-0.5-0.4
		c-0.3-0.2-0.6-0.5-0.8-0.8c-0.1-0.2-0.3-0.3-0.4-0.3c-0.2,0-0.3,0.1-0.4,0.2c0,0.1,0,0.1,0,0.2c0,0.3-0.1,0.6-0.1,0.8
		c-0.1,0.5-0.2,1-0.3,1.5l-0.1,0.6c0,0.1,0,0.2,0,0.2c0,0.1,0.2,0.2,0.3,0.2c0.1,0,0.2-0.1,0.3-0.2v-0.1c0-0.2,0.1-0.5,0.2-0.8
		s0.1-0.3,0.3-0.3s0.6-0.1,0.9-0.2c0.2-0.1,0.3,0,0.5,0.1l0.6,0.4c0.1,0.1,0.2,0.1,0.3,0.1c0.1,0,0.3-0.1,0.3-0.2
		C64.9,47.4,64.8,47.2,64.8,47.1 M62.1,46.6c0-0.2,0-0.4,0.1-0.5c0,0,0,0,0.1-0.1c0,0,0.1,0,0.2,0c0.1,0.1,0.2,0.2,0.3,0.4
		C62.5,46.5,62.3,46.5,62.1,46.6"/>
	<path class="st0" d="M51.2,46.3C51,46.1,50.8,46,50.5,46h-0.1c-0.4,0-0.7,0.1-0.9,0.4c-0.2,0.2-0.3,0.4-0.4,0.7
		c-0.2,0.5-0.2,1.2,0.1,1.7c0.1,0.2,0.3,0.3,0.5,0.4l0.1,0.1c0.4,0.2,0.8,0.3,1.2,0.1c0.3-0.1,0.6-0.3,0.7-0.6
		c0.1-0.2,0.2-0.5,0.3-0.8c0,0,0-0.1,0-0.2C52,47.2,51.7,46.7,51.2,46.3 M51.5,48.1c-0.1,0.2-0.2,0.4-0.3,0.6
		c-0.1,0.1-0.2,0.2-0.3,0.2c-0.1,0-0.2,0-0.3,0.1c-0.1,0-0.3,0-0.4-0.1c-0.5-0.2-0.8-0.7-0.7-1.2c0,0,0,0,0,0
		c0.1-0.3,0.2-0.5,0.4-0.8c0.1-0.1,0.1-0.1,0.2-0.2c0.1-0.1,0.2-0.1,0.3-0.1c0.1,0,0.2,0,0.2,0c0.1,0,0.2,0,0.3,0.1
		C51.4,47,51.6,47.6,51.5,48.1"/>
	<path class="st0" d="M57.4,48.5c-0.1,0-0.2,0-0.2,0l-1,0.1c-0.1,0-0.2,0-0.2,0c0-0.1,0-0.2,0-0.3c0-0.4,0-0.8,0-1.1V47
		c0-0.1-0.1-0.2-0.2-0.2c-0.1-0.1-0.2-0.1-0.3,0c0,0,0,0,0,0.1c0,0.1,0,0.2,0,0.3c0,0.1,0,0.3,0,0.4c0,0.1,0,0.3,0,0.4
		c0,0.3,0,0.7,0.1,1c0,0.1,0.1,0.2,0.2,0.3c0.2,0.1,0.3,0.1,0.5,0.1h0.3l1-0.2c0.1,0,0.2-0.1,0.3-0.1c0.1-0.1,0.1-0.3,0-0.4
		C57.6,48.5,57.5,48.5,57.4,48.5"/>
	<path class="st0" d="M97.8,46c-0.2-0.1-0.3-0.2-0.4-0.3l-0.2-0.2c-0.1-0.1-0.2-0.1-0.3-0.1c-0.5,0-0.9,0-1.4-0.1
		c-0.7-0.1-1.4-0.1-2.2-0.1c-0.1,0-0.2,0-0.2,0.2c-0.1,0.2-0.3,0.4-0.5,0.6l0,0c0,0.1-0.1,0.1-0.2,0.1l-0.1,0.1
		c0,0.1,0.1,0.2,0.2,0.2c0.2,0.2,0.5,0.4,0.7,0.6c0.1,0.1,0.2,0.2,0.3,0.3l0.3,0.3c0.1,0.1,0.2,0.1,0.3,0.1h0.5c0.1,0,0.2,0,0.3,0
		c0.3,0.1,0.6,0.1,0.9,0.1c0.1,0,0.3,0,0.4,0c0.1,0,0.2,0,0.3-0.1c0.3-0.3,0.5-0.5,0.8-0.8l0.5-0.5C97.8,46.2,97.9,46.1,97.8,46
		C97.9,46,97.9,46,97.8,46"/>
	<path class="st0" d="M16.5,46L16.5,46c-0.1-0.1-0.2-0.3-0.3-0.5c0,0,0-0.1-0.1-0.1c-0.3,0-0.6,0-0.9,0c-0.1,0-0.2,0-0.3,0
		c-0.2,0-0.4,0-0.7,0h-0.1c-0.6,0-1.1,0.1-1.7,0.1h-0.2l-0.1,0.1c0,0,0,0.1,0,0.1c0,0.2-0.1,0.5-0.3,0.7l0.1,0.1l1.2,0.9
		c0,0,0.1,0.1,0.1,0.1c0.2,0.1,0.4,0.1,0.6,0.1c0.1,0,0.1,0,0.2,0c0.1,0,0.2,0.1,0.3,0.1c0.1,0,0.2,0,0.3,0l0,0c0.2,0,0.4,0,0.6-0.2
		c0.1,0,0.1-0.1,0.2-0.1l1.3-0.8c0.1,0,0.1-0.1,0.2-0.2s-0.1-0.2-0.1-0.2c-0.1-0.1-0.2-0.2-0.3-0.4"/>
	<path class="st0" d="M93.2,44.3c0,0.1,0.1,0.1,0.1,0.1l0.4,0.1c0.4,0.1,0.9,0.1,1.3,0.2l1.6,0.1c0.1,0,0.1,0,0.2,0
		c0-0.2,0.1-0.5,0.1-0.7c0.1-0.2,0.2-0.5,0.3-0.7l-1-0.1h-1.8h-1.4c-0.1,0-0.2,0-0.2,0.1C93,43.7,93.1,44,93.2,44.3L93.2,44.3"/>
	<path class="st0" d="M12,44.2c0,0.1,0,0.1,0.1,0.2c0,0.1,0.1,0.1,0.1,0.2c0,0.1,0,0.2,0,0.4h0.2l0.8-0.1c0.2,0,0.4,0,0.7,0h0.6
		l1.6-0.1c0.1,0,0.2,0,0.3-0.1c0.1-0.2,0.1-0.3,0.2-0.5c0-0.1,0-0.1,0-0.2c0,0,0-0.1,0-0.1h-0.3c-0.6,0-1.1,0-1.7,0
		c-0.8,0-1.6,0-2.4-0.1c-0.1,0-0.2,0-0.3,0h-0.1c0,0.1,0.1,0.1,0.1,0.2C11.9,44.1,12,44.2,12,44.2"/>
	<path class="st0" d="M95.7,48.2L95.7,48.2h-1.1c-0.1,0-0.1,0-0.2,0.1c0,0.2-0.1,0.4-0.1,0.5c-0.1,0.2-0.1,0.5,0,0.7
		c0.1,0.3,0.3,0.6,0.5,0.8c0.1,0.1,0.1,0.1,0.2,0c0.2-0.1,0.3-0.3,0.4-0.5c0.1-0.2,0.2-0.5,0.2-0.8V49c0,0,0-0.1,0-0.2
		C95.6,48.6,95.6,48.4,95.7,48.2"/>
	<path class="st0" d="M13.6,48.4h-0.1c0,0.1,0,0.1,0,0.2v0.3c0,0.3,0.1,0.5,0.1,0.8c0,0.1,0.1,0.2,0.1,0.3c0,0.1,0.1,0.1,0.1,0.2
		c0.1,0.1,0.2,0.2,0.4,0.3c0.1,0,0.2-0.1,0.2-0.2c0.2-0.2,0.3-0.5,0.4-0.7c0.1-0.1,0.1-0.2,0.1-0.3c0-0.2,0.1-0.4,0.1-0.6
		c0-0.1,0-0.2-0.1-0.2C14.6,48.4,14.1,48.4,13.6,48.4"/>
	<path class="st0" d="M77.7,26.1c0-0.1-0.1-0.1-0.1-0.1c-0.2-0.2-0.5-0.3-0.8-0.3c0,0-0.1,0-0.1,0c-0.3,0.1-0.6,0.5-0.6,0.8
		c0,0.1,0,0.3,0.1,0.3c0,0,0.1,0.1,0.1,0.1c0.1,0.1,0.2,0.2,0.4,0.2l0.3,0h0.1l0.2-0.1c0,0.1,0,0.2-0.1,0.2l-0.4,0.6
		c-0.1,0.1-0.1,0.1-0.2,0.1c-0.1,0.1-0.2,0.1-0.3,0.2c-0.3,0.1-0.6,0.2-0.9,0.2h-0.1c-0.3,0-0.6-0.1-0.8-0.2c-0.1,0-0.1-0.1-0.2-0.1
		c-0.1,0-0.2,0-0.3-0.1c-0.1-0.1-0.2-0.2-0.3-0.3c-0.1-0.1-0.2-0.2-0.3-0.3c0,0-0.1-0.1-0.1-0.2c-0.2-0.5-0.3-1-0.4-1.5
		c0-0.4-0.1-0.7-0.1-1.1c0-0.1,0-0.3-0.1-0.4c0-0.6,0-1.2,0-1.7c0-0.1,0-0.2,0-0.2c0-0.2,0-0.4,0-0.6c0-0.6,0-1.2,0-1.9V19
		c0-0.7,0-1.4,0-2.1c0-0.4,0-0.7,0-1.1s0-0.7,0-1.1c0-0.2,0-0.3,0-0.5c0-0.6,0-1.2,0-1.8c0-0.2,0-0.5-0.1-0.7
		c-0.1-0.4-0.2-0.9-0.3-1.3c0-0.2-0.1-0.3-0.2-0.4l-0.5-0.8L71.6,9c-0.4-0.4-0.8-0.9-1.3-1.3c0,0-0.1-0.1-0.1-0.1l-0.6-0.4
		c-0.5-0.3-1-0.4-1.5-0.5h-0.6l-0.6,0.1c-0.2,0-0.3,0.1-0.5,0.1l-0.9,0.4c-0.1,0-0.2,0.1-0.3,0.2l-0.9,0.7c-0.3,0.2-0.6,0.5-0.7,0.9
		c-0.1,0.1-0.1,0.2-0.2,0.4c-0.1,0.1-0.2,0.2-0.2,0.4c0,0.1-0.1,0.2-0.1,0.4c-0.1,0.3-0.2,0.6-0.3,0.9c-0.1,0.2-0.1,0.3-0.1,0.5
		c0,0.1,0,0.1,0,0.2c0,0.4-0.1,0.8-0.1,1.2c0,0.1,0,0.2,0,0.3c0,0.2,0,0.5,0,0.7c0,0.2,0,0.5,0,0.7c0,0.1,0,0.2,0,0.3
		c0,0.4,0,0.9,0,1.3c0,0.2,0,0.4,0,0.6c0,0.6,0,1.1,0.1,1.7c0,0.1,0,0.2,0,0.3c0,0.1,0,0.1,0,0.2c0,0.4,0,0.9,0,1.3
		c0,0.1,0,0.1,0,0.2c-0.1,0.2-0.1,0.3-0.1,0.5c0,0.5,0,1,0,1.6s0,1.3,0,1.9c0,0.1,0,0.2,0,0.2c0,0.3,0,0.6,0,0.8
		c-0.1,0.7-0.2,1.3-0.3,2c-0.1,0.3-0.1,0.6-0.2,0.9l-0.2,0.7c-0.1,0.3-0.2,0.6-0.3,0.9c0,0,0,0.1,0,0.1c0,0.2-0.1,0.3-0.2,0.4
		l-0.6,0.9c0,0,0,0.1,0,0.1c-0.2,0.3-0.4,0.7-0.7,0.9c-0.2,0.2-0.4,0.3-0.5,0.5c-0.3,0.3-0.6,0.6-0.9,0.8c0,0-0.1,0.1-0.1,0.1
		c-0.1,0.2-0.3,0.3-0.5,0.4l-0.7,0.3c-0.3,0.1-0.6,0.2-0.9,0.4C56.2,35,56.1,35,56,35c-0.1,0-0.1,0-0.2,0.1c-0.1,0-0.1,0.1-0.2,0.1
		l-0.7,0.1c-0.4,0.1-0.8,0.1-1.2,0.1h-0.3c-0.7,0-1.5,0-2.2-0.1c-0.4,0-0.8-0.1-1.3-0.2c-0.5-0.1-0.9-0.2-1.3-0.4l-0.3-0.1
		c-0.2,0-0.3-0.1-0.5-0.2c-0.3-0.2-0.6-0.3-0.9-0.4c-0.1,0-0.2-0.1-0.3-0.1L46,33.5l-0.9-0.6l-0.3-0.2c-0.1-0.1-0.2-0.2-0.4-0.3
		c-0.3-0.2-0.5-0.4-0.7-0.7c-0.2-0.3-0.5-0.6-0.8-0.8c0,0-0.1-0.1-0.1-0.1c-0.3-0.4-0.6-0.8-0.8-1.3c-0.1-0.2-0.2-0.5-0.3-0.8
		c0-0.1-0.1-0.1-0.1-0.2c-0.1-0.3-0.1-0.7-0.2-1c0-0.2,0-0.5,0-0.7c0-0.1,0.1-0.3,0.1-0.4c0-0.3,0.3-0.5,0.5-0.5c0,0,0,0,0,0.1
		c0.1,0.3,0.3,0.4,0.5,0.5c0.3,0.1,0.6,0.1,0.9,0.1c0,0,0.1,0,0.1,0c0.1-0.1,0.2-0.1,0.4-0.1c0,0,0.1,0,0.1,0
		c0.3-0.2,0.4-0.5,0.4-0.8v-0.1c0-0.3-0.2-0.6-0.4-0.8c-0.2-0.1-0.4-0.2-0.7-0.2H43c-0.1,0-0.2,0-0.2,0c-0.1,0-0.2,0.1-0.2,0.1
		c-0.2,0.1-0.3,0.2-0.4,0.3c-0.2,0.2-0.5,0.4-0.7,0.6c-0.2,0.2-0.3,0.4-0.4,0.6c0,0.1-0.1,0.3-0.2,0.4c0,0.1,0,0.2-0.1,0.4
		c0,0.1,0,0.3,0,0.4c0,0.5,0.1,0.9,0.2,1.4c0.1,0.4,0.2,0.8,0.4,1.2c0.2,0.5,0.5,0.9,0.7,1.4c0.1,0.3,0.3,0.5,0.5,0.7v0
		c0.2,0.3,0.4,0.5,0.6,0.7c0.2,0.3,0.4,0.5,0.7,0.8c0.3,0.2,0.5,0.4,0.8,0.7c0.4,0.3,0.9,0.7,1.3,1.1l0.2,0.1c0.7,0.5,1.4,1,2.2,1.3
		c0.2,0.1,0.4,0.2,0.6,0.2c0.6,0.2,1.2,0.4,1.9,0.5h0.1c0.5,0.1,1.1,0.2,1.6,0.2h0.4h1.1c0.2,0,0.5,0,0.7-0.1h0.2l0.3-0.1
		c0.2-0.1,0.5-0.2,0.7-0.2c0.2,0,0.3-0.1,0.5-0.1l0.8-0.2l0.6-0.2c0.2-0.1,0.3-0.1,0.5-0.2c0.3-0.2,0.6-0.3,0.9-0.5l0.2-0.1
		c0.3-0.2,0.6-0.4,0.9-0.6l0.2-0.2c0.2-0.1,0.4-0.3,0.5-0.4l0.3-0.3c0.2-0.2,0.4-0.5,0.6-0.7c0.2-0.3,0.4-0.6,0.6-0.9
		c0.3-0.3,0.5-0.7,0.6-1.1c0-0.1,0.1-0.1,0.1-0.2c0.1-0.1,0.1-0.3,0.2-0.4c0.2-0.7,0.4-1.4,0.6-2.1c0.1-0.5,0.2-0.9,0.3-1.4
		c0-0.3,0.1-0.7,0.1-1s0.1-0.8,0.1-1.1s0-0.9,0-1.3s0-1,0-1.5s0-1.2,0.1-1.8c0-0.3,0-0.6,0-0.9c0-0.1,0-0.2,0-0.3c0-0.6,0-1.2,0-1.8
		c0-0.1,0-0.3,0-0.4c0-0.1,0-0.1,0.1-0.1h0.4c0.5,0,0.9,0,1.4,0h3.2h0.2c0.1,0,0.2,0,0.3,0.1c0.1,0,0.1,0.1,0.1,0.2
		c0,0.1,0,0.2,0,0.3c0,0.1,0,0.3,0,0.4v1.5c0,0.2,0,0.4,0,0.5v0.3c0,0.3,0,0.6,0,0.9c0,0,0,0.1,0,0.2s0,0.2,0,0.3c0,0.5,0,1,0,1.5
		c0,0.2,0,0.4,0,0.6c0,0.2,0,0.4,0,0.5s0,0.2,0,0.3c0.1,0.8,0.4,1.7,0.7,2.5c0.1,0.2,0.2,0.4,0.3,0.6l0.2,0.2
		c0.1,0.1,0.2,0.2,0.3,0.3c0.1,0.1,0.2,0.2,0.3,0.2c0.2,0.2,0.3,0.3,0.6,0.4c0.2,0.1,0.4,0.2,0.6,0.3c0.2,0.1,0.3,0.1,0.5,0.1
		c0.1,0,0.2,0,0.3,0c0.2,0,0.4,0,0.6,0h0.5c0.2,0,0.4-0.1,0.6-0.1c0.2-0.1,0.3-0.1,0.4-0.2c0.1,0,0.2-0.1,0.3-0.1
		c0.3-0.2,0.5-0.5,0.8-0.8c0.1-0.1,0.2-0.3,0.3-0.4c0-0.1,0-0.1,0.1-0.1c0.2-0.3,0.2-0.7,0.1-1c-0.1-0.2-0.1-0.3-0.2-0.5 M69.2,14.2
		h-0.1c-0.5,0-1,0-1.4,0c-0.3,0-0.7,0-1,0l-1.2,0.1c-0.1,0-0.2,0-0.3,0c0,0,0-0.1,0-0.1c0-0.1,0-0.1,0-0.2c0-0.4,0-0.8-0.1-1.2
		c0-0.2,0-0.4,0-0.7c0-0.1,0-0.3,0.1-0.4c0-0.2,0.1-0.4,0.2-0.6c0-0.1,0.1-0.2,0.1-0.3c0-0.2,0.1-0.4,0.2-0.5
		c0.1-0.1,0.2-0.2,0.2-0.3c0.1-0.1,0.2-0.3,0.4-0.3c0.4-0.1,0.8-0.2,1.2-0.2c0.2,0,0.3,0,0.5,0.1c0.1,0,0.1,0.1,0.2,0.1
		c0.2,0.1,0.4,0.2,0.6,0.4c0.1,0,0.1,0.1,0.1,0.2l0.2,0.4c0,0.1,0,0.1,0,0.2c0,0.2,0.1,0.3,0.1,0.5c0,0.2,0.1,0.4,0.1,0.5
		c0,0.2,0,0.4,0,0.6s0,0.5,0,0.7s0,0.6,0,0.9C69.3,14,69.2,14.1,69.2,14.2"/>
	<path class="st0" d="M27.1,12.1c0-0.3-0.1-0.7-0.2-1c0-0.1,0-0.1,0-0.2c0-0.1-0.1-0.3-0.1-0.4c-0.1-0.3-0.3-0.5-0.4-0.8
		c-0.2-0.4-0.5-0.7-0.8-1l-0.3-0.2c-0.3-0.3-0.6-0.5-0.9-0.7c-0.3-0.2-0.6-0.3-1-0.4c-0.4-0.1-0.8-0.2-1.3-0.2c-0.6,0-1.2-0.1-1.9,0
		c-0.1,0-0.2,0-0.2,0c-0.3,0.1-0.6,0.3-0.9,0.4c-0.1,0-0.1,0.1-0.2,0.1s-0.2,0.1-0.3,0c-0.1,0-0.1-0.1-0.1-0.2
		c-0.1-0.2-0.1-0.4-0.1-0.5c0-0.1-0.1-0.2-0.1-0.2c0,0,0,0,0,0h-0.2h-2.4H12h-0.3c-0.4,0.1-0.3,0-0.7,0.2l0,0
		c-0.4,0.2-0.7,0.4-0.9,0.8l0,0C9.9,8,9.8,8.3,9.8,8.6c0,0.4,0,0.7,0,1.1c0,0.1,0.1,0.3,0.1,0.4c0.1,0.1,0.1,0.2,0.1,0.3
		c0.1,0.2,0.2,0.4,0.4,0.6c0.3,0.3,0.6,0.4,0.9,0.6c0.2,0.1,0.4,0.1,0.6,0.1c0.3-0.1,0.7-0.2,1-0.3c0.4-0.2,0.8-0.5,1-0.9
		c0.1-0.2,0.2-0.5,0.4-0.7c0-0.1,0.1-0.2,0.1-0.3c0-0.5-0.2-0.9-0.4-1.4c-0.1-0.2-0.3-0.4-0.5-0.4h-0.1c0,0-0.1-0.1-0.1-0.1
		c0,0,0-0.1,0-0.1c0,0,0,0,0,0l0.1-0.1l0.2-0.1c0.2-0.1,0.4-0.1,0.6,0c0.2,0.1,0.4,0.1,0.6,0.2c0.2,0.1,0.4,0.3,0.5,0.5
		c0.1,0.2,0.1,0.3,0.2,0.5c0.1,0.1,0.1,0.2,0.2,0.3c0,0.1,0.1,0.3,0.1,0.4C16,9.6,16,9.8,16,10c0,0.1,0,0.2,0.1,0.3
		c0,0.1,0,0.1,0.1,0.2c0,0.4,0,0.9,0.1,1.3c0,0,0,0,0,0.1c0,0.2,0,0.5,0,0.7s0,0.7,0,1c0,0.6,0.1,1.3,0,2c0,0.3,0,0.6,0,0.9
		s0,0.3,0,0.5c0,0.3,0,0.7,0,1s0,0.5,0,0.8c0,0.4,0,0.9-0.1,1.3c0,1.2,0,2.4,0.1,3.5V24c0,0.6,0,1.2,0,1.9v0.5c0,0.2,0,0.5,0,0.7
		c0,0.1,0,0.2,0,0.2c0,0.7-0.1,1.4-0.1,2c0,0.2,0,0.5,0.1,0.7c0,0.1,0.1,0.1,0.1,0.1h0.5c0.3,0,0.6,0,1,0c0.8,0,1.5,0,2.3,0h0.2
		l-0.2-0.2c-0.1-0.2-0.3-0.4-0.4-0.5s-0.2-0.4-0.3-0.6c-0.2-0.2-0.3-0.5-0.4-0.8c-0.2-0.7-0.3-1.4-0.3-2.1c0-0.2,0-0.5,0-0.7
		l-0.1-1.1c0-0.2,0-0.3,0-0.5c-0.1-0.5,0-1-0.1-1.6c0-0.1,0-0.3,0-0.4c0-0.6,0.1-1.3,0.1-1.9c0-0.6,0-1.2,0-1.8c0-0.2,0-0.5,0-0.7
		c0-0.1,0.1-0.1,0.2-0.1c0.1,0,0.1,0,0.2,0c0.1,0,0.2,0,0.2,0.1c0.2,0.1,0.3,0.2,0.5,0.2c0.1,0,0.3,0.1,0.4,0.1l0.3,0.1
		c0.3,0.1,0.6,0.2,0.9,0.2c0.4,0.1,0.8,0.1,1.2,0.1l0.4-0.1c0.1,0,0.1,0,0.2-0.1l0.7-0.3c0.2-0.1,0.4-0.2,0.6-0.3l0.3-0.2
		c0.2-0.2,0.5-0.3,0.7-0.5c0.6-0.5,1-1.1,1.3-1.8c0.1-0.3,0.2-0.6,0.4-1c0,0,0-0.1,0-0.1c0.1-0.4,0.1-0.7,0.1-1.1
		C27.1,12.2,27.1,12.1,27.1,12.1 M23.8,14.1l-0.6,0.7C23.1,14.9,23,15,22.9,15c-0.3,0.2-0.6,0.3-0.9,0.3l-0.9,0.1
		c-0.3,0-0.5,0-0.8,0c-0.2,0-0.3-0.1-0.5-0.1c-0.2,0-0.4-0.1-0.6-0.3c0-0.1,0-0.2,0-0.2v-1.3c0,0,0-0.1,0-0.1c0-0.4,0-0.7,0-1.1
		c0-0.3,0-0.6,0-0.9c0-0.3,0-0.6,0-0.9c0-0.1,0.1-0.3,0.2-0.4c0.1-0.1,0.3-0.2,0.4-0.3L20,9.9c0.3-0.1,0.7-0.2,1.1-0.2h0.5
		c0.2,0,0.4,0,0.5,0.1c0.3,0.1,0.5,0.2,0.8,0.3c0.2,0.1,0.4,0.3,0.5,0.5l0.4,0.5c0.1,0.1,0.1,0.2,0.2,0.3c0.2,0.4,0.3,0.8,0.3,1.2
		C24.4,13.1,24.3,13.7,23.8,14.1"/>
	<path class="st0" d="M102.9,8.4c-0.1-0.1-0.2-0.3-0.2-0.4c-0.1-0.2-0.2-0.3-0.3-0.4L102,7.4c-0.1-0.1-0.3-0.2-0.4-0.2
		c-0.2-0.1-0.4-0.2-0.6-0.2c-0.1,0-0.1,0-0.2,0c-0.2-0.1-0.4-0.1-0.6-0.1c-0.1,0-0.2,0-0.4,0c-0.2,0-0.3,0-0.5,0
		c-0.2,0-0.5,0.1-0.7,0.1h-0.1c-0.3,0.1-0.6,0.1-0.8,0c-0.2,0-0.3,0-0.5,0h-2.1c-0.5,0-1.1,0-1.6,0c0,0-0.1,0-0.1,0l-1.6,0.1
		c-0.2,0-0.3,0-0.5,0c-0.2,0-0.3,0-0.5,0c-1.2,0-2.4,0-3.6,0h-2.4h-1.1h-0.1c-0.2,0-0.4,0-0.5,0c-0.1,0-0.3,0-0.4,0
		c-0.2,0-0.3,0-0.5,0H82h-1.5c-0.1,0-0.2,0-0.3,0h-0.4c-0.1,0-0.3,0-0.4,0c-0.5,0-0.9,0-1.4,0.1c-0.2,0-0.4,0-0.6,0h-0.6
		c-0.6,0-1.1,0-1.7,0h-2h-0.2c0,0,0,0.1,0,0.1c0,0,0,0,0,0c0,0,0,0.1,0.1,0.1l0.2,0.2c0.1,0.1,0.3,0.3,0.4,0.4c0,0.1,0,0.1,0,0.2
		c0.1,0.1,0.2,0.2,0.3,0.4c0.1,0.2,0.2,0.4,0.3,0.6c0,0.2,0.2,0.3,0.3,0.3h0.2h2.8l4.8,0.1h3l4.7,0.1c0.2,0,0.4,0,0.6,0.1
		c0,0.1,0,0.1,0,0.2s0,0.2,0,0.3c0,0.6,0.1,1.2,0.1,1.8s0,0.9,0,1.4c0,0.2,0,0.5,0,0.7s0,0.3,0,0.4s0,0.2,0,0.3c0,0.6,0,1.3,0,1.9
		c0,0.2,0,0.4,0,0.6c0,0.1,0,0.3,0,0.4c0,0.6,0,1.3,0,1.9c0,0.4,0,0.7,0,1.1s0,0.5,0,0.8s0,0.8,0,1.1v2.4c0,0.2,0,0.4,0,0.5
		c0,0.2,0,0.5-0.1,0.7c0,0.5-0.1,0.9-0.2,1.4c-0.1,0.5-0.2,0.9-0.2,1.3c0,0.2-0.1,0.4-0.2,0.5L89.6,30c-0.1,0.2-0.2,0.4-0.3,0.5
		l-0.1,0.1h0.1c0.7,0,1.5,0,2.2-0.1l1,0h0.5h0.4c0.1,0,0.2-0.1,0.2-0.2c0,0,0-0.1,0-0.1l-0.1-0.2c0-0.1-0.1-0.2-0.1-0.3
		c-0.1-0.2-0.1-0.3-0.2-0.5c-0.1-0.4-0.2-0.7-0.2-1.1c0-0.3-0.1-0.6-0.1-0.9c0-0.1,0-0.2,0-0.3c0-0.2,0-0.5,0-0.7
		c0-0.3,0-0.6,0.1-0.8c0-0.5,0-0.9,0-1.3c0-0.1,0-0.2,0-0.3c0-0.3-0.1-0.6-0.1-1c-0.1-0.8-0.1-1.6-0.1-2.5c0-0.6,0-1.2,0-1.9
		c0-0.1,0-0.1,0-0.2c0-0.2,0-0.5,0-0.7s0-0.7,0-1c0-0.2,0-0.3,0-0.5c0-0.4,0-0.8,0-1.2c0-0.6,0-1.2,0-1.8c0-0.3,0-0.6,0-0.9v-0.5
		c0-0.3,0-0.5,0-0.8s0-0.8,0-1.2c0-0.1,0-0.2,0-0.3H93l1.7-0.1h0.8L97,9.2c0.2,0,0.2,0,0.2-0.2s0.1-0.4,0.2-0.6
		c0-0.1,0.1-0.3,0.2-0.4l0.2-0.2c0.2-0.2,0.5-0.4,0.9-0.5h0.1c0.3-0.1,0.5-0.1,0.8-0.1c0.1,0,0.1,0,0.2,0.1c0.1,0,0.1,0.1,0,0.2
		c-0.2,0-0.4,0.1-0.5,0.3c0,0,0,0-0.1,0S99,8.1,98.9,8.3c-0.1,0.1-0.1,0.1-0.1,0.2c-0.1,0.2-0.1,0.3-0.1,0.5c0,0.2,0,0.3,0,0.5
		c0,0.1,0,0.1,0,0.2c0,0.2,0.1,0.4,0.2,0.6c0,0.1,0.1,0.1,0.1,0.2c0,0.1,0.1,0.2,0.2,0.2l0.1,0.1c0.1,0.1,0.3,0.2,0.4,0.2
		c0.4,0.1,0.8,0.2,1.2,0.2c0.1,0,0.3,0,0.4,0c0.2-0.1,0.5-0.2,0.7-0.3c0.1,0,0.2-0.1,0.3-0.2c0.2-0.2,0.4-0.5,0.5-0.8
		c0-0.1,0.1-0.3,0.1-0.4c0.1-0.4,0-0.7-0.2-1.1"/>
	<path class="st0" d="M51.5,21c-0.2,0-0.4,0.1-0.5,0.1l-0.2,0.1c-0.3,0.1-0.5,0.3-0.8,0.4c-0.2,0.2-0.5,0.3-0.7,0.5
		c-0.2,0.1-0.3,0.2-0.4,0.3c-0.1,0.1-0.2,0.2-0.2,0.3c-0.4,0.7-0.7,1.5-1,2.2c-0.1,0.2-0.1,0.4-0.2,0.6c-0.2,0.3-0.2,0.7-0.3,1
		c0,0.2,0,0.4,0,0.5c0,0.2,0.1,0.4,0.1,0.6s0.1,0.6,0.2,0.9c0.1,0.3,0.2,0.7,0.4,1c0,0.1,0.1,0.1,0.1,0.2c0.2,0.2,0.3,0.5,0.5,0.7
		c0.1,0.1,0.2,0.2,0.3,0.3c0.2,0.2,0.5,0.4,0.8,0.6c0.1,0,0.1,0.1,0.2,0.1c0.1,0,0.1,0.1,0.2,0.1c0.5,0.2,1,0.4,1.5,0.6
		c0.1,0,0.3,0,0.4,0h0.7c0.2,0,0.4,0,0.5,0l0.8-0.1c0.4,0,0.9-0.2,1.2-0.4c0.3-0.2,0.7-0.4,1-0.6c0.2-0.1,0.4-0.3,0.6-0.6l0.6-0.8
		c0.1-0.1,0.1-0.2,0.2-0.3c0.2-0.3,0.3-0.5,0.5-0.8c0.1-0.1,0.1-0.2,0.1-0.3c0.1-0.3,0.1-0.7,0.2-1c0-0.1,0-0.1,0-0.2
		c0.1-0.1,0.1-0.2,0.1-0.3v-0.3c0-0.1,0-0.3,0-0.4s0-0.3,0-0.4v-0.7c0-0.3,0-0.6,0-0.8c0-0.1,0-0.3,0-0.4c0-0.3,0-0.6,0-0.9v-0.5
		c0-0.3,0-0.7,0-1c0-0.2,0-0.3,0-0.5s0-0.4,0-0.6c0-0.2,0-0.5,0-0.7v-0.1c0-0.8,0-1.5,0-2.3c0-0.4,0-0.7,0-1.1v-0.6
		c0-0.1,0-0.3,0-0.4s0-0.2,0-0.3c0-0.3,0-0.6,0-0.9c0-0.2,0-0.4,0-0.6s0-0.5,0-0.8s0-0.8,0-1.1s0-0.6,0-0.8V8.8V7.4
		c0-0.1,0-0.2,0-0.3h-0.1L53.6,7l0,0h0.1l0.3,0.2c0.1,0.1,0.3,0.2,0.4,0.3L54.9,8l0,0l0.3,0.5c0.2,0.2,0.3,0.5,0.5,0.7
		c0,0.1,0,0.1,0,0.2c0,0.2,0,0.3,0,0.5c0,0.4,0,0.8,0.1,1.1s0,0.9,0,1.3c0,0.3,0,0.6,0.1,0.8v0.1c0,0.2,0,0.5,0,0.8v2.1
		c0,0.5,0,0.9,0,1.3c0,0.3,0,0.5,0,0.8c0,0.9,0,1.9,0,2.8c0,0.2,0,0.4-0.1,0.5l-0.1,0.3c0,0.1-0.1,0.2-0.2,0.1l-0.1,0
		c-0.2-0.2-0.5-0.3-0.7-0.4l-0.4-0.2c-0.1-0.1-0.3-0.1-0.5-0.1l-0.4,0h-0.2c-0.4-0.1-0.9-0.1-1.3,0C51.8,21,51.6,21.1,51.5,21
		 M52.6,23.8c0.3-0.1,0.6-0.1,0.8,0l0.2,0c0.1,0,0.2,0,0.3,0.1l1,0.4c0.1,0,0.2,0.2,0.2,0.3c0,0,0,0.1,0,0.1c0,0.8,0,1.7,0,2.5
		c0,0.1,0,0.3,0,0.5c0,0.3,0,0.6,0,0.9c0,0.1,0,0.2,0,0.2c-0.2,0.1-0.4,0.2-0.6,0.3l-0.3,0.1c0,0,0,0-0.1,0
		c-0.2,0.1-0.5,0.2-0.8,0.1L53,29.4c-0.2,0-0.5,0-0.7,0l-0.4-0.1c-0.1,0-0.3-0.1-0.4-0.1c-0.2-0.1-0.5-0.3-0.7-0.5
		c-0.1-0.1-0.2-0.2-0.3-0.3c0-0.1-0.1-0.1-0.1-0.2c-0.1-0.1-0.1-0.1-0.2-0.2c-0.2-0.3-0.2-0.7-0.2-1.1c0-0.1,0-0.1,0-0.2
		c0-0.1,0-0.3,0-0.4c0.1-0.4,0.2-0.8,0.4-1.1c0.3-0.6,0.8-1.1,1.5-1.3L52.6,23.8"/>
	<path class="st0" d="M41.4,10c0.1,0.5,0.1,1,0.2,1.5c0,0.4,0,0.9,0,1.3c0,0.1,0,0.2,0,0.3l0.1,1.5c0,0.4,0,0.7,0,1.1l0,0
		c0,0.5,0,1-0.1,1.5c0,0.3,0,0.6,0,0.9s0,0.7,0,1.1v2.4c0,0.1,0,0.1,0,0.2c0,0.3-0.1,0.6-0.1,0.9c0,0.1,0,0.2,0,0.2
		c0.2,0,0.4,0,0.6,0c0.2,0,0.4,0,0.7,0h0.2h1.3c0.2,0,0.4,0,0.6,0.1c0,0,0.1,0,0.1,0c-0.1-0.2-0.1-0.4-0.2-0.5
		c-0.1-0.1-0.1-0.2-0.1-0.3c-0.1-0.5-0.2-1-0.3-1.4c0-0.2,0-0.3,0-0.5c0,0,0-0.1,0-0.1c-0.1-0.2-0.1-0.4,0-0.6c0-0.1,0-0.2,0-0.3
		c0-0.3,0-0.7,0-1c0-0.2,0-0.3,0.1-0.4c0.1,0,0.2,0.1,0.3,0.1c0.1,0.1,0.2,0.1,0.3,0.1c0.1,0,0.1,0,0.1,0.1c0.1,0.1,0.3,0.1,0.4,0.1
		c0.2,0,0.3,0.1,0.4,0.1c0.3,0.1,0.7,0.2,1,0.3c0.2,0,0.4,0,0.7,0c0.2,0,0.5,0,0.7-0.1h0.2c0.3-0.1,0.6-0.2,0.8-0.3
		c0-0.1,0.1-0.1,0.2-0.2c0.2,0,0.4-0.1,0.5-0.3c0.2-0.2,0.4-0.3,0.6-0.4c0.1-0.1,0.3-0.2,0.4-0.3c0.1-0.1,0.3-0.3,0.4-0.5
		c0.1-0.1,0.2-0.2,0.2-0.3c0.1-0.1,0.1-0.2,0.2-0.3c0.3-0.3,0.4-0.6,0.5-0.9c0,0,0-0.1,0-0.1c0-0.1,0.1-0.3,0.1-0.5
		c0-0.1,0-0.1,0-0.2l0.1-0.4c0.1-0.3,0.1-0.7,0.1-1.1c0-0.2,0-0.5,0-0.7c0-0.2,0-0.4-0.1-0.6c-0.1-0.3-0.1-0.6-0.2-0.9
		c0-0.3-0.1-0.7-0.3-1c-0.1-0.2-0.2-0.5-0.4-0.7l-0.2-0.2c-0.1-0.2-0.3-0.3-0.5-0.5l-0.1-0.1l-0.4-0.4l-0.2-0.2
		c-0.2-0.2-0.3-0.3-0.5-0.4c-0.3-0.2-0.6-0.3-0.9-0.3c-0.3-0.1-0.5-0.1-0.8-0.2c-0.3-0.1-0.7-0.1-1,0c-0.1,0-0.2,0-0.2,0
		c-0.1,0-0.2,0-0.3,0c-0.3,0.1-0.7,0.1-1,0.2C45,7,44.6,7.2,44.2,7.4c-0.1,0-0.2,0.1-0.3,0.1c-0.1,0-0.2,0-0.3,0.1l-0.1,0.1
		c-0.1,0-0.1,0-0.2,0c0,0,0,0,0,0c0-0.1-0.1-0.1-0.1-0.2c0-0.1,0-0.1,0-0.2c0-0.1,0-0.2,0-0.2c-0.2-0.1-0.5-0.1-0.7,0
		c-0.1,0-0.2,0-0.3,0L42,6.8h-2c-0.1,0-0.1,0-0.1,0.1l0.2,0.2c0.2,0.1,0.3,0.3,0.4,0.5C40.8,8,41,8.5,41.1,9
		C41.2,9.3,41.3,9.7,41.4,10 M44.7,13.4c0-0.5,0-1,0.1-1.5s0-0.8,0-1.2v-0.2l0.2-0.1c0.2-0.1,0.4-0.2,0.6-0.3
		c0.4-0.2,0.9-0.3,1.3-0.3c0.2,0,0.4,0,0.5,0c0.3,0,0.5,0.1,0.8,0.3l0.5,0.4c0.1,0,0.1,0.1,0.1,0.1c0.3,0.3,0.5,0.6,0.5,1
		c0,0.2,0.1,0.5,0.1,0.8c0,0.2,0,0.4,0,0.6c-0.1,0.3-0.1,0.5-0.2,0.8c0,0.1-0.1,0.2-0.1,0.3c-0.1,0.2-0.2,0.4-0.4,0.5L48,15.1
		l-0.2,0.1c-0.3,0.1-0.5,0.2-0.8,0.2c-0.1,0-0.2,0-0.3,0c-0.5,0-1-0.1-1.5-0.3c-0.1-0.1-0.3-0.1-0.4-0.2v-0.1
		C44.7,14.3,44.7,13.9,44.7,13.4L44.7,13.4"/>
	<path class="st0" d="M39.3,16.9c0-0.4-0.1-0.7-0.1-1.1c0-0.3-0.1-0.5-0.3-0.7L38.8,15c-0.1-0.2-0.2-0.3-0.3-0.5c0,0,0-0.1-0.1-0.1
		L38,13.9c-0.2-0.2-0.3-0.4-0.5-0.5c-0.1-0.1-0.2-0.1-0.3-0.2c-0.4-0.4-0.8-0.7-1.3-0.9c-0.1-0.1-0.3-0.1-0.4-0.1L35,12
		c-0.1,0-0.3,0-0.5,0l-0.6,0.1h-0.5L33,12.1c-0.3,0-0.6,0.1-0.8,0.2l-0.4,0.1c-0.4,0.1-0.7,0.2-1,0.4c-0.4,0.3-0.7,0.6-1,0.9
		c-0.3,0.4-0.6,0.7-0.9,1.1c-0.1,0.1-0.1,0.2-0.1,0.2c0,0.2-0.1,0.4-0.1,0.6c-0.1,0.3-0.1,0.6-0.1,0.9v0.1c0,0,0,0,0,0.1
		c0,0.3,0,0.7,0.1,1l0,0l0.2,0.7c0,0.1,0,0.2,0.1,0.3c0.1,0.2,0.1,0.4,0.2,0.6c0.1,0.2,0.1,0.4,0.3,0.6c0,0.1,0.1,0.1,0.1,0.2
		c0.1,0.2,0.1,0.3,0.2,0.5c0.2,0.3,0.4,0.6,0.7,0.8l1,0.6c0.1,0.1,0.2,0.1,0.3,0.1l1.2,0.4c0.1,0,0.3,0.1,0.4,0.1
		c0.5,0,0.9,0,1.4-0.1c0.5-0.1,0.9-0.3,1.3-0.4l0.2-0.1c0.3-0.2,0.6-0.4,0.8-0.6l0.2-0.2c0.1-0.1,0.2-0.2,0.3-0.3
		c0.1-0.1,0.2-0.3,0.3-0.4c0.1-0.1,0.3-0.3,0.4-0.5c0.1-0.2,0.2-0.3,0.4-0.5l0.3-0.4c0.1-0.1,0.2-0.3,0.2-0.5
		c0.1-0.4,0.1-0.8,0.2-1.2c0-0.1,0-0.2,0-0.3C39.4,17.1,39.4,17,39.3,16.9 M36.2,18c-0.1,0.2-0.2,0.4-0.3,0.6
		c-0.1,0.1-0.1,0.1-0.1,0.2c0,0.1-0.1,0.1-0.1,0.2c-0.3,0.3-0.6,0.5-1,0.6l-0.2,0.1c-0.2,0.1-0.4,0.1-0.6,0.1h-0.1
		c-0.5,0-0.9-0.2-1.3-0.5L32.1,19c-0.2-0.2-0.3-0.4-0.3-0.6c0-0.2-0.1-0.4-0.2-0.6c0,0,0-0.1,0-0.1c-0.1-0.1-0.1-0.3-0.1-0.4v-0.2
		c0-0.2,0-0.3,0-0.5c0.1-0.2,0.2-0.4,0.4-0.6l0.2-0.2c0.3-0.3,0.6-0.5,1-0.6c0.1,0,0.2-0.1,0.4-0.1c0.3,0,0.6,0,1,0.1l0.6,0.2
		c0.3,0.1,0.6,0.3,0.8,0.6c0.2,0.3,0.3,0.6,0.4,0.9c0,0,0,0.1,0,0.1C36.3,17.4,36.2,17.7,36.2,18"/>
	<path class="st0" d="M84.2,14.1c-0.2-0.1-0.3-0.2-0.4-0.4l-0.2-0.3l-0.1-0.1L83,13c-0.5-0.4-1-0.7-1.6-0.8l-1-0.3
		c-0.2-0.1-0.4-0.1-0.6-0.1h-0.2c-0.2,0-0.3,0-0.5,0c-0.2,0.1-0.4,0.1-0.6,0.1h-0.1c-0.3,0.1-0.6,0.2-0.9,0.3c0,0-0.1,0-0.1,0
		c-0.1,0-0.1,0-0.2-0.1c0,0,0-0.1,0-0.1c0-0.3,0-0.5-0.1-0.8v-0.1C77,11,76.8,11,76.5,11h-0.8l-0.4-0.1l-0.8-0.1c0,0-0.1,0-0.1,0.1
		c0,0,0,0.1,0,0.1c0.1,0.2,0.1,0.3,0.2,0.5s0.1,0.2,0.1,0.3s0,0.2,0.1,0.4l0.1,0.3c0.1,0.4,0.1,0.7,0.2,1s0.1,0.7,0.2,1s0,0.5,0,0.7
		s0.1,0.7,0.1,1.1c0,0,0,0.1,0,0.1c0,0.4,0,0.7,0,1.1c0,0,0,0.1,0,0.1v0.6c0,0.2,0,0.5,0,0.7v0.3c0,0.7,0.1,1.4,0.1,2.2
		c0,0.4,0,0.9,0,1.3c0,0.2,0,0.2,0.2,0.2c0.1,0,0.1,0,0.2,0c0.2,0,0.3,0,0.5,0h0.7h0.6h1h0.1c0,0,0-0.1,0-0.1
		c-0.1-0.1-0.2-0.3-0.3-0.4c-0.1-0.1-0.2-0.3-0.2-0.5c0-0.1,0-0.2-0.1-0.3c-0.1-0.3-0.2-0.7-0.2-1v-0.1c0-0.2,0-0.4,0-0.7
		c0-0.4-0.1-0.9-0.1-1.3c0-0.2,0-0.5,0-0.7c0-0.6,0-1.2,0.1-1.8c0-0.2,0.1-0.4,0.3-0.5l0.8-0.5c0,0,0.1,0,0.1-0.1
		c0.3-0.1,0.6-0.2,0.9-0.4c0.2-0.1,0.3-0.1,0.5-0.1c0.3,0,0.6,0.1,0.9,0.2l0,0c0.2,0.1,0.5,0.2,0.7,0.3c0.2,0.1,0.3,0.2,0.4,0.4
		c0,0.1,0.1,0.1,0.1,0.2c0.1,0.1,0.2,0.3,0.2,0.5c0,0.2,0.1,0.4,0.2,0.6c0.1,0.2,0.1,0.3,0.2,0.5c0,0.1,0,0.2,0.1,0.3
		c0.1,0.2,0.2,0.3,0.4,0.3c0.4,0.1,0.9,0,1.2-0.3c0.1-0.1,0.2-0.2,0.4-0.3c0.1-0.1,0.2-0.3,0.2-0.5c0-0.7-0.1-1.4-0.3-2.1
		C84.5,14.4,84.3,14.3,84.2,14.1"/>
	<path class="st0" d="M60,9.7c0.1,0,0.1,0,0.2,0h1.1c0.1,0,0.1,0,0.2-0.1c0-0.1,0.1-0.1,0.2-0.1c0.1,0,0.2-0.1,0.2-0.2
		C62,9.3,62,9.2,62,9.1c0.3-0.6,0.7-1.1,1.2-1.6C63.5,7.4,63.7,7.2,64,7l0,0c0.1-0.1,0.2-0.2,0.3-0.4c0-0.1,0-0.1,0-0.2c0,0,0,0,0,0
		c-0.2-0.1-0.3-0.1-0.5-0.1c-0.2,0-0.3,0-0.5,0c-0.5-0.1-1-0.1-1.5-0.1H60c-0.1,0-0.1,0.1-0.1,0.2c0,0,0,0.1,0,0.1c0,0,0,0.1,0,0.1
		c0,0.1,0,0.3,0,0.4c0,0.2,0,0.5,0,0.7c0,0.1,0,0.3,0,0.4c0,0.4-0.1,0.8-0.1,1.2c0,0,0,0.1,0,0.1C59.8,9.6,59.9,9.7,60,9.7"/>
	<path class="st0" d="M39.8,9.1c-0.1-0.1-0.1-0.2-0.2-0.3c-0.3-0.5-0.7-0.9-1.2-1.2c-0.2-0.1-0.3-0.3-0.5-0.4
		c-0.2-0.2-0.4-0.3-0.5-0.4c-0.2-0.1-0.5-0.2-0.7-0.3c-0.1,0-0.2,0-0.3,0c-0.1,0-0.1,0-0.2,0h-0.5l-2.7,0l-2.5-0.1h-0.5h-0.2h-0.4
		h-3.1c-0.3,0-0.6,0-0.9,0c-0.1,0-0.1,0-0.2,0.1c0,0,0,0.1,0,0.1c0,0,0,0,0,0l0.1,0.1l0.3,0.1c0.1,0,0.2,0.1,0.2,0.2
		c0.1,0.1,0.2,0.2,0.3,0.2c0.5,0.3,0.9,0.7,1.3,1.1c0.2,0.2,0.3,0.5,0.5,0.7c0,0.1,0.1,0.2,0.2,0.2c0.1,0,0.1,0,0.2,0.1
		c0.1,0.1,0.2,0.1,0.4,0.1h0.8H32l2.5,0.1h3h0.3H39h0.2c0.2,0,0.4,0,0.6,0c0.1,0,0.2-0.1,0.1-0.2C39.9,9.2,39.9,9.2,39.8,9.1"/>
	<path class="st0" d="M87,31.2c0.2-0.1,0.3-0.2,0.4-0.4l0.1-0.1c0.1-0.1,0.2-0.3,0.1-0.4c0-0.1,0-0.1,0-0.2c-0.1-0.3-0.2-0.6-0.3-1
		c-0.1-0.2-0.1-0.4-0.2-0.6l-0.3-0.9l-0.2-0.5c-0.1-0.3-0.2-0.6-0.3-0.9c-0.2-0.4-0.4-0.9-0.5-1.3c0,0,0-0.1,0-0.1
		c-0.2-0.6-0.5-1.2-0.7-1.9c-0.1-0.3-0.2-0.6-0.4-0.9c-0.1-0.1-0.1-0.3-0.2-0.4c0-0.1-0.1-0.2-0.1-0.2c-0.1-0.2-0.2-0.4-0.3-0.5
		c0-0.1-0.1-0.3-0.1-0.4c0,0-0.1-0.1-0.1-0.1c0,0,0,0,0,0c-0.1,0-0.2,0-0.3,0c-0.1,0-0.2,0-0.3,0c0,0.1,0,0.1,0,0.2
		c0.1,0.5,0.1,1,0.2,1.5c0.1,0.5,0.1,0.9,0.2,1.4c0,0.4,0.1,0.9,0.2,1.3c0.1,0.4,0.1,0.7,0.2,1.1c0,0.1,0,0.2,0,0.3
		c0.1,0.7,0.2,1.3,0.2,2c0,0.1,0,0.2,0,0.4l0.2,1.5c0,0.4,0.1,0.8,0.2,1.2c0.4,0.2,0.8,0.3,1.2,0.3c0.1,0,0.3,0,0.4-0.1
		C86.4,31.5,86.7,31.3,87,31.2"/>
	<path class="st0" d="M23.5,32.2c-0.1-0.1-0.2-0.1-0.3-0.1c-0.1,0-0.3,0-0.5,0.1l-0.7,0c-0.6,0-1.2,0-1.8,0c-0.3,0-0.5,0-0.8,0h-0.5
		h-0.2l-1.6,0.1h-0.8c-0.1,0-0.3,0-0.4,0c-0.1,0-0.2,0-0.2,0h-0.3h-0.1c0,0-0.1,0-0.1,0.1c0,0,0,0.1,0,0.1c0,0.5-0.1,1-0.1,1.5
		S15,35.3,15,35.8c0,0.1,0,0.1,0,0.2v0.8c0,0.1,0,0.1,0,0.2c0.1,0,0.1-0.1,0.2-0.1c0.1-0.1,0.1-0.2,0.2-0.2c0.3-0.2,0.5-0.4,0.8-0.6
		c0.3-0.2,0.6-0.4,1-0.5c0.4-0.1,0.7-0.2,1.1-0.3c0.5-0.1,0.9-0.2,1.4-0.4c0,0,0.1,0,0.1,0c0.5-0.1,1-0.2,1.5-0.4
		c0.5-0.2,0.9-0.4,1.4-0.6c0.3-0.2,0.6-0.4,0.9-0.6c0.2-0.2,0.3-0.3,0.5-0.5c0,0,0,0,0.1-0.1c-0.1-0.1-0.2-0.1-0.3-0.2
		C23.7,32.4,23.6,32.3,23.5,32.2"/>
	<path class="st0" d="M93.3,32.8h-1.1h-0.8c-0.3,0-0.7,0-1,0H90c-0.5,0-1.1,0-1.6,0c-0.1,0-0.2,0-0.3,0c-0.2,0.1-0.4,0.2-0.6,0.3
		c-0.3,0.2-0.6,0.3-1,0.4l-0.3,0.1c-0.1,0-0.1,0-0.2,0.1v0.1c0.3,0.2,0.6,0.4,1,0.5l0.5,0.1l0.7,0.2c0.1,0,0.3,0,0.4,0.1
		c0.7,0.2,1.4,0.4,2.1,0.7l0.2,0.1c0.2,0.1,0.3,0.1,0.5,0.2l0.6,0.3c0.3,0.2,0.6,0.3,0.8,0.5l0.2,0.2c0.1,0.1,0.1,0.1,0.2,0.1
		l0.2-0.1c0,0,0.1,0,0.1-0.1c0,0,0-0.1,0-0.1c0-0.2,0-0.5,0-0.7c0-0.1,0-0.1,0-0.2c0-0.1,0-0.2,0-0.2c0-0.6,0-1.2,0-1.8
		c0-0.2,0-0.3,0-0.4c0,0,0-0.1,0-0.1c-0.1,0-0.2-0.1-0.3-0.1"/>
	<path class="st0" d="M27.6,22.9l0.2-0.2c-0.1-0.2-0.3-0.4-0.4-0.6h-0.1l-0.3,0.1c-1.1,0.5-2.1,0.9-3.2,1.4c-0.5,0.2-1,0.4-1.5,0.7
		c-0.1,0-0.2,0-0.2,0c-0.1,0-0.2,0-0.2,0.1c0.1,0.2,0.1,0.4,0.2,0.6c0,0,0,0.1,0,0.1c0.2,0.3,0.3,0.6,0.5,0.8l0,0
		c0.1,0.1,0.1,0.2,0.2,0.3c0.1,0.2,0.3,0.4,0.5,0.5c0.1,0.1,0.3,0.2,0.4,0.3h0.1c0.3-0.3,0.6-0.6,0.9-0.9c0-0.1,0.1-0.1,0.2-0.2
		c0.1-0.1,0.3-0.2,0.4-0.4l0.5-0.5l0,0c0.1-0.2,0.2-0.3,0.4-0.5L27.6,22.9"/>
	<path class="st0" d="M30.1,24.5c-0.1,0-0.1-0.1-0.2-0.1c0,0-0.1,0.1-0.2,0.2L28.4,26c0,0.1-0.1,0.1-0.1,0.2
		c-0.2,0.2-0.4,0.4-0.6,0.6c-0.2,0.2-0.5,0.5-0.7,0.7s-0.5,0.5-0.7,0.7c-0.1,0.1-0.1,0.1-0.2,0.2c-0.1,0.1-0.1,0.1-0.2,0.2
		c0.1,0.1,0.2,0.2,0.2,0.2c0.5,0.3,0.9,0.6,1.4,0.8c0.4,0.2,0.8,0.3,1.2,0.5c0.1,0,0.2,0,0.2,0l0.1-0.2c0.1-0.3,0.2-0.6,0.3-0.9
		c0-0.1,0-0.1,0.1-0.2c0-0.2,0.1-0.5,0.2-0.7l0.3-0.9c0-0.1,0-0.2,0.1-0.3c0.2-0.5,0.4-1.1,0.5-1.7c0-0.1,0.1-0.2,0.1-0.3
		c0-0.1,0-0.1,0-0.2C30.5,24.7,30.3,24.6,30.1,24.5"/>
	<path class="st0" d="M81.5,19.7c-0.1,0-0.2-0.1-0.3-0.1c-0.3-0.2-0.6-0.4-0.8-0.6l0,0L80.4,19c-0.1,0.2-0.2,0.5-0.3,0.7
		c-0.2,0.4-0.4,0.8-0.6,1.1c-0.1,0.2-0.1,0.4,0,0.5c0.1,0.2,0.2,0.3,0.3,0.5l0.6,0.9c0.1,0.1,0.1,0.1,0.1,0.2c0,0.1,0,0.1,0,0.2
		c-0.1,0.1-0.1,0.2-0.1,0.3c0,0.3-0.1,0.5-0.2,0.8c-0.2,0.5-0.3,1-0.4,1.5s-0.2,1-0.4,1.5s-0.2,0.8-0.3,1.1c0,0.1,0,0.1,0,0.2
		c0.1,0,0.3-0.1,0.4-0.1c0.3-0.1,0.6-0.3,0.8-0.4c0.1,0,0.1-0.1,0.1-0.2c0-0.2,0.1-0.4,0.1-0.5c0.1-0.6,0.2-1.2,0.3-1.8
		s0.2-1.3,0.3-1.9c0.1-0.3,0.1-0.7,0.2-1c0.1-0.8,0.2-1.5,0.3-2.3c0-0.1,0-0.3,0-0.5C81.6,19.8,81.6,19.7,81.5,19.7"/>
	<path class="st0" d="M34.5,29.1c0-0.2,0-0.4-0.1-0.5c0-0.2-0.1-0.4-0.1-0.6c0,0,0-0.1,0-0.1c0-0.4-0.2-0.9-0.2-1.3v-0.1
		c-0.1-0.3-0.1-0.7-0.1-1c-0.1,0-0.2,0-0.3,0h-0.4c-0.1,0-0.3,0-0.4,0l-0.1,0.5c-0.1,0.5-0.2,1.1-0.3,1.6L32.2,29
		c0,0.1,0,0.3-0.1,0.4C32.1,29.6,32,29.8,32,30c0,0.2,0,0.2,0.2,0.2c0.2,0.1,0.4,0.1,0.6,0.1c0.4,0,0.8-0.1,1.2-0.1
		c0.2,0,0.4-0.1,0.6-0.2c0-0.1,0-0.3,0-0.4L34.5,29.1"/>
	<path class="st0" d="M20.7,20.8c0,0.2,0.1,0.4,0.1,0.5c0,0.2,0.1,0.3,0.2,0.4l0.4-0.1l0.5-0.2c0.3-0.1,0.7-0.2,1-0.4
		c0.2-0.1,0.4-0.2,0.6-0.2l0.8-0.3c0.3-0.1,0.6-0.2,0.8-0.3h0.1c0.3-0.1,0.6-0.2,0.9-0.3c0.2,0,0.4-0.1,0.5-0.2c0-0.1,0-0.3-0.1-0.4
		s-0.1-0.5-0.1-0.7c0-0.1,0-0.1-0.1-0.2l-0.2,0.1c-0.2,0.1-0.4,0.2-0.6,0.4c-0.1,0.1-0.3,0.2-0.4,0.2c-0.2,0.1-0.5,0.2-0.8,0.3
		l-0.9,0.3c-0.3,0.1-0.7,0.2-1.1,0.1h-1c-0.1,0-0.3,0-0.4,0c-0.1,0-0.1,0-0.2,0c-0.1,0.1-0.2,0.3-0.2,0.4
		C20.6,20.5,20.6,20.7,20.7,20.8"/>
	<path class="st0" d="M88.6,21.2l-0.5-0.5l-0.3-0.4l-0.5-0.5l-0.5-0.5c-0.1-0.1-0.1-0.1-0.2-0.2L86.4,19l-0.2,0.2L86,19.5
		c-0.1,0.1-0.2,0.1-0.2,0.2l0.3,0.4c0.2,0.3,0.4,0.6,0.7,0.9c0.4,0.6,0.8,1.1,1.1,1.6l0.2,0.2c0.2,0.2,0.3,0.4,0.4,0.6
		c0,0.1,0.1,0.2,0.1,0.2c0,0,0.1,0.1,0.1,0.1c0-0.2,0-0.3,0-0.4c0-0.5,0-1.1,0-1.6C88.7,21.4,88.7,21.4,88.6,21.2L88.6,21.2"/>
	<path class="st0" d="M85.8,13.1l0.3-0.3l1.2-1.2c0.2-0.2,0.4-0.4,0.6-0.6c0,0,0-0.1,0-0.2h-0.1h-1.9c-0.1,0-0.3,0-0.3,0.2L85.5,11
		c-0.3,0.4-0.6,0.9-0.9,1.3c0,0,0,0.1-0.1,0.1c0.4,0.2,0.7,0.5,1,0.8L85.8,13.1"/>
	<path class="st0" d="M37.4,25.1c-0.1-0.1-0.1-0.2-0.2-0.3c-0.1,0-0.2,0.1-0.3,0.2c-0.1,0-0.2,0.1-0.3,0.2c0,0,0,0,0,0.1l0.7,1.9
		c0.1,0.2,0.1,0.4,0.1,0.6c0,0.2,0.1,0.4,0.2,0.5c0.4-0.3,0.8-0.6,1.1-1c0,0,0,0,0.1-0.1c0-0.1,0.1-0.1,0.1-0.2s-0.2-0.3-0.3-0.4
		C38,26.1,37.7,25.5,37.4,25.1"/>
	<path class="st0" d="M87.5,13.8c-0.1,0.1-0.2,0.2-0.4,0.3c-0.1,0.1-0.3,0.3-0.4,0.4l0,0c0.1,0.2,0.2,0.4,0.3,0.6c0,0,0,0,0.1,0
		l1.5-0.4c0.1,0,0.1,0,0.2-0.1c0,0,0-0.1,0-0.1l0.1-1.5c0-0.1,0-0.3,0-0.4l-0.1,0.1L88,13.4C87.8,13.5,87.7,13.6,87.5,13.8"/>
	<path class="st0" d="M44.8,29.9c-0.3-0.2-0.5-0.4-0.8-0.6c-0.3-0.2-0.5-0.5-0.7-0.7c-0.2-0.2-0.3-0.5-0.4-0.7l-0.1-0.1
		c0,0.2,0.1,0.4,0.1,0.6c0.2,0.4,0.3,0.9,0.5,1.3c0.1,0.2,0.2,0.3,0.3,0.5l0.3,0.3c0.1,0.1,0.3,0.2,0.5,0.3c0.1,0,0.1,0,0.2,0
		c0.3,0,0.4-0.1,0.4-0.4c0-0.1,0-0.2-0.1-0.2C45,30.1,44.9,30,44.8,29.9"/>
	<path class="st0" d="M88.4,17l-1-0.1c-0.1,0-0.1,0-0.2,0c0,0.1,0,0.1,0,0.2c0,0.1,0,0.2,0.1,0.3l0.9,0.5c0.2,0.1,0.3,0.2,0.4,0.3
		c0.1,0.1,0.2,0.1,0.4,0.2c0-0.1,0-0.2,0-0.3c-0.1-0.3-0.1-0.7,0-1c0,0,0-0.1,0-0.1l-0.3,0H88.4"/>
	<path class="st0" d="M74.6,26.5c-0.1-0.4-0.2-0.7-0.2-1.1c0-0.1,0-0.3,0-0.4c0-0.2,0-0.5-0.1-0.7c0-0.1-0.1-0.1-0.1-0.2
		C74.1,24,74,24,73.9,24c0,0,0,0-0.1,0.1c0,0.1-0.1,0.1-0.1,0.2c0,0.2,0,0.5,0,0.7c0,0.5,0.2,1,0.4,1.4c0.1,0.3,0.4,0.6,0.7,0.7
		c0,0,0-0.1,0-0.1C74.8,26.9,74.7,26.7,74.6,26.5"/>
	<path class="st0" d="M43.5,27.7c0.1,0.3,0.4,0.5,0.7,0.5c0.1,0,0.3,0,0.4,0c0.2,0,0.3-0.1,0.5-0.2c0.1-0.1,0.2-0.3,0.2-0.4
		c0.1-0.1,0-0.3-0.1-0.3c0,0-0.1,0-0.1,0c-0.1,0-0.1,0-0.2,0.1c-0.1,0-0.1,0.1-0.2,0.1c-0.3,0.1-0.6,0.1-0.9,0l-0.3-0.1
		c0,0.1,0,0.1,0,0.2L43.5,27.7"/>
	<path class="st0" d="M75.3,26c0-0.3,0-0.6,0.1-0.8c0-0.1,0.1-0.2,0.1-0.3c0-0.1,0-0.3-0.1-0.4c-0.1-0.1-0.2-0.1-0.3,0
		c0,0,0,0,0,0.1c-0.1,0.1-0.1,0.2-0.1,0.3c-0.1,0.3-0.1,0.6,0,0.9c0,0.1,0.1,0.2,0.1,0.4c0.1,0.2,0.3,0.4,0.4,0.6c0,0,0-0.1,0-0.2
		C75.4,26.4,75.4,26.2,75.3,26"/>
	<path class="st0" d="M109.4,9V8.9c0-0.4-0.1-0.9-0.2-1.3c0-0.3-0.1-0.5-0.2-0.8l-0.2-0.5l-0.2-0.4c-0.2-0.6-0.5-1.2-0.8-1.7
		c0-0.1-0.1-0.2-0.2-0.3l-0.5-0.6l-0.1-0.1c-0.2-0.2-0.4-0.4-0.5-0.6l-0.5-0.4l-0.7-0.5l-0.2-0.2c0,0-0.1-0.1-0.1-0.1l-0.2-0.1
		l-0.3-0.2c-0.1,0-0.2-0.1-0.2-0.1l-0.2-0.1c-0.1-0.1-0.2-0.2-0.3-0.2c0,0-0.1-0.1-0.1-0.1c-0.2-0.1-0.4-0.1-0.6-0.2
		c-0.3-0.2-0.7-0.3-1-0.2h-1.4H100h-0.3h-0.4c-0.6,0.1-1.2,0.1-1.8,0c-0.4,0-0.7,0-1.1,0c-0.5,0-0.9,0-1.3,0h-1.2
		c-0.4,0-0.8,0-1.2,0h-0.8h-0.7h-1.3c-0.3,0-0.6,0-0.8,0h-0.1c-0.2,0-0.3,0-0.5,0L88,0.2c-0.3,0-0.5,0-0.8,0h-0.1h-1h-0.6
		c-0.4,0-0.8,0-1.2,0c-0.3,0-0.7,0-1,0c-0.2,0-0.5,0-0.7,0l-0.7,0h-0.7h-0.6c-0.4,0-0.8,0-1.2,0c-0.1,0-0.2,0-0.3,0
		c-0.2,0-0.5,0.1-0.7,0.1H76c-0.1,0-0.3,0-0.4,0c-0.1,0-0.2,0-0.2,0h-3.6c-0.1,0-0.2,0-0.2,0c-0.3,0-0.7,0-1,0h-0.1h-0.6h-0.6
		l-1.1,0h-0.8c-0.3,0-0.7,0-1.1,0c-0.1,0-0.2,0-0.3,0h-0.4c-0.3,0-0.5,0-0.8,0.1h-0.7c-0.2,0-0.5,0-0.7,0H63h-0.5h-1
		c-0.2,0-0.5,0-0.7,0h-0.4c-0.1,0-0.2,0-0.3,0c-0.1,0-0.1,0-0.2,0c-0.3,0.1-0.5,0.1-0.8,0h-0.2h-0.8c-0.2,0-0.4,0-0.6,0
		c-0.1,0-0.2,0-0.3,0c-0.2,0-0.3,0-0.5,0h-0.5c-0.2,0-0.4,0-0.5,0c-0.1,0-0.3,0-0.4,0c-0.2,0-0.3,0-0.5,0l0,0c-0.1,0-0.2,0-0.4,0
		h-0.2l0,0h-0.2c-0.2,0-0.4,0-0.5,0h-0.8l0,0h-0.2h-0.1c-0.1,0-0.1,0-0.2,0H52c-0.2,0-0.4,0-0.6,0h0h-0.9c-0.3,0.1-0.5,0.1-0.8,0
		c-0.1,0-0.1,0-0.2,0c-0.1,0-0.2,0-0.2,0H49c-0.4,0-0.8,0-1.2,0h-0.7h-0.5H46c-0.1,0-0.3,0-0.4,0c-0.1,0-0.2,0-0.4,0
		c-0.1,0-0.2,0-0.3,0h-0.2h-0.4c-0.1,0-0.2,0-0.3,0c-0.3,0-0.5,0-0.8,0c-0.4,0-0.8,0-1.2,0h-0.1h-0.5l-1.3,0.1h-0.7h-0.5h-0.4
		c-0.1,0-0.2,0-0.3,0c-0.2,0-0.4,0-0.6,0h-0.5h-0.4c-0.2,0-0.5,0-0.7,0h-0.4c-0.5,0-0.9,0-1.4,0c-0.1,0-0.2,0-0.2,0l0,0h-0.1
		c-0.1,0-0.2,0-0.3,0h-1.6h-1c-0.2,0-0.4,0-0.6-0.1c-0.1,0-0.3,0-0.4,0h-0.6h-0.5h-1h-0.4H27h-0.3c-0.2,0-0.3,0-0.5,0
		c-0.4,0-0.8,0-1.1,0c-0.5,0-0.9,0-1.4,0H21h-0.3h-0.1h-0.2h-0.5h-1.3h-0.3h-0.5h-0.6h-0.9h-0.7h-0.9c0,0-0.1,0-0.1,0
		c-0.3,0-0.7,0-1,0h-0.9c-0.2,0-0.4,0-0.6,0c-0.5,0-1,0-1.4,0c-0.3,0-0.7,0-1,0H8.6h-1H7.2C7,0.4,6.7,0.5,6.4,0.6
		C6.3,0.7,6,0.8,5.8,0.9c0,0-0.1,0.1-0.1,0.1C5.6,1.1,5.5,1.1,5.4,1.2C5.2,1.3,5,1.5,4.8,1.6C4.7,1.6,4.6,1.7,4.5,1.8l-0.1,0
		C4.3,1.9,4.3,1.9,4.2,2H4.1L3.8,2.2c-0.5,0.4-1,0.8-1.3,1.3C2.3,3.8,2.1,4,2,4.2L1.7,4.5L1.6,4.7C1.2,5.2,1,5.8,0.8,6.4
		C0.6,6.7,0.6,7,0.5,7.3l0,0C0.4,7.4,0.4,7.6,0.3,7.7C0.2,8.4,0.1,9.1,0,9.8c0,0.2,0,0.5,0,0.7v0.2c0,0.1,0,0.2,0,0.3
		c0,0.5,0.2,0.9,0.3,1.4l0.1,0.2l0.1,0.2c0,0.1,0.1,0.3,0.2,0.4c0,0,0.1,0.1,0.1,0.1l0.1,0.3c0.1,0.3,0.2,0.5,0.3,0.8
		c0,0.1,0.1,0.1,0.1,0.2c0.1,0.1,0.2,0.2,0.2,0.3c0.1,0.2,0.2,0.3,0.3,0.5c0.2,0.4,0.5,0.7,0.8,1l0.3,0.4c0,0,0.1,0.1,0.1,0.1
		c0.5,0.4,1,0.8,1.6,1l0.6,0.2l0.6,0.2c0.2,0.1,0.5,0.1,0.7,0.1c0.2,0,0.3,0,0.5,0.1c0.3,0.1,0.6,0.1,0.8,0.1h0.4c0.1,0,0.1,0,0.2,0
		h0.6h0.3c0.1,0,0.2,0,0.3,0c0.1,0,0.2,0,0.3,0h0.2c0.1,0,0.3,0.1,0.4,0.1c0.2,0.1,0.3,0.2,0.3,0.4v0.1c0,0.2,0.1,0.4,0.1,0.6
		c0,0.2,0,0.4,0,0.6s0,0.4,0,0.6c0,0.1,0,0.2,0,0.2c0,0.1,0,0.3,0,0.4c0,0.1,0,0.1,0,0.2c0,0.5,0.1,1,0,1.6s0,1,0,1.5V28
		c0,0.3,0,0.7,0,1v0.1v0.4c0,0.3,0.1,0.6,0.1,0.9c0,0.3,0,0.5,0,0.8c0,0.2,0,0.4,0,0.5c0,0,0,0.1,0,0.1c0,0.5,0,1,0,1.5
		c0,0.2,0,0.4,0,0.7v0.3c0,0.3,0,0.6,0,0.9s0,0.3,0,0.5v0.2c0,0.1,0,0.2,0,0.3s0,0.3,0,0.5c0,0.9,0,1.8,0,2.6c0,0.7,0,1.3,0,2
		c0,0.4,0,0.8,0,1.2h0.4H12l0.8,0c0.4,0,0.8,0.1,1.2,0h0.4h0.4c0.6,0,1.2,0.1,1.8,0.1H17h0.2v-0.1v-0.1c0-0.1,0.1-0.2,0.1-0.4
		c0.2-0.3,0.4-0.6,0.7-0.9c0.1-0.2,0.3-0.3,0.4-0.5c0.3-0.3,0.6-0.5,0.9-0.8c0.3-0.2,0.6-0.4,1-0.6c0.1-0.1,0.3-0.1,0.4-0.2l0,0
		c0.1-0.1,0.3-0.1,0.4-0.2l0.5-0.2l0.6-0.2l0.9-0.3c0.3-0.1,0.6-0.2,0.9-0.4l0.5-0.2c0.2-0.1,0.4-0.2,0.6-0.3
		c0.1-0.1,0.3-0.2,0.4-0.2c0.3-0.1,0.5-0.3,0.8-0.5l0.5-0.4l0.1-0.1l0.1-0.1l0.2-0.2l0.1-0.1c0,0,0.1-0.1,0.1-0.1
		c0.4-0.4,0.8-0.8,1.2-1.2v0l0.2-0.2c0.1-0.1,0.2-0.2,0.4-0.2l0,0c0.2,0,0.4,0.1,0.5,0.2H30c0.3,0.1,0.7,0.2,1,0.3l0.5,0.1l0.5,0.1
		c0.4,0.1,0.9,0.1,1.4,0l1-0.1c0.7-0.1,1.4-0.3,2-0.7c0.1-0.1,0.2-0.1,0.3-0.2l0,0l0.1-0.1l0.1-0.1l0.3-0.2l0.3-0.2l0.2,0.1h0.1l0,0
		c0.2,0.1,0.4,0.2,0.5,0.4l0.1,0.2c0.1,0.3,0.3,0.5,0.5,0.7c0.2,0.2,0.4,0.4,0.5,0.7l0.1,0.2l0.1,0.1c0.1,0.2,0.2,0.3,0.4,0.5
		l0.2,0.2l0.2,0.3l0.4,0.5l0.3,0.3c0.4,0.4,0.8,0.8,1.2,1.2l0.3,0.3l0.2,0.2l0.1,0.1c0.1,0.1,0.2,0.2,0.3,0.2l0.5,0.4
		c0.5,0.4,1,0.8,1.5,1.1c0.2,0.1,0.4,0.3,0.5,0.4c0.4,0.3,0.7,0.5,1.1,0.7c0.1,0,0.2,0.1,0.2,0.2c0,0,0.1,0,0.1,0l0.9,0.3l0.2,0
		c0.4,0.2,0.9,0.3,1.4,0.3h0.1c0.2,0,0.4,0.1,0.6,0.1l1,0.1l0,0c0.3,0,0.5,0,0.8,0h0.3h0.1h0.1l1.2-0.1l0.9-0.1H55
		c0.3,0,0.6,0,0.9-0.1c0.1,0,0.2,0,0.3,0h0.2c0.1,0,0.2,0,0.3,0c0.4-0.1,0.7-0.2,1.1-0.3l0,0c0.2,0,0.4-0.1,0.6-0.2l0.2-0.1h0.1h0.1
		h0.2H59c0.1,0,0.1,0,0.2-0.1h0.1h0.1c0.2-0.1,0.3-0.1,0.5-0.2c0.1-0.1,0.2-0.2,0.3-0.2c0.4-0.2,0.7-0.4,1-0.7l0.5-0.5l0.2-0.2
		l0.8-0.8l0.6-0.7l0.1-0.1l0.2-0.2c0.6-0.8,1.3-1.5,2-2.3c0.1-0.1,0.2-0.3,0.3-0.4c0.1-0.2,0.2-0.3,0.3-0.5s0.2-0.2,0.2-0.4l0.5-0.8
		c0.1-0.1,0.2-0.2,0.3-0.3c0.2-0.2,0.5-0.2,0.7,0c0,0,0,0,0,0l0.1,0.1l0,0c0.3,0.2,0.6,0.3,0.9,0.5c0.3,0.2,0.7,0.4,1,0.6
		c0.1,0.1,0.2,0.1,0.4,0.1c0.1,0,0.2,0,0.2,0.1c0.4,0.2,0.8,0.3,1.3,0.4l0,0l0.3,0.1c0.2,0.1,0.4,0.1,0.7,0.2
		c0.4,0.1,0.7,0.1,1.1,0.2h0.3c0.1,0,0.3,0,0.4,0h0.2l0.7-0.1h0.2h0.1h0.1c0.1,0,0.1,0,0.2-0.1h0.1c0.2,0,0.4-0.1,0.6-0.2
		C76.9,36,77,36,77.2,36h0.1c0.2-0.1,0.4-0.2,0.7-0.2h0.1h0.1l0.3-0.1c0.2-0.1,0.3-0.2,0.5-0.3c0.4-0.3,1-0.2,1.3,0.1l0.1,0.1l0,0
		l0.3,0.3c0.1,0.2,0.3,0.3,0.5,0.5c0.5,0.3,1,0.5,1.6,0.7c0.1,0,0.2,0.1,0.3,0.2c0.1,0.1,0.3,0.1,0.4,0.2c0.2,0.1,0.3,0.1,0.5,0.2
		c0.2,0.1,0.4,0.2,0.6,0.2h0.1l0.3,0.1l0.8,0.2h0.2H86l1.3,0.3h0.1c0.2,0,0.4,0.1,0.6,0.2c0.6,0.2,1.1,0.5,1.7,0.7l0.3,0.2h0.1
		l0.1,0.1l0.1,0.1c0.4,0.2,0.7,0.5,1.1,0.8l0.1,0.1c0.2,0.2,0.4,0.5,0.6,0.8c0.1,0.2,0.2,0.4,0.3,0.7c0,0.1,0.1,0.2,0.2,0.3l0,0h0.4
		c0.6,0,1.2,0,1.9,0h1.8h0.7v-0.1c0-0.2,0-0.3,0-0.5v-0.4c0-0.1,0-0.2,0-0.4c0-0.3,0-0.6,0-0.9c0-0.5,0-1,0.1-1.5v-0.1
		c0-0.1,0-0.3,0-0.4c0.1-0.3,0.2-0.6,0.2-0.9c0-0.2,0-0.4,0-0.6v-0.2c0-0.1,0-0.1,0-0.2c0-0.2,0-0.4,0-0.6V35c0-0.3,0-0.6,0-0.9l0,0
		c0-0.3,0-0.7,0-1c0-0.2,0-0.5,0.1-0.7c0-0.2,0.1-0.3,0.1-0.5c0-0.5,0.1-1,0.2-1.5v-0.2c0-0.2,0-0.4,0-0.6v-0.4v-1v-0.6
		c0-0.4,0-0.8,0-1.2v0c0-0.5,0-0.9,0-1.3c0-0.3,0-0.5,0-0.8v-0.6c0-0.1,0-0.2,0-0.4c0-0.2,0-0.4,0-0.7c0,0,0-0.1,0-0.1v-0.1
		c0-0.1,0-0.2,0-0.3c0-0.2,0-0.4,0-0.7c0-0.1,0-0.3,0-0.5v-0.5c0-0.4,0-0.7,0-1.1c0-0.1,0-0.2,0.1-0.4c0,0,0-0.1,0-0.1
		c0-0.3,0.3-0.6,0.6-0.6c0.2,0,0.4,0,0.6,0c0.1,0,0.3,0,0.4,0h0.1c0.3,0,0.7,0,1,0h0.3c0.3,0,0.5,0,0.8-0.1c0.2-0.1,0.4-0.1,0.6-0.1
		c0.2,0,0.4,0,0.6-0.1l0.2-0.1l1.2-0.5c0.3-0.1,0.6-0.3,0.9-0.5c0.5-0.2,1-0.5,1.3-0.9l0.4-0.5l0.3-0.3c0,0,0.1-0.1,0.1-0.1
		c0.1-0.1,0.1-0.2,0.2-0.2c0.1-0.1,0.2-0.2,0.2-0.3c0.1-0.2,0.2-0.3,0.3-0.4c0,0,0.1-0.1,0.1-0.1c0.1-0.3,0.2-0.6,0.4-0.9l0.1-0.2
		c0-0.1,0.1-0.1,0.1-0.2c0.1-0.1,0.1-0.2,0.1-0.3v-0.1c0-0.1,0.1-0.3,0.1-0.4l0.1-0.3c0.1-0.2,0.1-0.4,0.2-0.7c0-0.1,0-0.3,0.1-0.4
		v-0.2c0-0.1,0-0.3,0.1-0.4C109.4,9.6,109.4,9.3,109.4,9z M107.6,10.4v0.1c0,0.1,0,0.1,0,0.2c0,0.1,0,0.2,0,0.3v0.1c0,0,0,0.1,0,0.1
		c0,0.1-0.1,0.2-0.1,0.2c-0.1,0.2-0.2,0.5-0.3,0.7c-0.2,0.3-0.4,0.6-0.5,0.9c-0.1,0.2-0.2,0.4-0.3,0.6l0,0c-0.2,0.3-0.5,0.5-0.8,0.8
		l-0.2,0.2l-0.1,0.1l0,0c-0.2,0.2-0.3,0.3-0.6,0.4l-0.2,0.1c-0.2,0.2-0.5,0.4-0.8,0.5l-0.2,0.1l0,0c-0.2,0.1-0.4,0.1-0.6,0.2
		c-0.4,0.2-0.8,0.3-1.3,0.3c-0.1,0-0.2,0-0.2,0c-0.3,0.1-0.7,0.2-1,0.2c-0.2,0-0.4,0.1-0.5,0.1h-0.1c-0.5,0.1-1,0.2-1.5,0.1
		c-0.1,0-0.2,0-0.3,0h-0.8c0,0.1,0,0.1,0,0.2c0,0.2,0,0.5,0,0.7s0,0.5,0,0.7s0,0.2,0,0.4s0,0.5,0,0.7s0,0.3,0,0.5s0,0.3,0,0.4
		c0,0.1,0,0.1,0,0.2v0.1c0,0.2,0,0.5,0,0.7v0.2c0,0.2,0,0.4,0,0.7v0.9c0,0.1,0,0.2,0,0.3c0,0.5,0,1.1,0,1.6v0.5c0,0.3,0,0.7,0,1
		c0,0.1,0,0.3,0,0.4c0,0.1,0,0.2,0,0.3c0,0.6,0,1.1,0,1.7v1.3c0,0.2,0,0.4,0,0.5c0,0.4,0,0.7,0,1s0,0.5,0,0.7s0,0.2,0,0.3V33
		c0,0.1,0,0.2,0,0.3c0,0.2,0,0.5,0,0.7v0.3c0,0.2,0,0.4,0,0.6v0.3c0,0.3,0,0.5,0,0.8c0,0.2,0,0.4,0,0.6c0,0.1,0,0.3,0,0.4v0.1
		c0,0,0,0.1,0,0.2c0,0.1,0,0.2,0,0.4c0,0.1,0,0.3,0,0.4c0,0.2,0,0.4,0,0.6V39c0,0.2,0,0.4,0,0.6v0.1c0,0.2-0.1,0.3-0.2,0.5l0,0
		c-0.1,0.3-0.3,0.4-0.5,0.5h-0.8h-0.8h-1.3H93c-0.1,0-0.3,0-0.4,0h-0.1c-0.2,0-0.4-0.1-0.6-0.3l-0.2-0.2c-0.2-0.2-0.3-0.4-0.4-0.7
		c-0.1-0.1-0.1-0.2-0.2-0.3c0,0-0.1-0.1-0.1-0.1c-0.2-0.2-0.4-0.4-0.6-0.6l-0.1-0.1c-0.1-0.1-0.3-0.2-0.4-0.3
		c-0.2-0.1-0.5-0.2-0.7-0.3l-0.8-0.3l-0.7-0.2h-0.1l-0.2-0.1L87,37.1l-1.4-0.5l-0.4-0.2H85c-0.1,0-0.2-0.1-0.3-0.2L84.3,36
		c-0.2-0.1-0.5-0.2-0.7-0.4c0,0-0.1,0-0.1-0.1c-0.2-0.1-0.4-0.2-0.5-0.3c-0.1-0.1-0.2-0.1-0.2-0.2h-0.1l-0.3-0.2L82,34.7
		c-0.1-0.1-0.2-0.2-0.3-0.3c0,0-0.1-0.1-0.1-0.1c-0.2-0.2-0.4-0.4-0.6-0.6l-0.1-0.2l-0.2-0.3c-0.1-0.2-0.2-0.5-0.3-0.7
		c0-0.2-0.1-0.4-0.2-0.5c-0.1,0-0.2,0.1-0.3,0.1c-0.3,0.2-0.7,0.4-1,0.5c-0.1,0.1-0.3,0.1-0.4,0.1h-0.1c-0.1,0-0.3,0.1-0.4,0.2
		c-0.4,0.2-0.8,0.4-1.2,0.5c-0.2,0-0.3,0.1-0.5,0.2c-0.1,0-0.2,0.1-0.3,0.1l-1.3,0.2c-0.1,0-0.2,0-0.3,0h-0.5c-0.3,0-0.7,0-1-0.1
		h-0.2l-0.3-0.1c-0.2,0-0.3-0.1-0.5-0.1c-0.3-0.1-0.6-0.2-0.9-0.4c-0.7-0.3-1.4-0.7-2.1-1.2c-0.1-0.1-0.1-0.1-0.2-0.2l-0.3-0.3
		l-0.6-0.6c-0.2-0.2-0.4-0.5-0.6-0.7l0,0l-0.1,0.4c0,0.2-0.1,0.4-0.2,0.5c-0.1,0.4-0.3,0.9-0.5,1.3l-0.1,0.2c0,0.1-0.1,0.2-0.1,0.2
		L66,33.3c-0.3,0.6-0.6,1.2-0.9,1.8c-0.3,0.5-0.6,1-1,1.4c-0.1,0.1-0.2,0.2-0.3,0.2l-0.1,0.1c-0.1,0.1-0.2,0.2-0.2,0.3l-0.4,0.5
		L62.7,38L62.6,38c-0.2,0.3-0.6,0.6-0.9,0.8L61.5,39l-0.1,0c0,0-0.1,0.1-0.1,0.1l-0.5,0.3c-0.3,0.2-0.7,0.4-1,0.6l-0.1,0.1
		c-0.4,0.3-0.9,0.5-1.3,0.7l-0.4,0.2L57.6,41l-0.2,0.1L57,41.2l-0.2,0.1h-0.1l-0.5,0.2L56,41.5l-0.2,0l-1,0.2
		c-0.3,0.1-0.7,0.1-1.1,0.1c-0.1,0-0.3,0-0.4,0h-0.2c-0.4,0-0.9,0-1.3-0.1h-0.1c-0.2,0.1-0.4,0.1-0.7,0l-1.4-0.4l-0.3-0.1l-0.3-0.1
		c-0.1,0-0.3,0-0.4-0.1L48.2,41L48,40.9c-0.1,0-0.2-0.1-0.3-0.1c-0.1,0-0.2-0.1-0.3-0.1L47,40.5l-0.5-0.2l-0.2-0.1
		c-0.2,0-0.3-0.1-0.4-0.2c-0.3-0.2-0.7-0.4-1-0.6l-0.1-0.1c-0.1-0.1-0.2-0.1-0.3-0.2l-0.1-0.1l-0.4-0.3l-0.7-0.5
		C43.1,38,43,38,43,37.9l-0.2-0.2l-0.2-0.1c-0.1-0.1-0.3-0.2-0.4-0.3l-0.8-0.9c-0.2-0.2-0.3-0.3-0.5-0.5c-0.1-0.1-0.2-0.3-0.3-0.4
		c0-0.1-0.1-0.2-0.2-0.2c-0.1-0.1-0.2-0.2-0.3-0.3s-0.2-0.3-0.3-0.4s-0.2-0.3-0.3-0.5c-0.3-0.5-0.5-1-0.7-1.5c0-0.1-0.1-0.1-0.1-0.2
		l-0.1-0.2L38.7,32c-0.1-0.2-0.2-0.5-0.2-0.7l-0.3,0.2c-0.2,0.2-0.5,0.4-0.8,0.5l-0.3,0.2l-0.2,0.1l-0.2,0.1l-0.8,0.4l-0.3,0.1h-0.1
		L35,33.1c-0.4,0.1-0.8,0.2-1.2,0.3c-0.5,0.1-0.9,0.1-1.4,0.2c-0.1,0-0.3,0-0.4,0l-0.4-0.1L31,33.4c-0.6-0.1-1.2-0.3-1.8-0.5
		c-0.3-0.1-0.5-0.3-0.8-0.4l-0.2,0.1l0,0l-0.2,0.2c-0.2,0.1-0.4,0.3-0.5,0.5l-0.3,0.3L27,33.9c-0.2,0.3-0.5,0.5-0.8,0.7
		c-0.1,0.1-0.2,0.1-0.3,0.2l-0.3,0.2c-0.4,0.3-0.8,0.6-1.1,0.8l-0.6,0.4c-0.1,0.1-0.3,0.2-0.5,0.3c-0.1,0.1-0.2,0.1-0.3,0.2
		c-0.4,0.2-0.9,0.4-1.4,0.6l-0.6,0.2l-0.5,0.2c-0.1,0-0.3,0.1-0.4,0.1c-0.1,0-0.3,0.1-0.4,0.1L19.5,38l-0.2,0h-0.1l-0.2,0
		c-0.4,0.2-0.9,0.4-1.2,0.7L17.6,39c-0.2,0.1-0.3,0.3-0.3,0.4c-0.2,0.4-0.4,0.8-0.6,1.2l-0.1,0.2L16.5,41c-0.1,0.2-0.4,0.3-0.7,0.2
		h-0.2h-2.4H13c-0.2,0-0.3,0-0.5-0.1c-0.3,0-0.5-0.2-0.5-0.4v-0.1c-0.1-0.2-0.1-0.3-0.1-0.5c0-0.3,0-0.6,0-1c0-0.1,0-0.1,0-0.2
		c0-0.8,0-1.6,0-2.4c0-0.1,0-0.2,0-0.3c0-0.2,0-0.5,0-0.7l0,0c0-0.1,0-0.3,0-0.4c0-0.3,0-0.5,0-0.8c0,0,0-0.1,0-0.1l0,0
		c0-0.2,0-0.3,0-0.5c0,0,0-0.1,0-0.2c0-0.4,0-0.8,0-1.2c0-0.4,0-0.9,0-1.3c0-0.1,0-0.2,0-0.2c0-0.3,0-0.7,0-1c0-0.2,0-0.4,0-0.6
		c0-0.3,0-0.6,0.1-0.9v-0.6c0-0.1,0-0.3,0-0.5s0-0.3,0-0.5s0-0.2,0-0.3s0-0.3,0-0.4c0-0.3,0-0.6,0-0.9V25c0-0.3,0-0.5,0-0.8V24
		c0-0.2,0-0.4,0-0.6v-1.2c0-0.3,0-0.6,0-0.9c0-0.1,0-0.2,0.1-0.2v-0.5c0-0.2,0-0.5,0-0.8s0-0.3,0-0.5v-1.2c0-0.2,0-0.5,0-0.7
		c-0.5,0-0.9,0-1.4,0c-0.2,0-0.4,0-0.6,0H9.8c-0.2,0-0.4-0.1-0.6-0.1H8.9H8.8c-0.3,0-0.7-0.1-1-0.2c-0.1,0-0.2,0-0.3,0
		c-0.2,0-0.4,0-0.5-0.1H6.8c-0.2,0-0.3-0.1-0.5-0.2H6.2c-0.4-0.1-0.8-0.2-1.1-0.4c-0.1-0.1-0.2-0.2-0.3-0.3C4.7,16,4.6,16,4.5,15.9
		c-0.2-0.2-0.4-0.4-0.5-0.6l0,0l0,0L3.7,15l-0.1-0.1c-0.2-0.1-0.4-0.3-0.5-0.5c-0.2-0.3-0.4-0.6-0.5-1c-0.1-0.2-0.2-0.4-0.3-0.6
		l0-0.1c-0.1-0.2-0.2-0.4-0.3-0.6V12l0,0c0-0.1,0-0.1,0-0.2c0-0.2,0-0.5-0.1-0.8v-0.2c0-0.2,0-0.4,0.1-0.6c0-0.1,0.1-0.2,0.1-0.3
		V9.7V9.6c0-0.1,0.1-0.2,0.1-0.3C2,9.2,2.1,9.1,2.1,9c0.1-0.2,0.2-0.4,0.2-0.6c0-0.1,0.1-0.2,0.1-0.3c0.1-0.3,0.2-0.6,0.4-0.9
		c0,0,0-0.1,0.1-0.1C3,6.9,3,6.8,3.1,6.6C3.2,6.3,3.3,6,3.5,5.8c0.4-0.5,0.8-1,1.3-1.4l0.1-0.1C5.1,4,5.4,3.6,5.8,3.4l0.4-0.2
		l0.2-0.1L6.6,3c0.2-0.2,0.5-0.4,0.8-0.5h0.1C7.6,2.4,7.8,2.3,8,2.3h0.9h1.5h1.4l1.8-0.1c0.4,0,0.8,0,1.3,0c0.3,0,0.6,0,0.9,0
		c0.3,0,0.7,0,1,0h0.4l0,0c0.4,0,0.7,0,1.1,0.1h0c0.1,0,0.2,0,0.4,0.1h0.7c0.4,0,0.8,0,1.2,0h0.3h1.5h0.9c0.2,0,0.4,0,0.7,0
		c0.2,0,0.5,0,0.7,0h0.7c0.4,0,0.8,0,1.2-0.1h1.1h1.1c0.3,0,0.7,0,1,0h1.2c0.2,0,0.4,0,0.6,0c0.4,0,0.8,0,1.2,0h2.9h1.1h2.4
		c0.6,0,1.3,0,1.8,0H42c0.1,0,0.2,0,0.3,0h0.2h0.2h1.1c0.2,0,0.4,0,0.6,0h1.2c0.1,0,0.2,0,0.3,0h0.7h0.6h0.9h1.9c0.3,0,0.5,0,0.8,0
		l0,0c0.2,0,0.4,0,0.6,0h0.1H52h0.8H54c0.1,0,0.2,0,0.2,0h0.1h0.2c0.1,0,0.3,0,0.4,0h1.5H57h1.2h0.2c0.1,0,0.2,0,0.4,0h0.1
		c0.1,0,0.2,0,0.3,0c0.2,0,0.4,0,0.5,0h0.5c0.4,0,0.8,0,1.1,0h0.8h1.2c0.1,0,0.2,0,0.3,0c0.1,0,0.1,0,0.2,0h1.2h0.3h0.3h1h0.2H67
		h0.1c0.1,0,0.3,0,0.4,0h2.5c0.4,0,0.8,0,1.2,0h2.5c0.1,0,0.3,0,0.4,0h0.3h0.4h1.3H77h0.3c0.2,0,0.3,0,0.5,0c0,0,0.1,0,0.2,0H80
		c0.2,0,0.4,0,0.5,0c0.1,0,0.2,0,0.2,0c0.3,0,0.6,0,0.9,0h1.1h1.7h0.4c0.2,0,0.4,0,0.5,0H86h0.7c0.3,0,0.5,0,0.8,0
		c0.6,0,1.2,0,1.9,0c0.3,0,0.6,0,0.9,0h0.5c0.1-0.1,0.3-0.1,0.4-0.1h0.1c0.3,0,0.5-0.1,0.8-0.1h0.4h0.2c0.2,0,0.5,0,0.7,0
		c0.5,0,1,0,1.5,0s0.8,0,1.2,0h0.2L97,2h0.7c0.2,0,0.4,0,0.6,0h0.4l1.7-0.1c0.5,0,1,0,1.5,0.1h0.3h0.2c0.2,0,0.4,0.1,0.6,0.3
		c0.1,0.1,0.1,0.1,0.2,0.2l0.2,0.2l0.2,0.1l0.1,0.1l0,0l0.3,0.2l0.2,0.2l0.2,0.2c0.2,0.1,0.3,0.3,0.4,0.5L105,4
		c0.2,0.3,0.4,0.5,0.6,0.8c0,0.1,0.1,0.1,0.2,0.2v0.1c0.2,0.3,0.4,0.6,0.5,0.9c0.1,0.2,0.1,0.4,0.2,0.5l0.1,0.2v0.1
		c0.1,0.2,0.2,0.4,0.3,0.6c0.1,0.2,0.1,0.3,0.2,0.5l0.1,0.3c0.1,0.3,0.2,0.6,0.3,0.9l0,0c0,0,0,0.1,0,0.1v0.2c0,0.1,0,0.2,0.1,0.3
		c0.1,0.2,0.1,0.3,0.1,0.5C107.6,10.3,107.6,10.4,107.6,10.4L107.6,10.4z"/>
	<polygon class="st0" points="100.2,21.3 101.1,21.3 101.1,23.8 101.4,23.8 101.4,21.3 102.3,21.3 102.3,21 100.2,21 	"/>
	<polygon class="st0" points="104.3,23.2 103.4,21 102.8,21 102.8,23.8 103.2,23.8 103.2,21.3 103.2,21.3 104.2,23.8 104.4,23.8 
		105.4,21.3 105.4,21.3 105.4,23.8 105.7,23.8 105.7,21 105.2,21 	"/>
</g>
</svg>
