<?xml version="1.0" encoding="utf-8"?>
<!-- Generator: Adobe Illustrator 23.0.1, SVG Export Plug-In . SVG Version: 6.00 Build 0)  -->
<svg version="1.1" id="Layer_1" xmlns="http://www.w3.org/2000/svg" xmlns:xlink="http://www.w3.org/1999/xlink" x="0px" y="0px"
	 viewBox="0 0 25 25" style="enable-background:new 0 0 25 25;" xml:space="preserve">
<style type="text/css">
	.st0{fill:#99CC66;}
</style>
<title>Artboard 24</title>
<path class="st0" d="M21.6,0H3.4C1.5,0,0,1.5,0,3.4v18.3C0,23.5,1.5,25,3.4,25c0,0,0,0,0,0h9v-8.9h-2.3c-0.3,0-0.6-0.2-0.6-0.6l0,0
	v-2.9c0-0.3,0.2-0.6,0.6-0.6l0,0h2.3V9.3c0-3.2,2-5,4.9-5h2.4c0.3,0,0.5,0.2,0.5,0.6v2.4c0,0.3-0.2,0.5-0.5,0.6h-1.5
	c-1.6,0-1.9,0.7-1.9,1.8v2.4h3.4c0.3,0,0.6,0.2,0.6,0.5c0,0,0,0,0,0.1l-0.3,2.9c0,0.3-0.3,0.5-0.5,0.5h-3.1V25h5.4
	c1.9,0,3.4-1.5,3.3-3.4V3.4C25,1.5,23.5,0,21.6,0C21.6,0,21.6,0,21.6,0z"/>
</svg>
